<?xml version="1.0" encoding="UTF-8" standalone="no"?>
<!-- Created with Inkscape (http://www.inkscape.org/) -->

<svg
   xmlns:dc="http://purl.org/dc/elements/1.1/"
   xmlns:cc="http://creativecommons.org/ns#"
   xmlns:rdf="http://www.w3.org/1999/02/22-rdf-syntax-ns#"
   xmlns:svg="http://www.w3.org/2000/svg"
   xmlns="http://www.w3.org/2000/svg"
   xmlns:inkscape="http://www.inkscape.org/namespaces/inkscape"
   version="1.2"
   width="1091.9919"
   height="630.11902"
   viewBox="0 0 1091.992 630.119"
   id="svg2">
  <metadata
     id="metadata83">
    <rdf:RDF>
      <cc:Work
         rdf:about="">
        <dc:format>image/svg+xml</dc:format>
        <dc:type
           rdf:resource="http://purl.org/dc/dcmitype/StillImage" />
        <dc:title></dc:title>
      </cc:Work>
    </rdf:RDF>
  </metadata>
  <defs
     id="defs558">
    <inkscape:path-effect
       effect="bend_path"
       id="path-effect4176" />
    <inkscape:path-effect
       effect="bend_path"
       id="path-effect4111" />
    <clipPath
       id="clipPath1949">
      <g
         transform="matrix(0.434158,0,0,0.434158,-8.755651,18.32562)"
         id="use1947"
         style="fill:none;stroke:#000000">
        <polygon
           points="720.359,131.338 722.704,128.994 724.141,130.733 724.897,130.733 726.787,128.843 728.527,126.801 731.854,125.289 734.274,127.104 732.913,130.885 732.913,133.002 731.325,134.59 728.829,135.725 726.107,136.784 723.385,136.784 721.343,138.826 718.091,137.691 716.427,135.271 715.671,134.212 715.671,134.212 715.368,133.002 717.637,134.061 718.771,132.926 "
           id="polygon3065"
           style="fill:none;stroke:#000000" />
        <polygon
           points="699.335,138.901 694.949,140.262 695.252,142.985 696.387,144.12 698.05,145.783 699.185,146.917 697.521,148.279 695.252,146.313 694.042,147.522 692.378,145.858 688.597,146.615 686.933,145.708 686.177,147.674 687.387,148.883 685.118,150.094 685.118,152.967 686.934,154.782 686.479,156.9 688.143,156.9 690.261,159.018 689.655,161.438 692.378,162.799 696.008,162.95 697.521,164.462 700.243,164.462 703.419,163.555 703.419,161.135 701.453,159.32 702.512,158.261 704.1,159.849 706.898,154.783 709.545,152.136 710.68,153.27 713.1,150.85 713.855,148.581 711.133,147.674 709.318,149.489 707.05,147.825 704.327,146.161 701.604,144.195 702.512,142.229 703.949,140.792 705.083,144.648 706.822,146.388 709.771,146.917 711.587,146.161 713.1,146.161 714.611,144.649 713.855,141.472 711.436,141.472 712.041,138.75 712.041,136.784 710.074,137.389 710.074,137.389 705.234,137.389 703.646,138.977 701.15,140.716 "
           id="polygon3067"
           style="fill:none;stroke:#000000" />
        <polygon
           points="715.52,167.185 715.52,164.917 714.461,163.858 712.646,164.009 712.646,164.009 711.284,165.219 712.343,168.244 714.083,169.984 "
           id="polygon3069"
           style="fill:none;stroke:#000000" />
        <polygon
           points="718.695,174.899 719.604,175.807 720.965,172.933 724.443,172.176 727.469,170.966 731.552,168.546 729.435,164.614 726.561,164.614 722.477,163.252 720.586,164.992 718.847,166.731 718.847,166.731 717.107,168.471 718.091,170.815 719.755,172.479 "
           id="polygon3071"
           style="fill:none;stroke:#000000" />
        <polygon
           points="683.605,163.857 685.571,163.857 685.571,161.891 684.815,160.227 684.815,160.227 683.454,158.866 681.034,158.715 682.623,160.303 "
           id="polygon3073"
           style="fill:none;stroke:#000000" />
        <polygon
           points="609.491,225.567 611.457,224.66 613.727,222.391 613.727,218.761 610.853,218.761 609.188,219.064 609.188,219.064 606.391,221.862 606.391,223.752 608.734,223.752 "
           id="polygon3075"
           style="fill:none;stroke:#000000" />
        <polygon
           points="707.798,112.583 707.798,112.583 706.891,114.247 707.874,115.23 709.009,114.247 "
           id="polygon3077"
           style="fill:none;stroke:#000000" />
        <polygon
           points="699.328,181.251 700.235,180.041 699.328,178.68 699.328,178.68 696.454,178.075 695.547,178.831 697.211,179.587 "
           id="polygon3079"
           style="fill:none;stroke:#000000" />
        <polygon
           points="577.419,181.252 577.419,181.252 576.813,182.16 578.175,183.067 578.779,182.008 "
           id="polygon3081"
           style="fill:none;stroke:#000000" />
        <polygon
           points="574.696,170.362 574.242,168.396 572.578,168.849 570.915,167.791 570.915,167.791 569.402,168.698 571.52,169.757 573.032,170.815 "
           id="polygon3083"
           style="fill:none;stroke:#000000" />
        <polygon
           points="553.672,152.514 551.555,155.085 551.706,157.354 550.798,158.867 551.403,162.951 549.588,164.766 549.739,168.849 548.832,172.328 548.075,175.807 549.437,176.563 552.311,174.294 553.975,173.236 557.756,171.27 560.781,170.967 564.563,168.093 566.377,164.614 565.167,161.589 563.806,159.32 561.991,160.077 560.176,156.9 558.814,155.539 557.15,157.505 556.092,160.379 556.092,160.379 556.092,158.262 556.243,154.48 555.185,152.363 "
           id="polygon3085"
           style="fill:none;stroke:#000000" />
        <path
           d="M 542.479,144.195 541.118,145.859 539.908,148.128 538.849,147.674 539.605,144.8 539.605,141.775 536.278,142.834 C 536.278,142.834 534.312,143.288 533.858,143.439 533.404,143.59 531.135,144.347 531.135,144.347 L 530.076,146.616 529.471,148.582 528.11,150.246 528.564,152.212 525.993,154.178 527.203,155.237 529.017,154.632 530.53,156.749 530.681,158.715 532.042,160.379 535.521,160.681 535.975,162.647 538.395,161.135 539.605,163.101 542.932,164.311 546.109,162.798 547.622,160.68 546.412,158.26 544.445,155.537 545.958,154.478 546.563,151.907 545.806,149.033 546.109,146.159 542.479,144.195 z"
           id="path3087"
           style="fill:none;stroke:#000000" />
        <polygon
           points="539.908,192.293 539.757,190.479 539.757,190.479 538.244,192.293 536.278,192.747 538.093,194.108 "
           id="polygon3089"
           style="fill:none;stroke:#000000" />
        <polygon
           points="514.498,189.874 514.498,189.874 513.742,191.083 514.8,191.991 516.162,190.024 "
           id="polygon3091"
           style="fill:none;stroke:#000000" />
        <path
           d="M 498.919,231.316 497.104,232.224 C 497.104,232.224 497.86,234.493 497.86,234.19 497.86,233.887 499.221,233.585 499.221,233.585 L 498.919,231.316 z"
           id="path3093"
           style="fill:none;stroke:#000000" />
        <polygon
           points="485.912,217.704 485.912,217.704 484.248,219.064 485.155,220.88 486.667,220.577 "
           id="polygon3095"
           style="fill:none;stroke:#000000" />
        <polygon
           points="489.088,238.273 487.575,237.971 485.306,237.518 485.306,237.518 485.004,239.181 487.575,239.181 488.937,240.542 "
           id="polygon3097"
           style="fill:none;stroke:#000000" />
        <polygon
           points="478.803,149.035 476.534,147.825 476.534,147.825 475.626,148.733 476.685,149.338 478.349,150.548 "
           id="polygon3099"
           style="fill:none;stroke:#000000" />
        <polygon
           points="469.425,256.121 470.03,254.155 468.669,252.793 467.308,253.247 467.308,253.247 466.249,254.608 466.854,256.423 467.913,257.785 "
           id="polygon3101"
           style="fill:none;stroke:#000000" />
        <polygon
           points="459.14,261.566 461.258,261.566 463.224,259.751 461.409,257.936 459.594,258.39 459.594,258.39 457.93,260.054 456.115,261.566 457.779,262.776 "
           id="polygon3103"
           style="fill:none;stroke:#000000" />
        <polygon
           points="457.779,243.567 457.174,242.206 454.149,241.601 454.149,241.601 452.788,242.811 453.695,244.172 455.51,242.962 "
           id="polygon3105"
           style="fill:none;stroke:#000000" />
        <polygon
           points="447.191,247.651 447.191,247.651 446.435,249.617 447.645,250.676 449.006,249.012 "
           id="polygon3107"
           style="fill:none;stroke:#000000" />
        <polygon
           points="429.042,243.114 431.765,243.87 434.336,242.66 435.849,242.812 435.849,241.299 433.429,240.694 434.639,239.333 433.277,237.367 431.614,237.972 431.009,237.82 431.009,237.82 429.345,239.03 429.95,240.392 428.74,242.055 "
           id="polygon3109"
           style="fill:none;stroke:#000000" />
        <polygon
           points="361.886,269.583 363.55,270.036 364.155,273.212 367.332,273.515 368.39,270.944 366.877,268.373 367.029,265.499 365.365,261.717 365.365,261.717 362.945,262.927 361.13,263.532 361.584,267.465 "
           id="polygon3111"
           style="fill:none;stroke:#000000" />
        <polygon
           points="306.074,256.877 308.495,257.785 310.763,258.692 312.881,257.18 315.452,257.634 316.813,254.458 314.696,251.735 314.544,249.466 311.822,248.559 311.822,248.559 308.495,249.466 306.528,252.038 305.016,254.004 "
           id="polygon3113"
           style="fill:none;stroke:#000000" />
        <polygon
           points="213.811,250.676 213.811,250.676 213.206,251.583 214.265,252.945 215.626,251.583 "
           id="polygon3115"
           style="fill:none;stroke:#000000" />
        <polygon
           points="347.063,247.651 344.642,245.08 345.55,242.357 347.97,241.601 348.877,240.089 347.213,238.728 347.365,235.097 346.306,234.795 345.247,232.072 342.979,231.921 341.164,229.35 341.769,226.022 344.188,222.695 347.063,222.997 347.97,224.056 349.028,224.51 349.482,222.543 352.961,221.485 355.684,218.611 353.869,216.645 356.289,215.132 359.011,216.191 359.768,213.922 359.768,211.653 363.246,211.653 364.91,213.317 366.649,211.578 367.027,209.99 370.809,209.233 369.523,207.948 366.271,206.813 366.271,205.604 370.053,204.544 373.985,203.486 375.951,201.52 378.522,201.52 378.522,199.705 382.153,199.553 380.187,197.587 383.363,197.436 384.573,198.646 384.421,195.621 385.934,194.108 384.27,192.142 385.329,190.478 387.144,192.293 389.413,192.293 389.413,190.024 392.74,191.234 394.404,189.419 396.068,187.453 398.186,187.453 401.815,185.79 404.387,186.697 408.168,186.697 410.664,184.201 413.613,184.428 414.974,186.395 418.15,186.395 419.663,187.907 422.386,187.15 426.167,187.15 428.663,184.655 431.612,183.067 435.544,181.554 439.174,181.554 441.292,184.882 441.292,188.512 438.116,191.386 435.242,194.108 431.461,194.411 426.923,196.528 422.839,195.016 420.873,196.982 416.184,196.831 410.134,196.831 407.865,199.251 403.177,199.251 399.698,201.217 400.757,203.637 398.336,204.544 395.463,204.242 392.892,204.242 392.589,205.906 389.867,205.149 389.867,207.872 387.144,209.838 384.875,211.502 384.875,208.931 383.06,210.595 383.514,213.62 381.699,213.62 380.413,212.334 380.413,213.771 380.413,216.04 379.09,214.716 377.389,216.417 375.951,217.855 373.984,217.855 372.472,219.821 370.506,223.148 367.33,223.148 364.758,225.266 364.758,228.14 362.187,229.199 361.279,232.224 359.162,234.341 359.162,238.123 358.103,240.845 359.464,244.777 358.254,248.71 359.918,251.281 360.674,254.004 359.767,254.912 357.196,256.122 357.196,254.155 354.776,252.794 354.776,252.794 353.112,252.794 351.297,250.071 350.239,250.676 "
           id="polygon3117"
           style="fill:none;stroke:#000000" />
        <polygon
           points="490.125,129.995 491.125,128.995 489.25,128.245 489.25,128.245 488,128.495 487.188,129.307 488.438,130.557 "
           id="polygon3119"
           style="fill:none;stroke:#000000" />
        <polygon
           points="520.5,126.87 520.5,125.62 517.875,125.745 517.875,125.745 516.75,126.87 517.625,127.745 518.563,128.682 "
           id="polygon3121"
           style="fill:none;stroke:#000000" />
        <polygon
           points="523.875,132.995 525.25,134.37 523.438,136.182 522.25,138.495 523.875,140.745 524.5,142.995 527.375,145.495 530,142.995 531.75,142.995 534.375,141.495 537.5,140.495 536.625,137.495 536.625,133.745 538.5,132.12 536.938,130.557 533.75,127.37 532.625,124.87 529.875,124.12 529.875,124.12 529.5,126.62 527.25,127.62 523.875,129.87 "
           id="polygon3123"
           style="fill:none;stroke:#000000" />
        <polygon
           points="523.5,149.87 524.625,150.995 526.313,149.307 527.25,146.87 525.625,145.62 522.5,144.87 522.5,144.87 520.375,144.62 520.75,147.37 520.75,149.12 "
           id="polygon3125"
           style="fill:none;stroke:#000000" />
        <polygon
           points="489.125,208.87 489.125,208.87 488.313,209.682 489.375,210.62 491.125,210.12 "
           id="polygon3127"
           style="fill:none;stroke:#000000" />
        <polygon
           points="452.625,107.12 452.625,104.745 451.125,104.12 451.125,104.12 449.875,104.495 450.875,105.87 450.875,107.12 "
           id="polygon3129"
           style="fill:none;stroke:#000000" />
        <polygon
           points="446.125,118.62 445.375,120.37 446.75,120.745 449.5,120.745 451.688,118.557 453.313,116.932 452.75,114.495 450.75,114.745 450.75,114.745 449.875,116.12 446.625,116.745 444.5,117.87 "
           id="polygon3131"
           style="fill:none;stroke:#000000" />
        <polygon
           points="443.375,111.62 442,111.62 440.375,112.495 440.375,112.495 439.688,113.182 441,114.495 443.375,113.62 "
           id="polygon3133"
           style="fill:none;stroke:#000000" />
        <polygon
           points="434.375,120.245 436.5,120.62 437,122.12 439.625,121.495 441.313,119.807 442.563,118.557 443.25,116.495 441.375,116.495 438.563,116.432 438.563,116.432 436.75,114.37 435.375,115.745 434.375,117.745 "
           id="polygon3135"
           style="fill:none;stroke:#000000" />
        <polygon
           points="432.625,125.495 431.125,125.12 431.125,125.12 430.313,125.932 430.313,127.495 432,127.495 "
           id="polygon3137"
           style="fill:none;stroke:#000000" />
        <polygon
           points="422.5,121.245 423.375,122.12 426.375,121.495 427.5,122.62 430.125,121.995 430.875,120.245 432.75,120.87 431.75,118.62 430.063,116.932 427.625,118.745 427.625,118.745 426.75,117.87 424,117.87 424,119.745 "
           id="polygon3139"
           style="fill:none;stroke:#000000" />
        <polygon
           points="441.5,97.87 441.5,97.87 440.75,99.37 442.063,100.682 443.313,99.432 "
           id="polygon3141"
           style="fill:none;stroke:#000000" />
        <polygon
           points="438.875,107.495 440.75,106.62 439.625,104.245 438.75,101.37 438.75,101.37 436.75,101.37 436.75,103.62 438.875,105.745 "
           id="polygon3143"
           style="fill:none;stroke:#000000" />
        <polygon
           points="426.25,107.87 426.25,107.87 424.5,107.87 424.125,108.245 425.563,109.682 "
           id="polygon3145"
           style="fill:none;stroke:#000000" />
        <polygon
           points="427.75,110.745 427.75,110.745 426.563,111.932 427.75,113.245 429.125,113.12 "
           id="polygon3147"
           style="fill:none;stroke:#000000" />
        <polygon
           points="428.875,105.245 428.875,105.245 428.875,106.87 430.625,106.87 430.25,104.995 "
           id="polygon3149"
           style="fill:none;stroke:#000000" />
        <polygon
           points="431.313,109.307 431.313,109.307 431.313,110.745 432.75,110.745 431.625,109.62 "
           id="polygon3151"
           style="fill:none;stroke:#000000" />
        <polygon
           points="432.75,112.62 433.375,113.245 434.5,112.12 432.75,112.62 "
           id="polygon3153"
           style="fill:none;stroke:#000000" />
        <polygon
           points="434.5,105.995 434.5,105.995 434.5,107.745 436,107.87 436,105.995 "
           id="polygon3155"
           style="fill:none;stroke:#000000" />
        <polygon
           points="432.25,102.495 432.25,102.495 433.125,104.12 433.938,103.307 433.125,102.495 "
           id="polygon3157"
           style="fill:none;stroke:#000000" />
        <polygon
           points="418.625,112.62 417.375,110.995 416.125,112.995 416.125,112.995 415.188,113.932 416.813,115.557 418.625,115.62 "
           id="polygon3159"
           style="fill:none;stroke:#000000" />
        <polygon
           points="420.25,110.995 420.25,110.995 420.875,112.745 422.125,112.745 422.125,111.245 "
           id="polygon3161"
           style="fill:none;stroke:#000000" />
        <polygon
           points="408,103.245 405.875,104.37 405.875,105.87 403.25,103.995 401.25,104.745 401.875,107.745 403.75,107.12 403.75,109.12 405.75,109.62 407.563,107.807 410.125,106.745 412.25,107.37 415.375,107.37 417.625,105.12 415.5,102.995 416.938,101.557 414.5,100.12 413.25,100.995 413.25,100.995 412,102.245 412,103.62 410.563,105.057 "
           id="polygon3163"
           style="fill:none;stroke:#000000" />
        <polygon
           points="402.063,99.932 402.625,101.62 405.875,100.495 407,101.62 409.125,100.745 410,101.62 410,99.745 408.563,98.307 407.25,98.307 406.125,97.87 406.125,97.87 403.375,97.87 401.75,96.245 400.625,98.495 "
           id="polygon3165"
           style="fill:none;stroke:#000000" />
        <polygon
           points="408.563,111.057 408.563,111.057 407.5,111.057 407.875,112.62 410.125,112.745 "
           id="polygon3167"
           style="fill:none;stroke:#000000" />
        <polygon
           points="409.5,115.495 409,114.37 409,114.37 407.875,115.495 408.75,116.37 410.875,116.87 "
           id="polygon3169"
           style="fill:none;stroke:#000000" />
        <polygon
           points="418.125,98.245 418.125,98.245 418.125,99.87 419.375,99.87 420.625,98.62 "
           id="polygon3171"
           style="fill:none;stroke:#000000" />
        <path
           d="M 857.333,70.12 858.666,65.287 863.75,60.37 869.416,54.703 872,52.12 877,49.953 880.582,47.87 883.916,44.537 887.333,41.12 891.5,39.453 894.5,35.12 900.166,33.453 903.166,30.286 906.833,28.619 909.166,27.286 911.833,29.953 915.666,28.786 919.083,31.369 921.333,29.119 925.333,26.952 925.333,24.952 921.333,25.785 916.666,25.452 913.666,24.619 914.666,21.619 917.833,19.452 915.166,18.785 915.166,17.285 917,17.453 917.333,14.453 919,12.12 921.333,9.787 925.333,8.287 926.5,8.287 929.5,4.12 C 929.5,4.12 932.333,3.287 933.333,2.287 934.333,1.287 933.333,5.12 933.333,5.12 L 935.5,6.953 937.166,8.62 935.333,12.453 C 935.333,12.453 937.833,12.453 938.833,11.453 939.833,10.453 938.833,13.453 938.833,13.453 L 938.833,16.953 935,19.453 938,19.953 939.833,18.12 943.75,19.62 943.75,17.87 946.833,20.953 949,24.287 950.833,23.787 952.666,21.454 952.666,23.621 953.833,26.288 950.333,26.288 950.333,27.621 953.166,28.454 951.666,32.787 947.833,33.12 944.333,36.953 942.5,40.953 939,42.12 936.5,41.12 933.333,41.12 930.5,45.287 931.75,47.787 931.75,52.037 929,54.787 926.833,53.12 924.666,54.787 921.5,54.787 919.666,53.287 918,52.287 917.75,53.87 919,55.12 917.5,55.787 916.5,56.787 919.416,57.287 919.416,59.537 921.666,61.787 925.333,60.787 927.833,60.787 927.999,63.954 929.499,62.454 932.083,65.038 934.833,67.788 936.166,72.621 936.833,76.454 934.166,80.787 931.666,80.787 928.166,82.287 927,84.953 929.833,83.786 931.666,83.786 929,86.954 930.666,88.62 932.833,87.787 932.833,84.62 934.833,83.12 938.416,83.037 940.5,80.954 941.5,79.287 944,79.454 946,79.121 949.666,78.954 949.666,81.287 952.666,81.287 953.5,79.704 956.416,79.704 958.166,77.954 960.333,77.621 962.166,79.121 964.833,77.121 966.083,80.038 968.5,82.455 968.5,85.955 965.166,87.288 963,91.953 959.5,91.953 958.5,93.453 962.416,96.036 961.166,97.286 964,101.62 965.166,106.953 965.166,112.953 966.166,117.62 967.833,121.62 968.667,126.953 970.333,132.12 973.5,134.953 973.5,139.786 975.167,146.453 978,149.62 979.833,151.453 977,153.953 974,152.453 969.833,153.786 967.667,158.786 964.167,163.786 966,165.62 964.667,170.287 964.667,172.787 967.5,177.12 967.5,179.787 964.333,178.287 962,175.953 960,176.12 961.833,180.953 961.833,184.12 964.916,185.537 961.833,188.62 959.833,188.62 959.833,192.953 958,194.786 960.5,198.953 962.5,200.953 964.833,203.286 968,206.453 968.666,211.12 969.166,214.787 973.75,217.203 976.5,219.953 981.166,219.953 979.916,217.12 979.916,215.703 981.5,214.12 982.667,211.62 987,215.953 987.833,219.786 992.166,222.786 996.458,223.744 998.166,222.036 1000.916,222.036 1004.166,225.286 1002.833,228.453 999.5,229.453 1000.5,233.453 1004,239.286 1007.083,240.036 1009.5,242.453 1015.166,241.786 1018.5,244.453 1019.666,247.453 1017.666,248.786 1014.833,250.619 1013.166,254.286 1014.333,260.953 1017.666,266.12 1020.583,267.203 1022,268.62 1026.833,269.787 1026.833,271.787 1023.166,272.287 1023.166,275.287 1021.833,278.287 1023.5,284.287 1026.332,285.454 1030.666,289.787 1033.833,292.787 1034.5,298.12 1036.166,305.12 1037,309.62 1037,312.953 1035.166,310.453 1030.333,310.453 1027.25,308.87 1024.833,306.453 1021.5,306.453 1018.5,303.453 1012.666,300.786 1007.166,298.453 1000.833,295.12 999,292.62 996,290.62 992.666,289.953 985.5,287.786 980.833,285.286 976.333,282.286 974.166,278.286 969.333,273.453 966,269.953 965.999,266.453 963.666,264.12 963.166,260.287 960.333,256.287 957.249,255.62 957.249,254.203 958.666,252.786 959.833,250.286 958.25,247.536 959.75,246.036 961,244.786 959.333,239.786 958.5,234.453 956.5,228.286 953.333,224.119 952,218.619 950.5,213.452 948.833,209.285 946.833,203.118 944.833,201.451 944.666,198.118 945.833,194.118 945.833,191.785 945.833,188.952 943.833,186.952 941.666,182.785 939.5,182.785 937.416,182.035 935.5,180.118 933.166,177.118 929.666,174.951 929.666,171.118 932.833,168.119 931.749,167.035 929.166,169.618 925.5,171.618 925.5,175.118 924.5,177.785 926.499,179.618 929.416,182.535 932.166,185.285 935.5,185.285 935.166,187.452 933.666,187.285 932.083,189.535 934.166,191.618 934.166,196.951 935.833,200.951 936.166,207.284 935,211.12 933.666,207.787 930.666,206.287 930.667,210.454 928.167,207.954 926.5,206.287 925.166,203.454 920.5,199.121 921.833,202.788 920.5,206.788 916,206.788 916,209.455 914.5,214.955 912.666,217.122 912.833,224.455 915.833,226.455 915.333,231.122 918.333,235.789 918.333,240.789 919.25,247.372 922,250.122 922,253.122 924.333,255.455 926.5,255.122 928.416,253.372 929.833,251.955 932.333,251.955 932.166,255.122 929.5,255.955 929.5,260.455 924.5,261.288 925.666,267.121 925.166,269.621 922,270.953 922,274.453 920.833,277.62 C 920.833,277.62 916.916,278.537 917.666,277.787 918.416,277.037 916.166,276.287 916.166,276.287 L 916.166,274.12 916.833,271.953 919.583,271.036 918.333,269.786 915.333,270.953 912.166,271.453 912.166,272.953 907.5,275.12 905.166,277.953 902.5,278.62 900.333,280.787 899.5,283.287 900.332,286.454 902.166,288.287 900,290.62 896.5,289.287 897.583,292.87 895,295.453 892.666,297.62 890.666,297.62 888.666,299.453 890,301.62 891,302.62 888.166,304.453 884.333,304.453 880.583,308.203 878.166,310.62 875.499,315.12 872.666,317.953 869.833,323.62 869.333,329.12 872,334.453 869.5,336.953 868.667,342.286 870.166,346.119 872.5,348.452 870.5,351.785 870.5,356.285 870.5,362.285 869.5,366.452 869.5,372.119 871.167,373.952 871.167,377.952 871.167,382.452 869.667,388.119 869.667,392.786 867.167,396.953 867.167,401.119 865.833,404.786 867.333,408.161 869.875,408.161 871.833,406.203 874.582,406.203 876.75,404.035 879.166,401.619 880.833,403.286 882.833,404.286 882.833,406.453 884.417,409.369 886.417,411.369 888.167,409.619 888.167,406.953 885.833,405.953 885.833,403.453 887.667,401.453 887.667,403.119 889.667,404.619 890.667,404.286 891.667,405.286 891.667,408.286 891.667,410.453 895,409.12 895,407.454 896.833,404.954 898,403.954 899.833,405.287 900.25,402.537 898.667,400.954 897.167,398.12 895.333,394.787 898.333,393.121 900.167,391.287 903.833,390.454 908.167,390.454 911.75,390.871 913.333,392.454 C 913.333,392.454 917.167,391.787 918,391.787 918.833,391.787 921.166,390.786 921.166,390.786 L 923.25,392.87 921.666,394.454 920.5,395.62 919.5,397.454 922.333,397.454 925.333,397.454 926,399.62 928.5,402.12 931.584,401.704 933.167,403.287 934.833,406.454 935.333,412.787 937.5,419.454 940.916,424.37 945.166,428.62 946.833,430.288 947.666,433.12 951,436.454 953.333,440.454 954.167,442.788 957.25,447.538 959.833,450.12 959.833,457.12 958.833,463.12 960.667,469.12 960.5,475.286 962.333,480.12 963.666,485.454 964.666,490.286 965.666,496.786 965.666,503.12 964.666,506.454 964.666,512.954 964.666,520.954 963.666,526.954 964.666,533.12 964.333,541.12 964.333,544.954 961,550.454 958.833,555.12 956.333,559.788 954.166,559.788 950,561.453 946.5,563.453 944.083,562.453 944.083,560.203 942.833,558.953 941.582,561.787 941.582,564.869 940.166,563.453 938,561.287 938,562.953 937.333,567.119 938,569.953 937.083,573.203 935.666,574.619 935.666,576.287 935.666,578.953 932.5,578.787 931.166,577.453 932.333,573.619 934.333,569.619 934.333,566.287 932.583,562.369 929,558.787 927.166,556.953 925.666,553.119 922.5,549.953 919.5,548.953 919.416,545.703 921.5,543.619 923.333,541.787 923.333,538.453 925.666,536.119 928.333,534.787 931.084,535.703 933.5,533.287 935,530.287 932.333,526.119 933.666,522.619 932,518.953 931.666,515.119 929.333,511.953 930,509.287 928.166,506.119 927.333,502.453 924,498.953 926.5,496.453 926.5,492.785 924.417,490.703 922,488.285 921.333,486.119 918.5,486.119 914.5,488.285 913.5,491.619 910.833,495.953 907.833,499.785 909.167,503.953 905.667,506.785 902.167,508.785 899.167,509.785 898.333,512.785 895.167,512.785 892,510.953 889.667,510.119 889.667,506.285 887,503.953 884.833,501.785 881.25,500.869 879.333,502.785 875.5,501.785 872.333,500.953 867.5,501.619 863,501.619 861.167,503.453 856.167,505.285 851.167,504.285 849.084,500.203 846.667,497.785 C 846.667,497.785 843.834,496.119 843.834,495.451 843.834,494.783 840.667,492.285 840.667,492.285 L 836.667,491.619 835,487.619 831.166,484.619 828.5,481.953 824.833,480.953 823.5,477.453 820.166,475.953 818.166,473.953 811.5,473.285 808,473.285 804,475.453 799,474.619 795.166,475.953 791,475.953 785.332,480.119 782.666,482.785 777.416,485.869 774.833,488.453 773,493.953 771.666,497.285 773.5,499.619 776.083,497.535 778.166,499.619 780.5,501.953 781.833,507.285 780.5,510.119 779.5,517.285 779.5,521.785 777.666,526.453 780.166,531.285 781.666,532.785 781.666,537.453 778.166,538.453 775.916,543.703 772.666,546.953 767.166,548.953 761,548.453 756.5,547.619 753.167,549.619 748.5,552.285 745,550.453 741.833,549.285 737.667,551.119 734.167,554.619 731.667,557.119 730.25,562.035 727.333,564.953 723.5,567.619 718.167,570.119 714.083,574.203 712,576.285 706.667,576.285 701.833,577.785 695,577.785 690,578.453 685.5,576.953 684.166,574.453 681.833,572.119 675.5,572.119 669.667,571.285 667.333,569.785 659.667,570.869 654.916,570.869 651,574.785 646.667,575.785 642.5,576.953 636.5,576.453 632.418,574.703 629.834,572.119 627.418,567.035 624.334,563.953 620,562.287 615.834,562.287 611.084,563.535 607.834,560.287 601.334,560.287 597.5,557.453 595.583,559.369 593,561.953 590.917,566.203 588.667,568.453 588,572.787 590.084,575.287 590.084,579.035 593,581.953 593,585.953 589.084,588.537 585.334,592.287 582.167,592.287 577.334,592.287 572.834,591.119 568.167,591.953 564.834,590.953 560,589.285 557.334,586.619 554.167,583.453 550.334,582.287 545.834,584.119 543,581.285 539.417,579.703 536.5,582.619 532.834,582.619 531.667,586.119 527.334,586.119 521.834,589.619 518.5,592.953 515.167,592.953 514.5,596.453 510.584,597.369 507.834,600.119 502.834,599.953 498.667,602.285 496.5,604.453 491.667,603.619 490.167,601.119 488.334,597.785 487.417,594.369 484.834,596.953 480.501,598.619 476.501,597.285 472.001,596.119 472.001,592.119 468.501,589.953 467.168,586.953 464.335,585.119 463.668,581.119 461.335,578.953 458.21,577.578 456.168,575.537 451.918,575.537 449.835,577.619 445.668,578.287 444,576.619 440.334,577.285 438.334,575.285 436.501,573.453 436.501,570.953 434.668,568.787 432,569.619 430.167,573.453 426.5,574.119 424.333,569.787 423.166,565.953 422.333,561.619 419.5,556.619 419.5,552.619 416.833,550.119 416.833,544.619 414.833,537.953 412,535.119 410.167,533.287 408.25,529.203 406.167,527.119 403.334,525.953 403.334,522.953 405.667,522.953 407.667,520.287 406.834,517.953 403.834,517.953 401.334,520.453 397.834,520.619 395.251,520.703 392.501,523.453 387.834,524.787 383.834,526.953 382,524.287 378.5,525.953 375.667,525.953 376.667,521.453 380.667,519.619 380.667,517.287 377.334,517.287 374.334,515.453 372.501,517.287 369.168,516.287 370.251,512.369 367.834,509.953 364.501,511.953 360.834,510.953 359.917,508.037 362.001,505.953 362.001,502.787 362.834,500.453 361.501,496.287 359.001,495.119 356.001,495.119 354.501,492.119 350.334,492.119 347.001,490.119 343.334,489.785 341.334,492.619 337.167,492.619 333.5,493.619 330.5,491.953 326.833,492.619 322.333,492.619 318,490.369 316.25,490.369 314.333,492.285 311,492.953 307.833,491.285 305,491.285 301.167,490.119 295.5,490.285 291.333,489.453 288.333,490.285 285.666,487.953 281.833,485.953 278.333,485.953 277.166,489.619 278.333,492.119 276,494.453 277.833,495.619 279.666,497.453 281.916,499.703 279.833,501.785 277.5,501.785 274.667,498.953 270.334,499.119 267.501,500.285 268.668,504.453 267.501,507.453 264.668,508.285 261.335,507.453 260.002,510.953 261.085,513.369 263.418,515.703 265.001,517.285 265.668,520.119 268.001,522.453 265.668,525.619 263.501,527.785 259.834,527.785 256.084,528.035 254.167,526.119 252.834,523.41 251.126,523.41 249.334,525.203 246.417,525.203 243.167,521.953 242.542,520.078 240.084,517.619 240.084,513.369 238,511.285 234.167,511.285 231,512.453 229.833,509.953 226.666,507.453 223.833,505.953 220,507.787 216.5,508.287 213.667,507.453 211.667,503.619 208.834,501.119 206.834,504.453 204.667,504.453 204.667,501.787 206.667,499.787 205.334,496.953 203.667,492.619 203,488.119 200.5,485.119 196.5,483.619 195.334,480.787 193.167,478.619 189.167,479.287 186.834,479.287 186.834,476.119 185.667,472.787 181.584,472.035 179.501,474.119 175.668,475.453 172.335,473.619 168.835,473.619 167.168,476.119 163.668,476.119 159.835,476.119 159,477.953 156.833,480.119 156.5,483.285 152.417,482.537 150,480.119 150,476.785 151.084,473.535 149.334,471.785 146.5,471.785 145.333,474.453 143.166,476.035 139.916,476.035 137.333,478.619 135.166,480.785 135.166,483.785 132.333,484.953 129.333,484.785 127.166,486.953 124.499,488.785 125.582,492.035 127.999,494.453 126.999,498.785 124.832,500.953 126.999,502.285 130.166,505.285 132.166,507.285 131.333,511.619 132.25,517.285 132.25,521.869 130.5,523.619 128.833,521.785 126.333,521.453 126.666,524.453 128.083,527.369 130.166,529.453 128.499,531.119 125.666,531.453 123.333,531.453 121.5,531.453 120,531.453 C 120,531.453 118,531.703 116.417,531.703 114.834,531.703 115.167,530.453 115.167,530.453 L 112.667,529.785 111.501,528.619 108.501,528.119 108.501,530.453 106.168,531.453 103.335,534.785 100.168,534.785 96.668,535.785 94.626,535.244 92.918,536.953 92.918,539.703 94.668,541.453 95.668,544.619 94.835,547.785 94.085,550.703 92.168,552.619 92.168,553.785 90.501,555.285 86.834,561.285 86.834,565.953 87.834,571.619 87.167,575.953 87.5,581.285 83.5,583.119 80.833,581.953 77,583.285 73.333,582.453 72.833,579.285 71,573.785 70.667,569.785 68,567.953 68,565.785 66.667,562.285 64.334,559.285 65.834,556.785 66.834,553.953 64.334,551.285 63.501,548.285 60.668,547.953 60.085,546.203 58,544.119 54.333,543.619 52,541.285 51.333,535.953 49,533.785 49.667,530.453 46.834,528.119 45.334,524.287 42.834,523.119 39.167,520.619 38,516.619 35.5,512.787 34.667,509.453 32.834,509.119 31.501,507.453 29.834,505.119 27.667,505.453 26.334,501.453 26.834,493.787 26.167,488.119 24.834,485.287 23.167,482.787 23.5,477.787 21.5,475.953 20.167,473.287 21.167,470.287 20.334,466.953 22.167,465.119 24.167,464.787 26.834,468.119 29.334,468.953 30.501,466.453 33.334,465.287 37.167,465.119 39.167,465.119 41.667,465.953 42.167,461.787 40.834,459.287 41.501,457.119 43.501,457.453 45.334,458.787 47.334,460.619 48.834,459.119 51.167,460.119 55,460.619 57.833,461.787 58.5,458.787 56.5,457.287 53.667,456.619 51.834,454.787 49.834,454.119 52.334,451.453 56,449.787 59.167,451.119 62,449.953 64.667,452.787 68.667,457.119 72.334,453.453 74.834,451.953 74.167,448.285 76.5,445.953 78.833,446.287 78.666,443.619 84.833,442.787 86,439.953 87.333,438.287 84.5,436.953 84.5,433.453 81.833,430.453 80.833,426.619 78.333,425.119 75.666,422.119 76.666,418.619 75.666,413.452 72.5,411.12 68.833,408.287 67.666,404.453 65.166,402.453 64.333,400.12 66.5,397.62 68.167,393.953 68.167,390.453 66.334,387.12 64.501,384.287 66.168,382.954 67.168,380.454 69.168,380.454 70.668,379.121 71.835,374.621 72.168,371.954 70.834,368.621 69,366.787 66.5,366.454 64.667,364.454 63.167,362.287 60.917,364.203 59.167,362.453 57.667,359.953 59.167,357.286 62.334,354.119 64.501,351.619 65.334,348.619 67.834,348.452 69.667,350.452 70.667,352.952 74,354.12 77.167,353.12 78,349.787 79,346.12 76.5,343.62 78.167,342.453 78,339.62 79,335.62 80.833,331.287 82.166,327.62 85.499,326.62 86.666,324.12 89.833,321.453 89.833,315.786 87,313.12 83.833,312.287 84.833,309.787 85.666,307.12 83.333,304.787 81.833,301.454 82.333,299.121 85.5,295.954 87.333,292.621 86.5,289.621 89.167,288.954 93.167,286.454 93.167,282.954 94.834,280.954 99,280.787 100.833,278.62 101,276.12 104.5,274.787 107.333,270.954 111.166,271.121 114.499,269.121 118.999,270.121 119.666,267.621 121.166,266.121 123.999,267.454 126.332,269.954 130,271.12 131.333,274.12 132.666,277.453 134.666,275.453 134.333,270.62 131.333,267.953 131.333,262.286 134,261.62 134.833,260.787 131.166,259.287 128.999,256.787 166.332,256.62 173.332,254.12 173.332,249.787 174.499,238.787 179.166,238.787 183.166,235.62 183.166,231.287 186.166,230.12 186.166,224.453 188.833,224.286 194.666,219.619 197.499,220.952 203.666,209.452 204.083,206.369 209.166,201.286 217.666,201.286 220.333,196.619 220.333,187.619 225.666,184.952 232.666,181.452 237.499,183.285 240.333,183.285 242.666,185.618 245.528,183.624 244.832,187.118 247.665,186.785 251.665,186.952 251.665,189.619 252.498,192.619 250.665,191.452 248.748,189.535 246.998,191.285 247.831,194.452 247.831,197.619 250.664,199.119 252.831,201.286 252.831,204.786 255.248,205.953 255.248,209.87 257.998,212.62 259.331,217.287 259.331,222.12 258.498,226.287 259.498,228.62 259.581,233.703 262.498,236.62 262.331,240.287 261.664,246.287 258.747,251.37 254.33,255.787 249.663,255.787 244.496,256.787 239.996,255.12 235.079,252.37 232,249.286 232,244.786 228.833,241.619 227.333,238.119 226.166,234.786 224,231.12 222.833,224.953 220.5,223.953 221.25,220.203 223.167,218.286 220.834,215.953 219.751,218.87 218.168,220.453 218.835,224.12 218.918,228.37 217.085,230.203 219.502,232.62 218.835,236.287 216.502,241.454 212.419,242.704 209.169,245.954 207.919,251.871 204.836,254.954 205.836,258.454 207.336,262.787 204.919,267.037 208.336,270.454 212,274.12 216.167,271.12 217,266.954 214.833,264.787 215.166,261.12 215.166,258.287 217.999,255.287 220.832,255.287 221.832,262.787 222.749,267.704 225.666,270.621 227.499,274.454 232.249,275.871 233.666,274.454 232.499,271.621 235.332,269.288 235.499,263.455 240.666,264.288 245.499,262.455 249.499,264.622 253.999,263.205 257.082,263.205 259,265.12 261.833,269.453 259.5,271.786 259.5,275.453 261.583,272.87 264.5,269.953 268.5,269.12 271.833,264.287 271.833,260.12 273.166,257.287 277.499,255.12 277.499,252.453 281.666,249.953 281.666,245.786 280.999,241.786 283.832,241.786 284.749,243.869 288.499,247.619 291.332,251.952 291.332,257.785 290.332,260.785 288.832,262.285 286.332,259.785 282.832,258.952 277.499,260.785 277.499,265.118 278.832,269.118 278.832,272.451 282.665,273.451 286.332,275.118 290.499,273.118 290.499,270.118 294.832,269.118 298.999,271.118 298.332,268.451 304.832,269.618 308.332,268.951 314.665,269.784 318.332,269.784 320.165,273.117 321.832,273.117 321.832,270.117 327.165,268.45 330,268.45 331.167,272.783 328,272.783 327,275.783 324.5,276.616 328.333,280.116 331,280.116 336,277.949 340.75,278.866 345.917,284.033 347.667,282.283 351.167,282.283 355.584,280.866 357.334,282.616 356.834,284.949 354.167,286.782 354.167,289.615 357.334,292.282 357.584,289.199 359.001,287.782 362.334,288.615 362.334,285.948 365.501,285.448 366.168,281.448 365.668,276.615 368.668,275.115 371.251,274.365 374.334,277.448 375.667,276.115 379.084,280.365 383.001,284.282 386.168,287.449 388.251,291.699 392.168,295.616 394.835,299.783 397.668,303.616 397.668,306.949 400,310.62 403.333,308.62 403.333,305.12 407.166,301.62 404.499,300.787 402.666,296.454 403.333,291.787 400.166,289.62 398.416,286.037 399.999,284.454 403.332,282.787 403.332,280.12 404.165,276.12 405.665,274.12 405.665,271.62 403.498,270.953 404.665,267.62 406.498,265.287 409.831,264.12 413.414,262.37 414.664,261.12 417.497,258.287 419.664,253.454 421.331,249.454 423.164,245.454 426.331,243.787 428.331,246.62 432.331,246.62 434.331,248.62 437.831,248.62 439.331,254.287 437.664,255.954 436.914,262.037 432.164,266.787 430.831,271.12 433.664,273.62 432.664,279.287 431.831,283.787 428.498,288.787 427.331,295.954 425.498,302.287 424.165,305.454 425.415,309.871 428.332,312.788 427.832,315.455 424.165,318.288 423.498,324.455 419.831,325.455 415.498,329.788 412.998,333.455 410.665,334.788 406.498,333.955 403.998,335.622 401.248,333.872 399.498,332.122 396.998,331.289 396.998,334.456 399.498,338.289 401.998,339.456 405.331,341.789 408.164,341.622 410.164,344.455 413.164,344.455 C 413.164,344.455 414.414,342.205 413.747,341.538 413.08,340.871 415.497,339.788 415.497,339.788 L 417.664,339.788 418.664,338.788 422.831,337.621 426.164,335.788 426.164,332.288 427.664,330.788 430.247,328.205 432.33,326.122 433.33,322.122 432.497,318.622 432.164,315.455 434.414,313.205 436.664,310.955 440.164,310.955 443.997,310.455 445.08,313.705 446.663,315.288 448.663,320.455 446,323.12 446.167,327.12 446.167,329.62 449.5,332.953 453.333,333.786 453.333,331.453 449.583,330.37 448.166,328.953 448.166,326.953 447.833,323.953 450.5,323.12 451.5,320.953 450.5,317.786 451.667,315.119 450,311.786 447.833,309.786 446.5,308.453 442.417,307.036 440.084,304.703 438.167,306.62 435.667,307.787 434.334,305.954 431.334,305.954 430.834,302.787 432.834,300.787 432.334,295.454 434.667,291.787 436.167,287.454 439.5,284.121 438.333,280.454 437.333,277.287 437.75,273.871 435.333,271.454 438,268.787 442.167,264.62 445.667,264.62 447.667,261.453 449,257.953 447.833,255.12 449,252.62 451.667,252.62 450.834,256.12 450.834,260.953 450.167,265.286 447.167,268.286 447.167,272.453 447.167,275.453 450.667,278.12 452.667,279.787 455.25,278.204 457.833,280.787 460.666,283.454 460.666,281.454 459.583,278.871 457.666,276.954 454.666,275.454 454.666,274.121 452.166,271.621 451,267.953 454.5,265.62 456.167,267.287 458.834,269.954 460.834,268.121 460.167,265.954 459.917,264.037 461.834,262.12 465.167,262.787 467.917,262.37 470.167,264.62 474.5,266.953 473.333,270.286 474.416,271.369 477.333,274.286 481.833,274.286 482.5,271.619 480.667,269.119 480.834,266.786 477.667,265.619 475.334,261.786 474,260.453 475,256.453 476.5,253.12 475.167,251.787 474.334,247.62 477.667,244.62 485.5,244.62 489.5,246.12 489.5,245.12 496,245.12 500.333,243.287 503.499,243.287 505.166,241.62 503.499,239.12 501.499,238.453 499.832,236.786 C 499.832,236.786 500.499,236.119 501.749,234.869 502.999,233.619 502.999,236.119 502.999,236.119 L 504.999,235.619 503.666,234.119 504.583,232.036 503.166,230.619 504.833,228.286 507.166,226.453 504.833,226.286 504.666,223.786 509.333,223.953 511.166,220.12 515.749,218.37 517.499,216.62 523.749,215.703 525.332,214.12 529.832,212.787 530.832,211.62 527.832,210.62 529.499,208.953 533.832,207.953 537.499,207.453 538.332,205.62 541.332,205.12 539.749,208.12 539.749,210.537 541.832,208.454 547,208.62 547.5,205.953 550.833,205.286 554.166,205.953 552.666,203.953 550.666,202.453 549.666,200.62 553.333,200.62 557.166,199.453 558.333,199.453 558,196.62 556.666,195.62 556.666,191.62 557.5,188.953 560,182.786 563,180.619 565.666,177.786 569,179.786 571.5,179.453 572.25,182.87 569.666,185.453 567.5,188.286 572.791,188.578 573.833,187.536 577.083,187.536 579.5,189.953 577.333,192.12 C 577.333,192.12 577.166,194.287 578.166,194.287 579.166,194.287 581.833,195.454 581.833,195.454 L 582.666,192.621 581.166,191.121 584.833,189.121 588.166,189.121 591.583,186.704 593.5,188.621 596.083,187.371 598,189.288 599.666,192.621 601.666,194.288 602.833,192.955 604.583,194.705 606.833,196.955 606.5,200.455 603.166,199.788 604.5,201.121 607.833,202.954 609.916,206.537 608,208.453 608,211.786 606.333,214.119 604.75,217.369 602.833,219.286 599.5,223.286 599.5,224.953 598.5,229.62 596,232.12 595,237.287 591,238.287 589.75,242.037 587,244.787 586.333,249.12 585.5,252.12 588.5,250.787 587.833,247.454 590.833,245.621 C 590.833,245.621 593.5,244.788 595,244.788 596.5,244.788 597,241.788 597,241.788 L 599.833,239.455 602.5,238.455 604.083,235.372 602.833,234.122 600.833,233.955 601,232.62 600.833,229.953 603.333,229.786 605.333,229.786 608.166,230.453 611.5,231.786 612.166,229.786 614.25,226.869 616,228.619 616,231.952 618,234.785 620.333,234.785 618,232.62 619.583,231.037 622.666,227.954 626.833,225.787 633.166,224.62 638.166,223.12 639.417,225.037 638.25,226.204 641,228.954 646.166,228.954 646.333,227.621 646.833,225.788 648.833,228.955 652.333,227.622 655.833,224.622 C 655.833,224.622 659.5,223.955 660.333,223.955 661.166,223.955 660.333,220.955 660.333,220.955 L 659.833,217.622 657.333,213.789 658,209.956 658.5,207.956 660.5,209.956 662.583,208.373 664.333,210.123 667,211.956 667.666,209.956 669,209.62 670.333,211.12 671.666,210.12 C 671.666,210.12 671.5,207.037 672.75,207.037 674,207.037 674.333,205.454 674.333,205.454 L 678,208.287 679.166,207.12 683.166,208.453 681.833,212.536 683.749,212.536 685.666,214.453 685.666,217.62 688.833,215.62 690.5,217.287 690.5,220.954 688.333,221.621 687,222.953 689.333,225.286 C 689.333,225.286 691.166,224.453 691.166,223.619 691.166,222.785 692.666,225.119 692.666,225.119 L 692.666,227.786 696.083,227.702 699.333,230.952 701.833,232.619 705.333,233.286 706.833,231.786 710.666,233.786 711,230.62 709.333,225.12 708.333,222.62 708.333,220.287 706.166,218.12 706.166,215.12 710.333,215.62 712.666,217.953 716.333,216.953 720.5,216.953 719.666,212.62 722,208.287 726.333,207.287 729.5,207.12 733.166,208.12 733.166,205.62 729.25,203.87 730.666,202.453 732.5,200.453 735.666,200.62 738.166,198.12 737,197.453 734.5,194.953 731.666,193.453 731.666,189.786 730.5,188.786 728.833,193.119 726.833,191.786 726.833,188.286 730.5,184.953 730,182.62 726.5,180.453 728.666,178.286 731.833,178.286 736.5,175.953 737.833,172.12 744,169.787 748.833,167.62 C 748.833,167.62 749.5,168.287 749.5,169.287 749.5,170.287 746.333,171.454 746.333,171.454 L 745.166,175.954 748,174.62 750.5,172.12 753.666,173.12 752.833,179.62 755.666,176.953 755.666,173.786 754.666,168.453 755.333,166.12 756.833,161.953 760.333,160.286 765.333,158.119 768.333,160.286 C 768.333,160.286 766.916,162.203 765.833,163.286 764.75,164.369 767,165.12 767,165.12 L 770.666,165.12 773,162.453 C 773,162.453 775.666,165.286 776.166,165.786 776.666,166.286 775.666,161.953 775.666,161.953 L 780.166,159.453 783.333,161.12 786.833,160.954 790,157.787 793.333,153.62 793.333,148.787 797.5,142.62 801,139.12 804.166,135.287 809.666,134.454 814.25,134.204 816.5,136.454 821.166,141.121 825.333,139.288 828.333,136.871 831.583,136.871 830,135.287 830,132.953 833.166,129.787 833.166,124.287 834.666,121.454 837.166,121.454 839.333,119.287 839.333,115.954 843.5,112.954 844.5,108.954 842.833,107.287 843.5,105.287 841.167,101.954 843,98.62 844.75,96.87 847.917,100.037 845.5,102.454 848,104.954 851.833,104.954 854.5,103.954 858.167,102.287 861.5,101.454 862.333,98.787 861.333,96.12 859.5,95.787 853.833,93.287 849.667,93.954 848.667,91.621 845.333,91.621 845.333,89.788 846.167,86.621 849.167,85.121 849.5,81.621 852.167,80.121 854.5,80.121 853.5,77.288 854.5,74.288 857.333,70.12 z"
           id="path3173"
           style="fill:none;stroke:#000000" />
        <polygon
           points="881.736,395.542 883.035,396.84 884.477,395.399 885.053,392.513 883.467,390.207 880.727,390.784 880.727,390.784 879.285,392.37 879.285,394.388 879.285,396.551 "
           id="polygon3175"
           style="fill:none;stroke:#000000" />
        <path
           d="M 920.815,375.931 919.661,376.22 918.797,373.768 918.797,371.605 922.546,372.614 924.42,373.479 925.43,375.787 927.449,377.806 931.054,378.527 931.919,380.834 935.956,383.43 938.119,383.43 939.849,385.881 941.291,389.775 943.526,392.009 947.78,396.408 950.519,397.129 954.269,398.571 957.874,401.744 962.777,404.483 965.949,407.223 970.132,409.386 973.736,411.549 976.044,413.423 980.081,415.01 979.505,416.885 978.064,418.326 975.324,419.191 973.161,419.191 973.738,422.219 973.161,424.382 973.161,426.112 975.612,429.862 C 975.612,429.862 977.921,432.456 977.487,432.889 977.053,433.322 977.632,437.36 977.632,437.36 L 979.507,439.235 982.391,442.12 984.842,443.706 988.591,443.706 990.754,445.868 993.205,445.868 994.503,448.608 997.676,448.753 999.622,446.806 1003.011,448.753 1005.031,451.349 C 1005.031,451.349 1005.753,453.079 1005.031,453.079 1004.309,453.079 1000.416,451.204 1000.416,451.204 L 998.758,452.862 995.081,452.862 993.928,455.819 994.649,458.702 996.956,461.009 998.686,464.759 996.379,466.634 994.504,464.327 992.053,461.874 987.727,457.837 987.727,455.097 984.843,452.214 982.104,449.474 980.229,447.023 977.921,442.552 975.037,439.812 972.009,438.082 969.125,437.217 966.672,432.026 961.337,424.672 957.011,420.345 953.407,416.741 950.233,412.415 948.214,409.099 942.735,406.647 938.409,404.773 935.813,404.484 932.352,399.725 932.352,397.563 928.603,393.813 926.584,390.064 922.546,388.766 923.556,385.882 923.556,383.719 926.872,384.728 927.449,381.844 925.503,379.898 925.503,378.816 923.592,376.904 920.815,375.931 z"
           id="path3177"
           style="fill:none;stroke:#000000" />
        <polygon
           points="1044.686,455.24 1045.551,453.365 1045.551,450.77 1042.666,451.203 1042.666,451.203 1043.243,454.23 1043.531,457.115 1044.686,457.547 "
           id="polygon3179"
           style="fill:none;stroke:#000000" />
        <polygon
           points="1052.616,452.934 1052.616,452.934 1052.616,454.23 1054.491,455.24 1054.491,453.076 "
           id="polygon3181"
           style="fill:none;stroke:#000000" />
        <polygon
           points="1049.732,433.467 1049.444,430.148 1046.992,429.428 1046.271,433.178 1047.209,434.113 1046.416,436.926 1046.704,441.252 1046.704,441.252 1048.435,441.973 1049.012,439.666 1048.146,435.053 "
           id="polygon3183"
           style="fill:none;stroke:#000000" />
        <polygon
           points="1051.03,422.217 1051.03,422.217 1050.309,422.938 1050.886,425.391 1052.04,423.66 "
           id="polygon3185"
           style="fill:none;stroke:#000000" />
        <polygon
           points="1054.996,402.965 1055.5,405.634 1055.067,408.374 1055.645,411.546 1054.635,413.853 1052.761,413.42 1052.761,413.42 1053.481,409.671 1052.473,407.365 1053.049,404.913 "
           id="polygon3187"
           style="fill:none;stroke:#000000" />
        <polygon
           points="973.305,203.75 973.449,206.345 975.757,207.21 975.18,204.615 974.17,202.596 975.18,199.279 975.18,195.242 972.439,194.088 970.709,195.098 970.709,195.098 970.709,198.27 970.421,201.154 972.151,202.308 "
           id="polygon3189"
           style="fill:none;stroke:#000000" />
        <polygon
           points="1032.717,213.123 1034.88,210.96 1032.14,210.095 1029.399,211.249 1026.804,210.239 1026.804,210.239 1024.785,210.96 1025.795,213.123 1029.256,213.123 "
           id="polygon3191"
           style="fill:none;stroke:#000000" />
        <polygon
           points="1037.044,324.014 1036.756,326.61 1036.611,329.926 1038.125,331.44 1039.784,330.503 1039.784,327.042 1041.298,325.529 1040.072,322.572 1038.054,320.553 1038.197,317.958 1036.756,316.516 1036.756,316.516 1035.891,319.111 1034.521,320.481 1036.107,322.068 "
           id="polygon3193"
           style="fill:none;stroke:#000000" />
        <polygon
           points="1042.956,339.011 1042.956,339.011 1042.956,341.174 1044.398,341.895 1045.408,340.598 "
           id="polygon3195"
           style="fill:none;stroke:#000000" />
        <polygon
           points="1056.079,384.58 1056.079,382.993 1056.079,381.119 1054.637,381.263 1054.637,381.263 1054.637,384.436 1054.637,387.031 1056.656,387.031 "
           id="polygon3197"
           style="fill:none;stroke:#000000" />
        <polygon
           points="1040.939,202.305 1039.065,202.738 1039.065,202.738 1037.19,204.036 1038.199,205.045 1039.569,203.675 "
           id="polygon3199"
           style="fill:none;stroke:#000000" />
        <polygon
           points="841.138,33.391 841.33,36.947 840.448,37.83 840.889,40.696 842.543,43.122 844.252,47.092 846.898,47.643 848.69,45.851 850.041,43.398 848.553,41.799 850.758,38.601 850.372,35.128 850.372,30.993 848.222,29.284 848.222,29.284 846.898,28.788 845.741,30 843.205,31.324 "
           id="polygon3201"
           style="fill:none;stroke:#000000" />
        <polygon
           points="29.216,256.761 31.096,258.64 31.175,261.207 32.71,261.684 33.028,263.695 35.41,264.119 35.939,262.213 34.643,260.916 35.754,259.805 36.469,260.52 38.745,262.425 38.745,265.283 38.427,267.771 39.75,269.941 41.074,270.841 41.55,274.07 40.386,276.505 34.828,279.311 26.411,269.306 21.541,258.137 21.541,258.137 24.135,258.719 26.358,258.084 27.205,256.443 "
           id="polygon3203"
           style="fill:none;stroke:#000000" />
      </g>
    </clipPath>
  </defs>
  <path
     d="M 718.771,132.926 C 723.49867,126.60553 742.32437,123.4185 728.829,135.725 723.47029,140.51707 709.92759,135.85541 718.771,132.926 z"
     id="polygon92"
     style="fill:#2a8fbd;fill-opacity:1;stroke:#000000;stroke-width:3.00000024;stroke-miterlimit:4;stroke-dasharray:none" />
  <path
     d="M 701.15,140.716 C 694.41445,142.87285 696.45627,147.92903 687.387,148.883 682.33471,155.41355 691.61167,164.58204 700.243,164.462 700.56049,158.75189 713.43258,153.78853 711.60993,147.83292 700.02162,146.12758 700.56753,141.80177 713.1,146.161 715.11713,140.571 709.05137,131.72924 701.15,140.716 z"
     id="polygon94"
     style="fill:#2a8fbd;fill-opacity:1;stroke:#000000;stroke-width:3.00000024;stroke-miterlimit:4;stroke-dasharray:none" />
  <path
     d="M 719.755,172.479 C 720.12945,180.11866 741.33882,159.24346 720.7356,164.85434 717.59638,167.25362 715.48296,169.58414 719.755,172.479 z"
     id="polygon98"
     style="fill:#2a8fbd;fill-opacity:1;stroke:#000000;stroke-width:3.00000024;stroke-miterlimit:4;stroke-dasharray:none" />
  <path
     d="M 555.185,152.363 C 550.5426,154.71004 543.85656,182.16923 553.975,173.236 568.50218,173.648 567.45173,154.3425 557.15,157.505 554.79273,165.04658 557.5763,153.51869 555.185,152.363 z"
     id="polygon112"
     style="fill:#2a8fbd;fill-opacity:1;stroke:#000000;stroke-width:3.00000024;stroke-miterlimit:4;stroke-dasharray:none" />
  <path
     d="M 542.479,144.195 C 540.50767,147.04426 530.13186,138.67555 525.993,154.178 531.05136,157.78381 544.39237,170.38249 546.5637,158.5634 542.29079,155.61122 551.04376,146.07023 542.479,144.195 z"
     id="path114"
     style="fill:#2a8fbd;fill-opacity:1;stroke:#000000;stroke-width:3.00000024;stroke-miterlimit:4;stroke-dasharray:none" />
  <path
     d="M 361.584,267.465 C 372.64156,291.21874 366.43447,245.81524 361.584,267.465 z"
     id="polygon138"
     style="fill:#2a8fbd;fill-opacity:1;stroke:#000000;stroke-width:3.00000024;stroke-miterlimit:4;stroke-dasharray:none" />
  <path
     d="M 350.239,250.676 C 342.11179,242.86007 351.06623,235.07756 341.58726,227.02173 349.30604,222.67206 354.36327,218.79237 359.75992,213.94621 372.29329,211.53934 362.54038,206.59447 375.65832,201.81268 384.08488,200.63427 382.69521,193.65436 387.144,192.293 392.87934,188.78712 404.3151,185.90764 413.613,184.428 421.43684,195.57068 434.17787,174.74183 441.292,184.882 438.66629,198.36622 421.88483,196.00633 411.45115,196.831 402.94912,201.50871 395.24084,203.5389 389.867,207.51543 381.48141,212.1198 383.69136,211.87819 375.951,217.855 368.51015,222.73355 360.45458,227.81808 359.162,238.123 358.66958,247.441 362.49828,262.91854 351.297,250.071 L 350.239,250.676 z"
     id="polygon144"
     style="fill:#2a8fbd;fill-opacity:1;stroke:#000000;stroke-width:3.00000024;stroke-miterlimit:4;stroke-dasharray:none" />
  <path
     d="M 523.875,129.87 C 520.81095,139.67998 525.91063,149.24327 537.5,140.495 538.5709,130.68393 533.58846,118.46954 523.875,129.87 z"
     id="polygon150"
     style="fill:#2a8fbd;fill-opacity:1;stroke:#000000;stroke-width:3.00000024;stroke-miterlimit:4;stroke-dasharray:none" />
  <path
     d="M 857.33297,70.120005 C 862.20344,55.417397 879.15898,50.094481 889.53011,40.241045 898.06221,33.379063 909.22752,23.238618 919.08297,31.369005 933.88497,23.776967 905.00988,25.030857 916.99997,17.453005 919.19625,8.4673065 937.37606,-3.4998084 936.14504,10.754877 938.27848,19.964936 937.7311,15.943988 948.99997,24.287005 957.34568,21.473704 951.08044,32.486669 943.34714,39.104308 929.48261,38.019116 934.3625,53.150106 924.95732,54.562883 913.12408,48.615169 916.92312,64.05818 927.83297,60.787005 931.881,62.610218 944.25315,80.982437 928.16597,82.287005 928.94218,90.28807 932.8781,84.413149 943.86113,79.444731 951.26513,83.755548 960.42885,74.625241 966.08297,80.038005 971.05183,91.449642 951.89374,91.804581 964.50542,103.93182 964.47006,116.64616 970.05342,128.96725 973.49997,139.786 985.6692,156.57859 969.90601,149.22229 964.16697,163.786 968.88343,177.53726 964.20132,177.3138 961.67833,180.54527 967.71355,187.97601 950.9771,194.84416 964.83297,203.286 967.60317,213.12177 980.30921,228.78289 982.66697,211.62 983.88955,226.21516 1008.8754,218.67351 1000.5664,229.13305 994.95766,243.0587 1022.5113,239.10985 1017.666,248.786 1000.6015,258.13276 1032.0406,271.00103 1023.166,272.287 1017.1825,285.97346 1037.5048,288.77317 1035.5958,302.72425 1043.1218,318.97713 1025.1684,307.99445 1018.5,303.453 1005.5258,299.24701 996.6832,289.51625 983.41398,286.66858 972.45546,280.41711 965.47016,269.41907 961.79824,258.35586 953.09739,252.70958 964.55244,242.69479 957.76995,232.20199 952.10913,221.6081 949.02091,208.74389 944.66597,198.118 952.09824,183.45202 930.59624,182.53111 929.66597,171.118 932.4106,159.8447 916.54868,186.87411 935.49997,185.285 927.98909,187.58909 943.21102,216.53675 931.54937,206.7287 926.36477,210.40939 920.689,192.98754 915.99997,209.455 908.27601,221.09811 917.86529,229.16464 918.33297,240.789 913.98159,258.01507 936.73646,250.56837 929.49997,255.955 923.69093,259.96009 926.41472,278.57007 916.16597,276.287 923.8484,262.98846 905.79659,276.21395 900.33297,280.787 902.06591,291.74279 897.75227,292.08078 888.66597,299.453 890.83173,305.89086 872.22326,310.76193 870.54967,322.18634 868.95702,333.86597 870.85917,343.39648 870.49997,354.15143 868.36309,366.94828 872.86235,377.87457 869.66697,390.48543 863.05487,400.69756 867.62409,415.34246 878.42329,402.36168 887.30683,413.45291 886.91994,407.65028 887.66697,403.119 891.20264,413.31762 903.33755,406.49969 897.16697,398.12 891.815,386.66628 928.22869,389.16722 920.49997,395.62 926.21464,398.68743 938.28115,405.65487 937.49997,419.454 945.70187,430.65017 956.82662,441.58912 959.83297,454.85285 957.2242,474.35075 969.37528,493.07342 964.66597,512.954 963.46344,528.97222 967.66995,545.73351 956.59851,559.29218 943.90699,565.28437 940.9606,558.21506 937.62586,565.28967 937.5671,582.37355 929.74564,580.0734 933.36788,564.12631 928.4175,554.78809 914.27852,549.09525 923.33297,539.42057 933.70826,534.75884 936.0412,528.60912 931.7946,516.5955 926.73419,506.53976 927.27608,497.28093 922.744,489.02934 912.07416,479.49475 910.4829,505.25616 903.61234,507.95908 893.57609,519.79394 890.451,504.38542 881.24997,500.869 872.01004,500.61625 861.05643,504.0445 851.16697,504.285 844.21136,492.52701 831.07248,487.54803 823.49997,477.453 813.24733,469.72302 800.03054,475.22144 789.09319,477.35449 780.8194,480.94734 763.93531,498.954 777.75588,499.20872 788.17374,508.1854 771.55915,523.73072 781.66597,532.785 780.46643,545.88517 765.0159,550.00377 753.16697,549.619 742.36967,549.65373 731.91468,552.03382 727.33298,564.953 716.94348,571.712 708.38624,579.72436 694.99998,577.785 684.12579,578.29159 676.92383,568.77471 664.98986,570.11633 653.05386,568.9171 642.12158,583.78678 630.74466,573.02968 625.93257,557.59741 609.34822,565.41413 599.431,558.88036 590.61444,558.07397 584.15534,576.00266 592.99998,581.953 591.70319,595.53029 574.51973,592.41124 564.83398,590.953 554.34779,584.9099 544.48144,578.75501 534.13355,582.619 524.91495,587.38225 515.27144,595.63953 505.46886,600.04048 493.66326,611.15306 489.68224,593.21953 482.62519,597.80226 468.78574,600.39058 468.7276,582.64777 458.20998,577.578 450.62114,574.28086 437.37209,582.38034 434.66799,568.787 423.32332,582.83762 422.54641,558.30807 417.77349,551.00061 418.62691,539.62069 407.39461,531.08082 403.33399,522.953 414.69723,513.81025 390.86789,522.28886 385.75306,525.91382 368.644,529.78927 387.527,513.21974 370.23438,516.60695 366.34732,508.65648 358.31564,511.36998 361.50099,496.287 351.56325,489.37834 342.51853,491.4885 331.43117,492.47011 320.35482,490.23305 312.06643,493.76759 301.16699,490.119 289.96545,493.58159 276.92834,478.78337 275.99999,494.453 290.34382,506.64518 263.03677,493.40252 265.23045,508.11981 250.36027,507.78866 278.62827,526.35978 261.13456,527.785 252.91445,524.09706 240.89254,527.1511 240.08399,513.369 231.19892,509.02057 221.70567,508.25944 212.57251,505.35488 200.734,506.1023 209.83654,493.47495 198.28424,484.28809 188.87814,477.92732 185.66176,470.92112 173.59471,474.31217 163.17826,469.22047 154.70599,490.78545 150,477.75257 153.55777,465.68337 134.8901,477.60071 135.166,483.785 121.92815,483.77596 125.09984,498.52202 128.717,503.91241 138.61277,514.57746 126.74613,522.24023 127.70029,526.58143 132.2984,538.97001 108.13843,524.3677 106.32596,531.38529 94.526412,535.88739 92.464781,537.08128 94.245912,550.07693 83.117966,557.78369 90.528162,573.57013 85.348897,582.27128 71.034323,588.08024 71.325829,571.47424 66.666998,562.285 67.109958,552.86864 62.085661,545.3611 51.999999,541.285 51.798772,528.62789 40.698842,523.75624 35.499999,512.787 25.3873,505.76594 28.402697,494.93986 23.521161,483.31813 21.585795,476.71041 16.732606,458.03444 29.333999,468.953 41.858642,466.03564 39.686948,457.33359 48.833999,459.119 70.17987,465.40119 42.121834,453.00131 55.999998,449.787 67.373511,455.69409 72.243524,456.02791 78.832998,446.287 89.096677,442.14835 85.959033,431.72225 76.76072,423.35041 81.431964,411.66591 58.296035,406.12419 67.479321,395.46572 60.135912,383.28685 76.926319,378.46181 69.160681,366.94768 61.206495,363.86806 52.976579,360.36903 64.500998,351.619 68.735903,348.71254 82.335765,357.64906 78.166998,342.453 73.993373,329.17876 96.817318,324.00503 86.999997,313.12 81.349106,308.67506 82.23796,294.10688 88.795718,289.04685 95.501829,282.34668 100.88198,275.61996 109.69718,271.05701 119.67408,263.67153 128.81738,270.61907 134.33932,275.77968 135.19555,265.28362 125.80583,255.8443 136.09821,256.75524 147.24725,254.00031 169.97832,262.97779 173.33199,249.787 172.87694,236.988 186.63627,234.00364 188.83299,224.286 201.70623,222.29378 200.1981,205.78867 211.53242,201.286 224.76412,202.44701 218.66599,175.28976 237.09126,183.13036 243.41183,182.30324 256.69451,192.11153 248.99167,189.77868 244.17044,197.32996 256.31784,204.66095 257.99799,212.62 258.73868,224.23162 261.19137,234.16225 261.80808,244.99088 258.91669,262.30158 231.39642,258.57731 230.32667,243.11268 224.03338,233.84749 220.89029,220.39607 220.01034,218.17146 215.76473,228.1532 223.52493,240.49048 209.16899,245.954 205.45327,254.64294 201.5839,272.40251 213.92048,272.73736 214.77852,265.99611 218.87924,244.19718 222.26584,265.11332 230.10443,285.31969 233.14147,266.58017 240.17151,264.20828 248.84451,261.3291 266.3825,262.55797 259.49999,275.453 270.11641,269.3838 272.15831,258.51142 279.52823,251.23555 279.03323,233.99958 294.47649,248.34279 290.58366,260.02999 280.28093,253.51053 269.92491,271.70822 286.33199,275.118 295.03603,265.87704 302.2468,269.89975 317.03142,269.784 320.82816,272.97029 338.79527,265.26307 324.49999,276.616 333.12968,280.11074 342.96351,280.77773 351.16699,282.283 360.92988,280.26285 351.6532,299.11491 362.33399,285.948 365.63439,275.52694 373.95317,270.32839 382.43062,283.71163 389.1246,292.12617 396.88543,300.44374 399.99999,310.62 414.67516,303.51787 394.53302,291.20606 402.11546,283.39545 407.41637,274.06618 400.6918,264.8833 414.66399,261.12 421.33151,249.14195 424.6599,240.53595 437.83099,248.62 439.46249,262.2029 429.21308,269.86846 431.83099,283.787 423.65152,293.81929 426.56094,308.58553 425.95933,316.90176 422.36974,324.95461 411.8492,338.80491 401.24799,333.872 387.95122,327.47191 412.20891,351.87759 413.74699,341.538 422.96725,338.12743 433.71676,330.25784 432.49699,318.622 433.22157,302.70716 455.38115,314.67113 446.09869,325.48437 454.81258,341.82502 446.75284,326.95798 450.78744,318.69639 452.91,306.27789 438.01649,305.8722 431.33399,305.954 430.23302,294.51206 441.62708,285.69002 437.74999,273.871 436.45722,267.17798 450.59404,259.27263 451.66698,252.62 452.47784,261.50326 439.94058,280.05546 455.24998,278.204 471.95364,291.42109 440.86119,263.61364 456.16698,267.287 457.9258,268.61721 472.28033,254.92992 473.33298,270.286 492.85242,280.92935 469.41827,261.15888 476.49998,253.12 471.39942,237.74096 495.22477,249.28566 503.49898,243.287 498.57158,234.84804 507.6651,232.8449 504.67525,223.92484 513.13773,222.11772 524.62457,212.05813 527.83198,210.62 541.86653,199.75878 538.13792,214.89764 547.49998,205.953 552.81279,203.45185 557.01344,202.03506 556.66598,191.62 555.08915,177.27479 580.96518,174.70748 567.49998,188.286 582.99868,185.4243 575.88097,200.09168 587.19941,189.121 595.28502,184.34058 603.45416,193.11946 606.60884,199.31079 604.29302,199.54173 613.47805,214.1096 601.31812,221.10401 598.92496,233.09339 589.87186,238.26527 586.33298,249.12 581.89924,253.27862 608.77164,237.75935 600.83298,233.955 603.24612,229.05485 617.90854,224.56139 617.99998,234.785 617.68639,228.49219 639.44535,217.95178 643.36641,228.954 650.08978,228.57857 666.06536,224.7204 657.99998,209.956 664.28813,211.61881 671.14006,207.5102 677.99998,208.287 684.49198,211.50983 691.01589,217.8694 689.33298,225.286 691.79938,224.968 714.96764,242.96276 709.62717,226.09062 697.58427,207.30739 721.83459,225.28845 720.78822,210.5366 736.21081,206.52379 726.74733,204.98232 738.16597,198.12 730.22721,186.55671 724.27559,196.45644 729.99997,182.62 722.67772,180.39706 750.41847,164.12219 747.91647,170.7455 743.71376,171.98989 760.80943,185.05344 754.66597,168.453 763.19872,149.88196 766.53218,166.84054 776.16597,165.786 780.68243,158.58718 795.62793,158.47916 797.30763,142.90466 804.24586,128.04397 817.10255,138.68784 825.33297,139.288 833.98701,135.82989 832.38393,123.02272 839.33297,115.954 847.49938,110.34699 840.33403,87.214036 847.99997,104.954 865.89998,105.58346 862.80576,92.183137 848.73468,91.778964 840.92698,86.621304 856.47375,79.266956 857.1605,70.373741 z"
     id="path200"
     style="fill:#2a8fbd;fill-opacity:1;stroke:#000000;stroke-width:3.00000024;stroke-miterlimit:4;stroke-dasharray:none" />
  <path
     d="M 920.815,375.931 C 916.49817,365.62607 931.93842,383.04262 938.119,383.43 945.00358,399.17418 963.69335,402.58144 976.044,413.423 978.50057,417.14413 967.83326,432.37306 982.391,442.12 990.78066,448.5679 1000.5873,444.38774 1005.031,453.079 984.52388,443.13617 1005.9655,477.82763 990.32289,460.25947 984.04598,453.05966 979.69928,440.54306 969.125,437.217 963.22957,425.61856 953.46196,415.0086 943.89402,407.16569 933.01006,404.42191 925.43492,391.45255 923.556,383.719 932.14767,387.81498 924.32337,375.17779 920.815,375.931 z"
     id="path204"
     style="fill:#2a8fbd;fill-opacity:1;stroke:#000000;stroke-width:3.00000024;stroke-miterlimit:4;stroke-dasharray:none" />
  <g
     transform="matrix(1.275492,0,0,1.275492,-180.87121,-102.23831)"
     id="flowRoot4063"
     style="font-size:40px;font-style:normal;font-weight:normal;line-height:125%;letter-spacing:0px;word-spacing:0px;fill:#ffffff;fill-opacity:1;stroke:none;font-family:Sans">
    <path
       d="M 230.64895,357.79087 C 236.58294,352.07478 242.36734,346.2494 248.00243,340.32147 247.23163,348.46868 246.64072,356.6628 246.22773,364.89732 240.97784,362.64912 235.78266,360.28068 230.64895,357.79087 z M 247.99291,368.55461 246.04677,373.20299 C 247.00112,373.60252 247.95714,373.99818 248.9148,374.38996 L 251.8379,367.2457 C 250.95025,366.88261 250.06408,366.51614 249.1794,366.14629 249.4634,356.55478 249.99481,347.01572 250.777,337.53999 249.94436,337.1642 249.11349,336.78511 248.28441,336.40273 241.63198,343.20012 234.77102,349.8512 227.70114,356.34447 226.84336,355.91869 225.98736,355.48949 225.13315,355.05685 L 221.64679,361.94478 C 222.56939,362.41188 223.49399,362.87506 224.42054,363.33431 L 226.65829,358.81863 C 233.65988,362.28967 240.77709,365.53405 247.99291,368.55461 z"
       id="path4114"
       style="font-size:40.00000381px;font-variant:normal;font-stretch:normal;text-align:center;text-anchor:middle;font-family:URW Gothic L;-inkscape-font-specification:URW Gothic L Book" />
    <path
       d="M 272.23435,353.99266 C 269.2643,352.91 266.22069,353.06375 263.59574,354.21933 260.97078,355.37491 258.76272,357.5354 257.57327,360.5058 256.32436,363.62474 256.40101,366.78312 257.64417,369.47872 258.88732,372.17432 261.29847,374.4034 264.61173,375.6096 267.7301,376.74484 270.8608,376.54984 273.44354,375.28415 276.02629,374.01846 278.0601,371.68552 279.09113,368.57142 280.141,365.40036 279.90543,362.29202 278.68019,359.71477 277.45494,357.13751 275.24108,355.08869 272.23435,353.99266 z M 271.302,356.54791 C 273.51843,357.35593 275.14022,358.9227 276.0183,360.89417 276.89638,362.86564 277.03011,365.24335 276.21266,367.64843 275.40809,370.01565 273.8875,371.7825 271.97732,372.74513 270.06714,373.70776 267.76787,373.8644 265.46504,373.02556 263.02674,372.13737 261.26645,370.48827 260.36387,368.47175 259.46128,366.45523 259.41562,364.0732 260.34778,361.68913 261.25081,359.37956 262.88754,357.69156 264.84139,356.78037 266.79524,355.86918 269.06709,355.73316 271.302,356.54791 z"
       id="path4116"
       style="font-size:40.00000381px;font-variant:normal;font-stretch:normal;text-align:center;text-anchor:middle;font-family:URW Gothic L;-inkscape-font-specification:URW Gothic L Book" />
    <path
       d="M 299.79177,379.38837 C 296.75863,381.7241 294.31579,382.29984 291.26377,381.4209 288.82612,380.71888 286.92702,379.13591 285.83457,377.15511 284.74212,375.1743 284.45549,372.79803 285.178,370.48807 285.91246,368.13993 287.47478,366.33561 289.41528,365.2815 291.35577,364.22738 293.67521,363.92162 295.98724,364.58841 299.05733,365.47382 301.18815,367.67019 302.0644,370.88625 303.13156,371.17184 304.20004,371.45301 305.26981,371.72976 304.66885,367.02932 301.4074,363.31991 296.77838,361.98535 293.69237,361.09565 290.59196,361.4691 287.99254,362.81195 285.39311,364.15479 283.29325,366.47034 282.32008,369.49817 281.32243,372.60219 281.69583,375.7517 283.18451,378.37855 284.67319,381.00541 287.27839,383.10521 290.63079,384.0695 293.34464,384.85011 296.1077,384.69675 298.55503,383.69538 300.24026,382.98695 301.35271,382.16176 303.10865,380.26059 302.00172,379.97452 300.89607,379.68378 299.79177,379.38837 z"
       id="path4118"
       style="font-size:40.00000381px;font-variant:normal;font-stretch:normal;text-align:center;text-anchor:middle;font-family:URW Gothic L;-inkscape-font-specification:URW Gothic L Book" />
    <path
       d="M 310.66509,388.75289 C 311.66196,388.98632 312.65976,389.21609 313.65845,389.44223 L 317.89698,370.71851 C 320.25442,371.25262 322.61802,371.76556 324.98735,372.25759 L 325.53224,369.63398 C 319.87271,368.4587 314.24691,367.1634 308.66062,365.74422 L 308.00239,368.34211 C 310.34172,368.93627 312.68779,369.50886 315.04018,370.06015 z"
       id="path4120"
       style="font-size:40.00000381px;font-variant:normal;font-stretch:normal;text-align:center;text-anchor:middle;font-family:URW Gothic L;-inkscape-font-specification:URW Gothic L Book" />
    <path
       d="M 349.84382,373.92792 C 348.87784,373.7863 347.91258,373.64145 346.94807,373.49333 L 346.35796,377.32816 C 344.68972,373.99628 342.30366,372.24387 338.6113,371.60039 335.42421,371.04498 332.41454,371.73915 330.01339,373.3703 327.61223,375.00144 325.81847,377.57251 325.16622,380.7865 324.51794,383.9809 325.19833,387.0302 326.92672,389.43932 328.65511,391.84845 331.4322,393.61373 334.87555,394.21282 338.68784,394.87609 341.36658,394.04366 344.2044,391.32333 L 343.62038,395.11863 C 344.6341,395.27452 345.64844,395.42696 346.66338,395.57598 z M 338.22188,374.29328 C 340.56912,374.70194 342.51003,375.97233 343.78548,377.7453 345.06093,379.51828 345.67052,381.79555 345.29943,384.20714 344.92225,386.65827 343.65939,388.70187 341.87537,390.02737 340.09136,391.35287 337.78644,391.95834 335.38269,391.54042 332.85673,391.10124 330.80181,389.73555 329.51358,387.86884 328.22536,386.00213 327.70338,383.63652 328.18286,381.18328 328.63933,378.84781 330.00015,376.9251 331.81371,375.68563 333.62728,374.44617 335.89422,373.88804 338.22188,374.29328 z"
       id="path4122"
       style="font-size:40.00000381px;font-variant:normal;font-stretch:normal;text-align:center;text-anchor:middle;font-family:URW Gothic L;-inkscape-font-specification:URW Gothic L Book" />
    <path
       d="M 357.36848,377.70666 C 358.88475,377.90089 360.40254,378.08736 361.92176,378.26614 365.08761,378.67897 365.36516,380.18728 365.23436,381.38029 365.10355,382.5733 364.39174,384.23736 361.1412,383.85386 359.64301,383.6771 358.1461,383.49293 356.65055,383.30129 z M 355.27581,394.0144 356.30941,385.95973 C 358.21689,386.2042 360.12652,386.43657 362.03809,386.65696 365.30931,387.03413 367.52189,388.58316 367.23512,391.36884 366.94836,394.15452 364.52342,395.0773 361.23039,394.73864 359.24361,394.51003 357.25868,394.26866 355.27581,394.0144 z M 366.45642,385.0931 C 367.53669,384.12141 368.07173,382.84849 368.19063,381.69443 368.43664,379.30673 367.00645,376.12489 362.27952,375.56914 359.78475,375.27583 357.29396,374.96168 354.80761,374.62638 L 351.8773,396.31071 C 354.90048,396.71899 357.92848,397.09722 360.96059,397.44589 363.4414,397.73116 365.66882,397.38254 367.32037,396.41442 368.97192,395.44629 370.04627,393.86017 370.25736,391.67 370.54904,388.64358 369.00416,386.40915 366.45642,385.0931 z"
       id="path4124"
       style="font-size:40.00000381px;font-variant:normal;font-stretch:normal;text-align:center;text-anchor:middle;font-family:URW Gothic L;-inkscape-font-specification:URW Gothic L Book" />
    <path
       d="M 378.68879,377.19696 C 377.71124,377.11762 376.73414,377.03521 375.75752,376.94973 L 373.85241,398.74962 C 374.87571,398.83909 375.89937,398.92529 376.92335,399.00824 z M 388.80988,377.90941 C 388.64987,378.09304 388.48969,378.27658 388.32933,378.46005 385.445,381.76539 382.50409,385.04537 379.50582,388.29756 381.98673,391.73805 384.52643,395.15927 387.12308,398.5597 387.43471,398.96771 387.74714,399.37542 388.06037,399.78281 389.33626,399.8573 390.61243,399.92687 391.88885,399.99157 390.36993,398.05592 388.8692,396.1131 387.38693,394.16323 385.97453,392.30478 384.57928,390.44014 383.20149,388.56957 384.83413,386.77143 386.44952,384.96516 388.0478,383.15114 389.52349,381.47855 390.98473,379.79942 392.43165,378.11391 391.22397,378.05039 390.01671,377.98223 388.80988,377.90941 z"
       id="path4126"
       style="font-size:40.00000381px;font-variant:normal;font-stretch:normal;text-align:center;text-anchor:middle;font-family:URW Gothic L;-inkscape-font-specification:URW Gothic L Book" />
    <path
       d="M 417.92245,378.77654 C 416.93672,378.77665 415.95115,378.77383 414.96574,378.76807 L 414.94381,382.64578 C 412.78708,379.59491 410.14025,378.21117 406.35329,378.12227 403.08453,378.04553 400.18162,379.18259 398.03575,381.15683 395.88987,383.13108 394.50061,385.94527 394.34837,389.22099 394.19705,392.47674 395.34461,395.38624 397.42828,397.50543 399.51196,399.62462 402.53183,400.95036 406.03571,401.02994 409.91499,401.11805 412.4459,399.90182 414.86379,396.79743 L 414.84209,400.63517 C 415.87042,400.64105 416.89881,400.64388 417.92725,400.64369 z M 406.37101,380.84211 C 408.77598,380.89807 410.90399,381.86863 412.43958,383.4345 413.97517,385.00036 414.91827,387.16312 414.90448,389.60168 414.89046,392.08022 413.93548,394.28498 412.35954,395.85744 410.7836,397.42991 408.58666,398.3684 406.13854,398.3129 403.56594,398.25457 401.32078,397.21342 399.75721,395.56252 398.19364,393.91162 397.31156,391.65279 397.41222,389.15559 397.50805,386.77826 398.56821,384.67205 400.18766,383.17458 401.80712,381.67711 403.98609,380.78662 406.37101,380.84211 z"
       id="path4128"
       style="font-size:40.00000381px;font-variant:normal;font-stretch:normal;text-align:center;text-anchor:middle;font-family:URW Gothic L;-inkscape-font-specification:URW Gothic L Book" />
    <path
       d="M 437.93214,407.94393 C 439.04558,407.9026 440.15893,407.85789 441.27217,407.80983 445.30064,397.77802 449.09018,387.7012 452.64764,377.58764 451.59351,377.65891 450.53938,377.72704 449.48524,377.79202 447.37124,383.74475 445.1767,389.68442 442.90026,395.60935 440.24234,389.91782 437.66051,384.20747 435.15635,378.47937 434.07594,378.51629 432.99562,378.54981 431.9154,378.5799 434.93719,385.5479 438.07523,392.48971 441.32664,399.4034 440.21424,402.2538 439.08279,405.10071 437.93214,407.94393 z"
       id="path4130"
       style="font-size:40.00000381px;font-variant:normal;font-stretch:normal;text-align:center;text-anchor:middle;font-family:URW Gothic L;-inkscape-font-specification:URW Gothic L Book" />
    <path
       d="M 476.69889,379.04769 478.70936,397.21971 C 479.73424,397.10613 480.75889,396.98982 481.7833,396.87081 L 479.26174,375.13192 C 477.78254,375.30437 476.30304,375.47094 474.82329,375.63157 472.97539,382.00235 471.04431,388.36415 469.02852,394.71516 465.91725,388.84853 462.88679,382.95801 459.93902,377.04488 458.45809,377.16519 456.97707,377.2794 455.496,377.38744 L 457.07514,399.2053 C 458.10251,399.13076 459.12976,399.05338 460.15686,398.97319 L 458.73757,380.75164 C 461.68191,386.63171 464.70855,392.48925 467.81562,398.32301 468.75871,398.23654 469.70165,398.14772 470.64444,398.05657 472.7489,391.73128 474.76652,385.39435 476.69889,379.04769 z"
       id="path4132"
       style="font-size:40.00000381px;font-variant:normal;font-stretch:normal;text-align:center;text-anchor:middle;font-family:URW Gothic L;-inkscape-font-specification:URW Gothic L Book" />
    <path
       d="M 487.04313,396.23575 C 488.05284,396.10925 489.0623,395.98013 490.07149,395.84842 L 488.77848,385.92885 C 492.95113,385.38359 497.11985,384.7932 501.28365,384.15876 L 502.78857,394.0501 C 503.79526,393.89683 504.80162,393.74102 505.80764,393.58269 L 502.40624,371.95658 C 501.43633,372.10943 500.46618,372.25986 499.4958,372.40785 L 500.88033,381.50788 C 496.73523,382.1396 492.58545,382.72747 488.43196,383.2704 L 487.24239,374.1444 C 486.27039,374.27161 485.29822,374.39631 484.32591,374.5185 z"
       id="path4134"
       style="font-size:40.00000381px;font-variant:normal;font-stretch:normal;text-align:center;text-anchor:middle;font-family:URW Gothic L;-inkscape-font-specification:URW Gothic L Book" />
    <path
       d="M 511.54003,377.67406 510.33779,370.65193 C 509.35598,370.82017 508.3739,370.98597 507.39155,371.1493 L 510.97768,392.74644 C 514.00591,392.2434 517.03086,391.71773 520.05216,391.16983 524.99611,390.27326 528.09145,386.68111 527.24572,382.36048 526.4,378.03986 522.20395,375.77086 517.25598,376.66685 515.35188,377.01165 513.44653,377.34742 511.54003,377.67406 z M 513.57978,389.588 511.99931,380.35667 C 513.91441,380.02859 515.8283,379.69132 517.7409,379.34499 521.01385,378.75232 523.71345,380.18914 524.23816,382.94128 524.76287,385.69342 522.80736,387.90432 519.53265,388.53864 517.54986,388.89808 515.56553,389.24791 513.57978,389.588 z M 530.33742,389.21643 C 531.35073,389.01531 532.36359,388.81173 533.37597,388.6057 L 529.00801,367.15362 C 528.0303,367.35237 527.05221,367.54876 526.07377,367.74279 z"
       id="path4136"
       style="font-size:40.00000381px;font-variant:normal;font-stretch:normal;text-align:center;text-anchor:middle;font-family:URW Gothic L;-inkscape-font-specification:URW Gothic L Book" />
    <path
       d="M 536.28546,388.00659 C 537.43361,387.76741 538.58114,387.52509 539.72801,387.27966 541.1369,383.99062 542.51639,380.69806 543.86689,377.40258 546.48197,379.81073 549.12201,382.20321 551.78639,384.57968 552.94207,384.30948 554.09702,384.03618 555.25122,383.7598 551.79009,380.763 548.36874,377.73924 544.98851,374.6892 546.75397,370.62445 548.47363,366.55453 550.14832,362.48064 549.03217,362.74707 547.9154,363.01055 546.79803,363.27104 545.50705,366.46141 544.18874,369.64934 542.8427,372.83426 540.25197,370.52979 537.68545,368.20979 535.14375,365.87458 534.03572,366.11129 532.92717,366.345 531.81814,366.57571 535.05625,369.55386 538.33521,372.50721 541.65375,375.43508 539.91209,379.63103 538.12294,383.82195 536.28546,388.00659 z"
       id="path4138"
       style="font-size:40.00000381px;font-variant:normal;font-stretch:normal;text-align:center;text-anchor:middle;font-family:URW Gothic L;-inkscape-font-specification:URW Gothic L Book" />
    <path
       d="M 586.27102,372.73808 C 581.83866,374.03406 577.39281,375.28407 572.93453,376.4879 573.77095,370.83404 574.55249,365.1828 575.27919,359.53505 578.8935,363.96265 582.55755,368.36395 586.27102,372.73808 z M 571.36699,379.68305 C 577.38578,378.08046 583.38238,376.3941 589.35424,374.62447 L 590.71806,379.22713 C 591.85088,378.89146 592.98281,378.5528 594.11384,378.21118 L 591.95085,371.04994 C 591.07205,371.31539 590.1927,371.57902 589.3128,371.84084 584.79444,366.50733 580.34859,361.13379 575.97578,355.72178 574.96211,356.00957 573.94773,356.2949 572.93266,356.57776 572.0215,363.47603 571.02782,370.37931 569.95155,377.28598 569.06417,377.5212 568.17631,377.75459 567.28798,377.98616 L 569.17448,385.22468 C 570.31775,384.9267 571.46024,384.62572 572.60194,384.32174 z"
       id="path4140"
       style="font-size:40.00000381px;font-variant:normal;font-stretch:normal;text-align:center;text-anchor:middle;font-family:URW Gothic L;-inkscape-font-specification:URW Gothic L Book" />
    <path
       d="M 599.99848,347.84915 C 596.88098,348.86717 594.48814,350.91507 593.09317,353.47795 591.6982,356.04083 591.3017,359.12075 592.24027,362.18036 593.22577,365.39295 595.2934,367.7948 597.97864,369.11424 600.66388,370.43368 603.96615,370.66856 607.35345,369.56098 610.5415,368.51856 612.92197,366.43944 614.22171,363.85149 615.52145,361.26354 615.74115,358.16876 614.66734,355.06918 613.57388,351.91291 611.46854,349.59622 608.86387,348.32306 606.2592,347.04991 603.15447,346.81856 599.99848,347.84915 z M 600.84294,350.43505 C 605.48094,348.92049 610.11711,351.30342 611.75754,356.11179 613.37215,360.84445 611.15174,365.45766 606.42863,367.00135 601.42771,368.63585 596.74086,366.23181 595.21615,361.34353 593.73909,356.60802 596.1663,351.96222 600.84294,350.43505 z"
       id="path4142"
       style="font-size:40.00000381px;font-variant:normal;font-stretch:normal;text-align:center;text-anchor:middle;font-family:URW Gothic L;-inkscape-font-specification:URW Gothic L Book" />
    <path
       d="M 636.10462,339.28193 642.76497,356.30633 C 643.72715,355.92993 644.68844,355.55128 645.64882,355.17038 L 637.58136,334.83102 C 636.18848,335.38337 634.7936,335.93083 633.39677,336.47342 633.25226,343.10968 633.03409,349.75847 632.74221,356.41845 628.19597,351.57211 623.7112,346.68677 619.28832,341.76363 617.87879,342.27337 616.46743,342.7782 615.05427,343.27812 L 622.35302,363.90697 C 623.32717,363.56232 624.3005,363.21541 625.27302,362.86623 L 619.09488,345.66022 C 623.5059,350.55129 627.97842,355.4048 632.51202,360.21955 633.40186,359.88835 634.29098,359.55523 635.17937,359.22021 635.56358,352.56269 635.87198,345.91612 636.10462,339.28193 z"
       id="path4144"
       style="font-size:40.00000381px;font-variant:normal;font-stretch:normal;text-align:center;text-anchor:middle;font-family:URW Gothic L;-inkscape-font-specification:URW Gothic L Book" />
    <path
       d="M 652.08429,328.30732 C 649.06952,329.59083 646.86536,331.83713 645.69893,334.51033 644.5325,337.18352 644.40464,340.28562 645.60444,343.25228 646.86422,346.36728 649.13141,348.58126 651.92009,349.66332 654.70878,350.74539 658.01817,350.69342 661.29545,349.29646 664.37996,347.98167 666.56981,345.70395 667.63868,343.01332 668.70755,340.3227 668.65632,337.22114 667.31676,334.22723 665.9527,331.17856 663.65456,329.05401 660.95068,328.01178 658.2468,326.96956 655.13627,327.00796 652.08429,328.30732 z M 653.14995,330.80987 C 657.63541,328.9002 662.45821,330.87151 664.51063,335.51833 666.53074,340.09199 664.72152,344.87999 660.15204,346.82704 655.31377,348.88862 650.43748,346.89913 648.49523,342.1617 646.61367,337.57233 648.62713,332.73546 653.14995,330.80987 z"
       id="path4146"
       style="font-size:40.00000381px;font-variant:normal;font-stretch:normal;text-align:center;text-anchor:middle;font-family:URW Gothic L;-inkscape-font-specification:URW Gothic L Book" />
    <path
       d="M 670.53357,323.67219 C 671.94841,323.01972 673.36077,322.36205 674.77061,321.6992 677.72989,320.35205 678.76748,321.48755 679.28442,322.57044 679.80136,323.65333 680.06495,325.44268 677.05906,326.85526 675.67363,327.50632 674.28579,328.15242 672.89561,328.79353 z M 677.41864,338.60037 674.01799,331.22708 C 675.78794,330.41082 677.55409,329.58652 679.31637,328.7542 682.33209,327.32988 685.05467,327.47536 686.27305,329.99624 687.49143,332.51712 685.89611,334.58133 682.89723,336.04268 681.07507,336.90372 679.24885,337.75629 677.41864,338.60037 z M 682.29861,325.0739 C 682.71867,323.67389 682.51147,322.30734 682.00678,321.26294 680.9626,319.10212 678.04417,317.15425 673.64988,319.22061 671.33067,320.31119 669.0046,321.38767 666.67187,322.45001 L 675.74085,342.36129 C 678.53547,341.08848 681.32101,339.796 684.09717,338.48392 688.63997,336.33687 690.9641,332.60754 689.03062,328.65535 687.69476,325.92474 685.1905,324.83807 682.29861,325.0739 z"
       id="path4148"
       style="font-size:40.00000381px;font-variant:normal;font-stretch:normal;text-align:center;text-anchor:middle;font-family:URW Gothic L;-inkscape-font-specification:URW Gothic L Book" />
    <path
       d="M 706.17219,327.53277 C 707.08838,327.05628 708.00341,326.57759 708.91728,326.0967 L 699.97696,309.10573 C 702.12633,307.97456 704.26893,306.83088 706.4046,305.67473 707.90068,304.86012 709.3933,304.04024 710.88225,303.21499 L 720.15857,320.03411 C 721.06307,319.53441 721.9664,319.03261 722.86853,318.52868 L 712.20387,299.40882 C 709.85498,300.72511 707.49643,302.02798 705.12901,303.31777 702.12542,304.94381 699.10802,306.54509 696.07728,308.1215 z"
       id="path4150"
       style="font-size:40.00000381px;font-variant:normal;font-stretch:normal;text-align:center;text-anchor:middle;font-family:URW Gothic L;-inkscape-font-specification:URW Gothic L Book" />
    <path
       d="M 725.62969,291.06564 C 722.82227,292.73236 720.94114,295.24933 720.14081,298.05468 719.34049,300.86002 719.62242,303.95516 721.20158,306.74141 722.85969,309.66699 725.39736,311.5664 728.30393,312.27414 731.21049,312.98189 734.48514,312.49572 737.54804,310.67752 740.43077,308.96627 742.29652,306.41614 742.99267,303.60584 743.68882,300.79555 743.2166,297.72738 741.48489,294.93673 739.72151,292.09504 737.16148,290.29228 734.34948,289.61344 731.53748,288.9346 728.47177,289.37834 725.62969,291.06564 z M 727.01842,293.40828 C 729.10785,292.16798 731.40069,291.88377 733.51254,292.44622 735.6244,293.00868 737.55616,294.4186 738.88538,296.58694 741.50197,300.85532 740.35546,305.84443 736.08658,308.37803 731.56659,311.06067 726.47025,309.72587 723.921,305.27993 721.45142,300.97293 722.80475,295.90955 727.01842,293.40828 z"
       id="path4152"
       style="font-size:40.00000381px;font-variant:normal;font-stretch:normal;text-align:center;text-anchor:middle;font-family:URW Gothic L;-inkscape-font-specification:URW Gothic L Book" />
    <path
       d="M 752.56924,277.94416 C 753.852,277.08702 755.13014,276.22469 756.4035,275.3571 759.08354,273.57955 760.28434,274.53728 760.96883,275.52386 761.65332,276.51043 762.20717,278.23298 759.486,280.08693 758.23179,280.94142 756.97314,281.79077 755.71017,282.63503 z M 761.72472,291.61755 757.20267,284.86402 C 758.81217,283.78791 760.41479,282.70349 762.01025,281.61066 764.74051,279.74052 767.43419,279.45753 769.04528,281.74937 770.65636,284.04122 769.42651,286.32951 766.71037,288.24071 765.05568,289.37545 763.3937,290.50102 761.72472,291.61755 z M 764.33511,277.52264 C 764.51653,276.07877 764.08685,274.76609 763.41948,273.81655 762.03871,271.85199 758.86586,270.38568 754.90135,273.08667 752.80897,274.51219 750.70346,275.92359 748.58549,277.32116 L 760.66578,295.59116 C 763.2216,293.9023 765.7618,292.19247 768.28534,290.46121 772.41477,287.62824 774.08504,283.57824 771.53156,279.99285 769.76734,277.51567 767.13197,276.84108 764.33511,277.52264 z"
       id="path4154"
       style="font-size:40.00000381px;font-variant:normal;font-stretch:normal;text-align:center;text-anchor:middle;font-family:URW Gothic L;-inkscape-font-specification:URW Gothic L Book" />
    <path
       d="M 790.21203,266.36518 C 790.25939,270.19613 789.25549,272.5001 786.71834,274.43173 784.69192,275.97453 782.28092,276.56353 780.02995,276.26959 777.77899,275.97565 775.68913,274.80046 774.25916,272.84778 772.80557,270.86282 772.29014,268.5288 772.61247,266.33252 772.93479,264.13625 774.09356,262.07664 776.02997,260.60558 778.60127,258.65222 781.65511,258.24549 784.76394,259.46099 785.63729,258.77323 786.50765,258.08244 787.37495,257.38858 783.24572,255.06123 778.29476,255.47035 774.41373,258.41847 771.82637,260.38388 770.24549,263.11991 769.75759,266.02334 769.26969,268.92676 769.87724,271.99944 771.7401,274.57765 773.64984,277.22073 776.41896,278.77931 779.42776,279.13468 782.43655,279.49005 785.68306,278.63923 788.46611,276.51871 790.71906,274.80209 792.25297,272.49333 792.92059,269.93129 793.36517,268.1558 793.37272,266.7703 792.90674,264.22465 792.01155,264.94144 791.11329,265.65494 790.21203,266.36518 z"
       id="path4156"
       style="font-size:40.00000381px;font-variant:normal;font-stretch:normal;text-align:center;text-anchor:middle;font-family:URW Gothic L;-inkscape-font-specification:URW Gothic L Book" />
    <path
       d="M 810.72788,244.39777 C 808.71038,242.18202 807.17477,241.09642 805.0925,240.39355 801.31654,239.12127 797.08664,239.95556 793.98615,242.61957 791.61606,244.65601 790.27837,247.4002 790.01467,250.26734 789.75098,253.13449 790.56388,256.12652 792.56979,258.5907 794.61354,261.10137 797.44286,262.52701 800.42077,262.7616 803.39868,262.9962 806.52299,262.03668 809.07276,259.84212 811.27626,257.94561 812.65029,255.34915 812.9359,252.57582 813.14963,250.4025 812.91883,248.56157 812.16232,246.8198 811.38873,247.52241 810.61219,248.22211 809.83275,248.91892 810.88844,251.9946 809.83413,255.60307 807.2375,257.83689 805.48555,259.34405 803.29498,260.06828 801.18403,260.00973 799.07308,259.95118 797.04313,259.11123 795.57523,257.52456 800.74105,253.26439 805.79587,248.89055 810.72788,244.39777 z M 793.9327,255.4085 C 791.88266,251.65999 792.60631,247.38709 795.72784,244.7053 798.90939,241.97193 803.06454,241.841 806.72029,244.41202 802.54258,248.16002 798.27766,251.82445 793.9327,255.4085 z"
       id="path4158"
       style="font-size:40.00000381px;font-variant:normal;font-stretch:normal;text-align:center;text-anchor:middle;font-family:URW Gothic L;-inkscape-font-specification:URW Gothic L Book" />
    <path
       d="M 803.12091,225.06322 C 805.79184,227.04572 808.20145,226.86375 810.66649,224.44364 811.82976,223.30156 812.51014,222.05747 812.68192,220.80791 812.87996,219.47529 812.57882,218.52598 811.42755,216.90221 810.85551,217.48383 810.28114,218.06355 809.70447,218.64139 810.30187,219.45774 810.42249,219.95974 810.29496,220.65095 810.08565,221.42361 809.65087,222.19161 809.04547,222.78614 808.44008,223.38067 807.66458,223.80126 806.88889,223.99622 806.19622,224.11076 805.69752,223.98042 804.8951,223.36607 804.30593,223.93364 803.71453,224.49935 803.12091,225.06322 z M 820.54754,248.88097 C 821.28566,248.19435 822.02111,247.505 822.75386,246.8129 822.05765,239.31684 821.15231,231.90238 820.02798,224.58168 L 832.69595,237.0799 C 833.40297,236.36214 834.1071,235.64155 834.80831,234.91812 L 819.11142,219.67535 C 818.45207,220.35844 817.78969,221.03896 817.1243,221.71692 818.28437,229.00345 819.22497,236.38481 819.95596,243.84882 L 807.74945,230.91727 C 807.05724,231.57202 806.3622,232.22429 805.66437,232.8741 z"
       id="path4160"
       style="font-size:40.00000381px;font-variant:normal;font-stretch:normal;text-align:center;text-anchor:middle;font-family:URW Gothic L;-inkscape-font-specification:URW Gothic L Book" />
    <path
       d="M 470.25531,448.30157 C 471.37183,448.204 472.48794,448.10342 473.60362,447.99985 L 472.49024,436.09202 C 474.59006,435.89668 476.68852,435.69053 478.78552,435.47366 483.21582,435.01549 485.54814,434.21645 487.37672,432.67139 489.32814,431.03129 490.16619,428.46615 489.80285,425.52768 489.3855,422.15241 487.67118,419.66613 485.10468,418.63739 482.99232,417.75687 480.53927,417.59915 476.45018,418.01967 473.52325,418.32067 470.594,418.60014 467.6627,418.85773 z M 472.24075,433.42371 471.10131,421.2371 C 472.61609,421.09581 474.13028,420.94873 475.64383,420.79591 479.3196,420.42477 481.63803,420.44356 483.00304,420.89301 484.9618,421.55711 486.22383,423.29971 486.53392,425.92206 486.80173,428.18681 486.01077,430.13471 484.43455,431.15907 483.15262,432.02925 481.28766,432.52129 478.28801,432.83055 476.27353,433.03824 474.25775,433.23599 472.24075,433.42371 z"
       id="path4162"
       style="font-size:40.00000381px;font-variant:normal;font-stretch:normal;text-align:center;text-anchor:middle;font-family:URW Gothic L;-inkscape-font-specification:URW Gothic L Book" />
    <path
       d="M 505.00977,421.6408 C 501.50443,422.16241 498.56993,423.81144 496.59515,426.12547 494.62037,428.4395 493.60552,431.42114 494.01376,434.59606 494.44242,437.92973 496.1782,440.63487 498.7794,442.36554 501.38061,444.09621 504.84669,444.84966 508.65816,444.28178 512.24543,443.74731 515.17109,442.05561 517.04595,439.6917 518.92082,437.32778 519.74557,434.29404 519.19892,431.05793 518.64227,427.76262 516.85143,425.1449 514.33056,423.48296 511.80968,421.82103 508.55839,421.11276 505.00977,421.6408 z M 505.41081,424.33244 C 508.01853,423.94448 510.4283,424.51956 512.29886,425.81728 514.16942,427.11499 515.50097,429.13656 515.91151,431.64465 516.71965,436.58183 513.48075,440.81246 508.1667,441.60361 505.35337,442.02245 502.80559,441.45167 500.88676,440.14072 498.96792,438.82977 497.67829,436.78005 497.33829,434.24174 497.00892,431.78276 497.72257,429.49875 499.16571,427.73431 500.60886,425.96987 502.78136,424.72364 505.41081,424.33244 z"
       id="path4164"
       style="font-size:40.00000381px;font-variant:normal;font-stretch:normal;text-align:center;text-anchor:middle;font-family:URW Gothic L;-inkscape-font-specification:URW Gothic L Book" />
    <path
       d="M 544.81084,430.7493 C 542.9337,434.24712 540.82474,435.90357 537.42078,436.56832 534.70203,437.09926 532.08358,436.60311 530.04825,435.37582 528.01293,434.14852 526.56111,432.19179 526.13232,429.80856 525.69643,427.38594 526.34548,425.04408 527.75016,423.18272 529.15484,421.32135 531.31491,419.93904 533.94247,419.42669 537.43155,418.74635 540.61667,419.68565 543.01883,422.12891 544.21488,421.87993 545.41011,421.6277 546.60449,421.37224 543.78574,417.47343 538.74119,415.7178 533.46476,416.74695 529.94715,417.43304 527.03377,419.25416 525.11806,421.68967 523.20235,424.12518 522.28473,427.17776 522.83238,430.31221 523.39381,433.52553 525.32102,436.11721 528.05954,437.72221 530.79806,439.32721 534.34702,439.94245 538.07506,439.21357 541.09301,438.62353 543.71246,437.19161 545.63497,435.15622 546.94985,433.73787 547.65137,432.48467 548.48672,429.97305 547.26234,430.23517 546.03704,430.49392 544.81084,430.7493 z"
       id="path4166"
       style="font-size:40.00000381px;font-variant:normal;font-stretch:normal;text-align:center;text-anchor:middle;font-family:URW Gothic L;-inkscape-font-specification:URW Gothic L Book" />
    <path
       d="M 572.95345,424.26772 C 572.02517,426.18768 571.0076,427.57701 569.74275,428.57679 568.65677,429.43678 567.38803,430.01003 565.83452,430.38298 563.14816,431.02788 560.5181,430.64344 558.43731,429.50412 556.35653,428.3648 554.82547,426.47223 554.29601,424.10995 553.2196,419.3073 556.44553,414.6542 561.64385,413.40998 563.14936,413.04964 564.60904,413.00006 565.98459,413.25256 567.76222,413.58031 569.40009,414.41265 570.80789,415.73311 571.99022,415.43601 573.17179,415.13584 574.35259,414.8326 572.1937,412.08785 568.90306,410.52275 565.27172,410.34575 565.27172,410.34575 565.27172,410.34575 565.27172,410.34575 563.90258,410.27998 562.48379,410.41177 561.05459,410.75383 557.5744,411.58676 554.74481,413.52913 552.93773,416.04341 551.13066,418.55769 550.34666,421.64641 551.02742,424.75408 551.72529,427.93993 553.758,430.44619 556.55574,431.93256 559.35349,433.41892 562.91528,433.88245 566.59826,432.99725 567.98756,432.66333 569.28336,432.15073 570.45588,431.48465 571.79923,430.72365 572.98106,429.76092 573.95865,428.63447 575.20962,427.16557 575.85672,425.88628 576.58556,423.34501 575.37565,423.65576 574.16494,423.96333 572.95345,424.26772 z"
       id="path4168"
       style="font-size:40.00000381px;font-variant:normal;font-stretch:normal;text-align:center;text-anchor:middle;font-family:URW Gothic L;-inkscape-font-specification:URW Gothic L Book" />
    <path
       d="M 582.60968,428.43214 C 583.66892,428.15293 584.72753,427.87129 585.78551,427.58723 589.11576,420.54923 592.31226,413.49196 595.37471,406.41968 L 600.35285,423.51113 C 601.40475,423.20481 602.45596,422.89609 603.50647,422.58495 L 597.29134,401.604 C 596.27279,401.9057 595.25355,402.20506 594.23365,402.5021 591.19866,409.56641 588.02968,416.61602 584.727,423.64668 L 580.109,406.45505 C 579.08315,406.73055 578.05668,407.00371 577.02961,407.27453 z"
       id="path4170"
       style="font-size:40.00000381px;font-variant:normal;font-stretch:normal;text-align:center;text-anchor:middle;font-family:URW Gothic L;-inkscape-font-specification:URW Gothic L Book" />
    <path
       d="M 608.91492,420.95993 C 609.96301,420.64052 611.01038,420.3187 612.05702,419.99448 615.11846,412.83398 618.04513,405.65947 620.83672,398.47523 L 626.46194,415.36496 C 627.50165,415.01865 628.54058,414.66995 629.57872,414.31885 L 622.56895,393.58976 C 621.56252,393.93012 620.55531,394.26815 619.54734,394.60388 616.78299,401.77903 613.88362,408.94476 610.84954,416.0968 L 605.58162,399.09221 C 604.56685,399.40657 603.55138,399.7186 602.5352,400.02831 z"
       id="path4172"
       style="font-size:40.00000381px;font-variant:normal;font-stretch:normal;text-align:center;text-anchor:middle;font-family:URW Gothic L;-inkscape-font-specification:URW Gothic L Book" />
    <path
       d="M 636.96395,411.77614 C 638.01244,411.40873 639.06009,411.03886 640.10689,410.66654 L 638.41807,405.91744 C 637.37865,406.28712 636.33838,406.65437 635.29727,407.01919 z M 634.35812,404.33869 C 635.39506,403.97533 636.43117,403.60955 637.46643,403.24135 L 630.20182,382.81266 C 629.19829,383.16953 628.19394,383.52407 627.18878,383.87626 z"
       id="path4174"
       style="font-size:40.00000381px;font-variant:normal;font-stretch:normal;text-align:center;text-anchor:middle;font-family:URW Gothic L;-inkscape-font-specification:URW Gothic L Book" />
  </g>
  <flowRoot
     transform="translate(0,-2.5619193e-5)"
     id="flowRoot4071"
     xml:space="preserve"
     style="font-size:40px;font-style:normal;font-weight:normal;line-height:125%;letter-spacing:0px;word-spacing:0px;fill:#000000;fill-opacity:1;stroke:none;font-family:Sans"><flowRegion
       id="flowRegion4073"><rect
         width="362.49072"
         height="501.52826"
         x="141.52036"
         y="-145.76012"
         id="rect4075" /></flowRegion><flowPara
       id="flowPara4077"></flowPara></flowRoot>  <flowRoot
     transform="translate(0,-2.5619193e-5)"
     id="flowRoot4103"
     xml:space="preserve"
     style="font-size:40px;font-style:normal;font-weight:normal;line-height:125%;letter-spacing:0px;word-spacing:0px;fill:#000000;fill-opacity:1;stroke:none;font-family:Sans"><flowRegion
       id="flowRegion4105"><rect
         width="432.00949"
         height="76.967209"
         x="148.9688"
         y="354.52676"
         id="rect4107" /></flowRegion><flowPara
       id="flowPara4109"></flowPara></flowRoot></svg>
