<?xml version="1.0" encoding="UTF-8" standalone="no"?>
<!-- Created with Inkscape (http://www.inkscape.org/) -->

<svg
   xmlns:dc="http://purl.org/dc/elements/1.1/"
   xmlns:cc="http://creativecommons.org/ns#"
   xmlns:rdf="http://www.w3.org/1999/02/22-rdf-syntax-ns#"
   xmlns:svg="http://www.w3.org/2000/svg"
   xmlns="http://www.w3.org/2000/svg"
   version="1.1"
   width="55.000435"
   height="55.012249"
   id="svg6693">
  <defs
     id="defs6695" />
  <metadata
     id="metadata6698">
    <rdf:RDF>
      <cc:Work
         rdf:about="">
        <dc:format>image/svg+xml</dc:format>
        <dc:type
           rdf:resource="http://purl.org/dc/dcmitype/StillImage" />
        <dc:title></dc:title>
      </cc:Work>
    </rdf:RDF>
  </metadata>
  <g
     transform="translate(3.5002185,3.506125)"
     id="layer1">
    <path
       d="M 24.001093,49.017375 C 10.193456,49.017375 -0.999781,37.796625 -0.999781,24 -0.999781,10.20325 10.193456,-0.973875 24.001093,-0.973875 37.808718,-0.973875 48.999781,10.20325 48.999781,24 48.999781,37.796625 37.808718,49.017375 24.001093,49.017375 z M 24.001093,-3.506125 C 8.8137815,-3.506125 -3.5002185,8.806125 -3.5002185,24 -3.5002185,39.19375 8.8137815,51.506125 24.001093,51.506125 39.188393,51.506125 51.500218,39.19375 51.500218,24 51.500218,8.806125 39.188393,-3.506125 24.001093,-3.506125 z M 26.501093,11.513 21.500656,11.513 C 20.809943,11.513 20.250656,12.080625 20.250656,12.7355 20.250656,12.77925 20.265931,12.822875 20.267681,12.822875 L 20.252393,12.822875 21.502393,27.842125 21.517681,27.842125 C 21.565706,28.497 22.090943,29.020875 22.750656,29.020875 L 25.251093,29.020875 C 25.909494,29.020875 26.434731,28.497 26.482319,27.842125 L 26.497594,27.842125 27.748031,12.822875 27.732756,12.822875 C 27.735806,12.822875 27.749781,12.77925 27.749781,12.7355 27.749781,12.080625 27.190056,11.513 26.501093,11.513 z M 24.001093,31.5095 C 22.620981,31.5095 21.500656,32.64475 21.500656,33.99825 21.500656,35.395375 22.620981,36.486875 24.001093,36.486875 25.380756,36.486875 26.501093,35.395375 26.501093,33.99825 26.501093,32.64475 25.380756,31.5095 24.001093,31.5095"
       id="path110"
       style="fill:#000000;fill-opacity:1;fill-rule:nonzero;stroke:none" />
  </g>
</svg>
