<?xml version="1.0" encoding="UTF-8" standalone="no"?>
<!-- Created with Inkscape (http://www.inkscape.org/) -->

<svg
   xmlns:dc="http://purl.org/dc/elements/1.1/"
   xmlns:cc="http://creativecommons.org/ns#"
   xmlns:rdf="http://www.w3.org/1999/02/22-rdf-syntax-ns#"
   xmlns:svg="http://www.w3.org/2000/svg"
   xmlns="http://www.w3.org/2000/svg"
   version="1.1"
   width="54.999138"
   height="49.991249"
   id="svg6129">
  <defs
     id="defs6131" />
  <metadata
     id="metadata6134">
    <rdf:RDF>
      <cc:Work
         rdf:about="">
        <dc:format>image/svg+xml</dc:format>
        <dc:type
           rdf:resource="http://purl.org/dc/dcmitype/StillImage" />
        <dc:title></dc:title>
      </cc:Work>
    </rdf:RDF>
  </metadata>
  <g
     transform="translate(3.4995685,0.995625)"
     id="layer1">
    <path
       d="M 16.501306,42.75225 C 15.034318,42.75225 13.519293,42.577625 11.995543,42.22825 11.816531,42.184625 11.637531,42.184625 11.458518,42.184625 11.152894,42.184625 10.847268,42.22825 10.559106,42.35925 L 4.0275065,44.847875 5.066619,41.224125 C 5.346044,40.263625 5.018594,39.21575 4.237069,38.6045 0.857744,35.853875 -1.0021935,32.23 -1.0021935,28.34425 -1.0021935,20.44175 6.8479695,13.98 16.501306,13.98 26.150281,13.98 34.000431,20.44175 34.000431,28.34425 34.000431,36.2905 26.150281,42.75225 16.501306,42.75225 z M 16.501306,11.49125 C 5.455194,11.49125 -3.4995685,19.044625 -3.4995685,28.34425 -3.4995685,33.146875 -1.128806,37.46925 2.665294,40.5255 L 0.2465065,48.995625 11.458518,44.67325 C 13.073956,45.022625 14.754881,45.240875 16.501306,45.240875 27.543044,45.240875 36.497819,37.687625 36.497819,28.34425 36.497819,19.044625 27.543044,11.49125 16.501306,11.49125 z M 51.499568,15.857375 C 51.499568,6.557625 42.544794,-0.995625 31.498694,-0.995625 23.246856,-0.995625 16.169481,3.19575 13.113256,9.221 14.099981,9.09 15.104169,9.002625 16.125831,9.002625 19.099106,4.54925 24.871018,1.493 31.498694,1.493 41.147656,1.493 48.997819,7.95475 48.997819,15.857375 48.997819,19.743125 47.137881,23.367 43.758556,26.073875 42.981393,26.728875 42.653944,27.733 42.929006,28.73725 L 43.968131,32.361 38.798718,30.352625 C 38.698306,31.225875 38.510568,32.055375 38.287893,32.84125 L 47.749131,36.50875 45.330331,28.038625 C 49.128794,24.93875 51.499568,20.66 51.499568,15.857375"
       id="path102"
       style="fill:#000000;fill-opacity:1;fill-rule:nonzero;stroke:none" />
  </g>
</svg>
