<?xml version="1.0" encoding="UTF-8" standalone="no"?>
<!-- Created with Inkscape (http://www.inkscape.org/) -->

<svg
   xmlns:dc="http://purl.org/dc/elements/1.1/"
   xmlns:cc="http://creativecommons.org/ns#"
   xmlns:rdf="http://www.w3.org/1999/02/22-rdf-syntax-ns#"
   xmlns:svg="http://www.w3.org/2000/svg"
   xmlns="http://www.w3.org/2000/svg"
   version="1.1"
   width="55.000439"
   height="49.991249"
   id="svg5316">
  <defs
     id="defs5318" />
  <metadata
     id="metadata5321">
    <rdf:RDF>
      <cc:Work
         rdf:about="">
        <dc:format>image/svg+xml</dc:format>
        <dc:type
           rdf:resource="http://purl.org/dc/dcmitype/StillImage" />
        <dc:title></dc:title>
      </cc:Work>
    </rdf:RDF>
  </metadata>
  <g
     transform="translate(3.7859331,2.7099107)"
     id="layer1">
    <path
       d="M 39.964942,26.062339 C 37.892817,26.062339 36.214942,24.359589 36.214942,22.307589 36.214942,20.211839 37.892817,18.552714 39.964942,18.552714 42.035754,18.552714 43.715379,20.211839 43.715379,22.307589 43.715379,24.359589 42.035754,26.062339 39.964942,26.062339 z M 49.964504,21.041339 46.087892,21.041339 C 45.50983,18.203464 42.988867,16.064089 39.964942,16.064089 36.941454,16.064089 34.418742,18.203464 33.840679,21.041339 L -2.5354952,21.041339 C -3.2244581,21.041339 -3.7859331,21.608964 -3.7859331,22.307589 -3.7859331,23.006089 -3.2244581,23.573714 -2.5354952,23.573714 L 33.840679,23.573714 C 34.418742,26.411589 36.941454,28.550964 39.964942,28.550964 42.988867,28.550964 45.50983,26.411589 46.087892,23.573714 L 49.964504,23.573714 C 50.655217,23.573714 51.214504,23.006089 51.214504,22.307589 51.214504,21.608964 50.655217,21.041339 49.964504,21.041339 z M 9.9640673,-0.17766071 C 12.036192,-0.17766071 13.714067,1.4814643 13.714067,3.5335893 13.714067,5.6292143 12.036192,7.2883393 9.9640673,7.2883393 7.8932423,7.2883393 6.2153792,5.6292143 6.2153792,3.5335893 6.2153792,1.4814643 7.8932423,-0.17766071 9.9640673,-0.17766071 z M -2.5354952,4.7997143 3.8411173,4.7997143 C 4.4191798,7.6375893 6.9418792,9.8205893 9.9640673,9.8205893 12.987554,9.8205893 15.510254,7.6375893 16.088317,4.7997143 L 49.964504,4.7997143 C 50.655217,4.7997143 51.214504,4.2320893 51.214504,3.5335893 51.214504,2.8785893 50.655217,2.3110893 49.964504,2.3110893 L 16.088317,2.3110893 C 15.510254,-0.57053571 12.987554,-2.7099107 9.9640673,-2.7099107 6.9418792,-2.7099107 4.4191798,-0.57053571 3.8411173,2.3110893 L -2.5354952,2.3110893 C -3.2244581,2.3110893 -3.7859331,2.8785893 -3.7859331,3.5335893 -3.7859331,4.2320893 -3.2244581,4.7997143 -2.5354952,4.7997143 z M 19.964942,44.792714 C 17.892804,44.792714 16.214504,43.133589 16.214504,41.037964 16.214504,38.985839 17.892804,37.283089 19.964942,37.283089 22.035317,37.283089 23.715379,38.985839 23.715379,41.037964 23.715379,43.133589 22.035317,44.792714 19.964942,44.792714 z M 49.964504,39.815464 26.087454,39.815464 C 25.50938,36.933839 22.988867,34.794464 19.964942,34.794464 16.941017,34.794464 14.420492,36.933839 13.840242,39.815464 L -2.5354952,39.815464 C -3.2244581,39.815464 -3.7859331,40.382964 -3.7859331,41.037964 -3.7859331,41.736464 -3.2244581,42.304089 -2.5354952,42.304089 L 13.840242,42.304089 C 14.420492,45.141964 16.941017,47.281339 19.964942,47.281339 22.988867,47.281339 25.50938,45.141964 26.087454,42.304089 L 49.964504,42.304089 C 50.655217,42.304089 51.214504,41.736464 51.214504,41.037964 51.214504,40.382964 50.655217,39.815464 49.964504,39.815464"
       id="path170"
       style="fill:#000000;fill-opacity:1;fill-rule:nonzero;stroke:none" />
  </g>
</svg>
