<?xml version="1.0" encoding="utf-8"?>
<!-- Generator: Adobe Illustrator 15.1.0, SVG Export Plug-In . SVG Version: 6.00 Build 0)  -->
<!DOCTYPE svg PUBLIC "-//W3C//DTD SVG 1.1//EN" "http://www.w3.org/Graphics/SVG/1.1/DTD/svg11.dtd">
<svg version="1.1" id="Layer_1" xmlns="http://www.w3.org/2000/svg" xmlns:xlink="http://www.w3.org/1999/xlink" x="0px" y="0px"
	 width="1654.023px" height="198.971px" viewBox="0 0 1654.023 198.971" enable-background="new 0 0 1654.023 198.971"
	 xml:space="preserve">
<g id="XMLID_1_">
	<g>
		<path fill="#D9E2ED" d="M167.172,96.296c1.17,0,2.13,0.95,2.13,2.13s-0.96,2.13-2.13,2.13c-1.18,0-2.14-0.95-2.14-2.13
			S165.992,96.296,167.172,96.296z"/>
		<path fill="#D9E2ED" d="M297.012,123.176c0.03,0.25,0.01,0.5-0.05,0.739c-0.57,1.771-3.01,4.44-6.12,7.13
			c-3.1,2.69-6.86,5.4-10.07,7.25c-3.2,1.851-6.43,3.301-9.53,4.341s-6.07,1.68-8.75,1.88c-0.66,0.04-1.18,0.08-1.66,0.189
			c-0.48,0.101-0.93,0.28-1.45,0.58c-0.44,0.25-0.82,0.55-1.16,0.87c-0.39,1.74-2.41,3.2-5.18,3.9v25.029
			c0,0.141-0.05,0.28-0.15,0.41c-0.09,0.13-0.23,0.24-0.4,0.34c-0.17,0.091-0.37,0.17-0.6,0.23c-0.22,0.05-0.47,0.08-0.73,0.08
			h-0.84h-0.83h-0.84h-0.83c-0.26,0-0.51-0.03-0.74-0.08c-0.22-0.061-0.43-0.14-0.6-0.23c-1.23-0.77-2.3-2.689-3.07-4.93
			s-1.22-4.81-1.22-6.87c0-2.06,0.35-4.02,0.99-5.8s1.56-3.39,2.7-4.73c0.3-0.329,0.52-0.59,0.66-0.85
			c0.15-0.27,0.22-0.53,0.22-0.87c0-0.33-0.08-0.649-0.24-0.93c-0.14-0.28-0.35-0.53-0.61-0.75c-2.8-0.65-4.87-2.08-5.35-3.8
			l-38.13-20.86c-0.46-0.27-0.77-0.69-0.9-1.17c-0.12-0.47-0.07-0.99,0.2-1.45l0.84-1.47l0.85-1.47c0.26-0.45,0.69-0.761,1.16-0.891
			c3.63-0.79,14.14,3.13,20.55,6.83c6.41,3.7,11.49,8.29,14.53,12.72c0.72,1.101,1.18,1.71,2.22,2.311
			c0.7,0.399,1.42,0.64,2.11,0.729c0.99-0.409,2.12-0.72,3.36-0.869c0.65-0.091,1.32-0.131,2.02-0.131c0.75,0,1.47,0.051,2.16,0.141
			c1.07,0.149,2.06,0.41,2.94,0.75l17.97-11.101l20.02-11.56c0.23-0.13,0.47-0.21,0.72-0.24c0.24-0.03,0.49-0.01,0.73,0.05
			c0.23,0.07,0.46,0.181,0.66,0.32c0.2,0.16,0.37,0.35,0.5,0.58l0.42,0.729l0.43,0.73l0.42,0.74l0.43,0.729
			C296.902,122.686,296.982,122.926,297.012,123.176z"/>
		<path fill="#D9E2ED" d="M786.332,106.016c1.14,0,2.07,0.92,2.07,2.069c0,1.141-0.93,2.061-2.07,2.061h-11.42
			c-1.14,0-2.07-0.92-2.07-2.061c0-1.149,0.93-2.069,2.07-2.069h2.3h6.82H786.332z"/>
		<path fill="#D9E2ED" d="M786.332,110.146c1.14,0,2.07,0.93,2.07,2.07c0,1.149-0.93,2.069-2.07,2.069h-0.66h-10.1h-0.66
			c-1.14,0-2.07-0.92-2.07-2.069c0-1.141,0.92-2.07,2.07-2.07H786.332z"/>
		<path fill="#D9E2ED" d="M782.452,119.045v13.54c0,0.851-0.69,1.54-1.55,1.54c-0.85,0-1.54-0.689-1.54-1.54v-13.54
			c0-0.85,0.69-1.54,1.54-1.54C781.762,117.505,782.452,118.196,782.452,119.045z"/>
		<path fill="#D9E2ED" d="M790.232,125.056c5.36,3.25,8.93,9.14,8.93,15.859c0,10.24-8.3,18.54-18.54,18.54
			c-10.24,0-18.54-8.3-18.54-18.54c0-6.699,3.54-12.56,8.87-15.819c2.77-1.75,4.62-4.841,4.62-8.36v-1.61v-0.84h10.1v0.84v1.61
			C785.672,120.226,787.492,123.295,790.232,125.056z M782.452,132.585v-13.54c0-0.85-0.69-1.54-1.55-1.54
			c-0.85,0-1.54,0.69-1.54,1.54v13.54c0,0.851,0.69,1.54,1.54,1.54C781.762,134.125,782.452,133.436,782.452,132.585z"/>
		<path fill="#D9E2ED" d="M1286.781,45.986v7.18c-1.59-0.08-2.859-1.38-2.859-2.99v-1.21
			C1283.922,47.356,1285.191,46.055,1286.781,45.986z"/>
		<rect x="1291.082" y="45.966" fill="#D9E2ED" width="3.89" height="7.22"/>
		<rect x="1299.271" y="45.966" fill="#D9E2ED" width="3.9" height="7.22"/>
		<rect x="1307.472" y="45.966" fill="#D9E2ED" width="3.9" height="7.22"/>
		<rect x="1315.672" y="45.966" fill="#D9E2ED" width="3.899" height="7.22"/>
		<rect x="1323.872" y="45.966" fill="#D9E2ED" width="3.899" height="7.22"/>
		<rect x="1332.071" y="45.966" fill="#D9E2ED" width="3.9" height="7.22"/>
		<polygon fill="#D9E2ED" points="1344.172,45.966 1344.172,53.186 1344.162,53.186 1340.271,53.186 1340.271,45.966 
			1344.162,45.966 		"/>
		<rect x="1348.472" y="45.966" fill="#D9E2ED" width="3.89" height="7.22"/>
		<rect x="1356.662" y="45.966" fill="#D9E2ED" width="3.899" height="7.22"/>
		<rect x="1364.861" y="45.966" fill="#D9E2ED" width="3.9" height="7.22"/>
		<rect x="1373.062" y="45.966" fill="#D9E2ED" width="3.9" height="7.22"/>
		<path fill="#D9E2ED" d="M1384.122,48.966v1.21c0,1.61-1.271,2.91-2.86,2.99v-7.18
			C1382.852,46.055,1384.122,47.356,1384.122,48.966z"/>
		<path fill="#D9E2ED" d="M1384.122,86.456v0.61c0,1.61-1.271,2.91-2.86,2.98v-7.18c1.59,0.07,2.86,1.38,2.86,2.98V86.456z"/>
		<rect x="1373.062" y="82.845" fill="#D9E2ED" width="3.9" height="7.22"/>
		<rect x="1364.861" y="82.845" fill="#D9E2ED" width="3.9" height="7.22"/>
		<rect x="1356.662" y="82.845" fill="#D9E2ED" width="3.899" height="7.22"/>
		<rect x="1348.472" y="82.845" fill="#D9E2ED" width="3.89" height="7.22"/>
		<polygon fill="#D9E2ED" points="1344.172,82.845 1344.172,90.066 1344.162,90.066 1340.271,90.066 1340.271,82.845 
			1344.162,82.845 		"/>
		<rect x="1332.071" y="82.845" fill="#D9E2ED" width="3.9" height="7.22"/>
		<rect x="1323.872" y="82.845" fill="#D9E2ED" width="3.899" height="7.22"/>
		<rect x="1315.672" y="82.845" fill="#D9E2ED" width="3.899" height="7.22"/>
		<rect x="1307.472" y="82.845" fill="#D9E2ED" width="3.9" height="7.22"/>
		<rect x="1299.271" y="82.845" fill="#D9E2ED" width="3.9" height="7.22"/>
		<rect x="1291.082" y="82.845" fill="#D9E2ED" width="3.89" height="7.22"/>
		<path fill="#D9E2ED" d="M1286.781,82.865v7.18c-1.59-0.07-2.859-1.38-2.859-2.98v-0.61v-0.61
			C1283.922,84.245,1285.191,82.936,1286.781,82.865z"/>
		<path fill="#D9E2ED" d="M1291.082,90.066v2.52c0,1.08-0.88,1.95-1.96,1.95h-0.19h-0.2c-1.08,0-1.95-0.87-1.95-1.95v-2.54v-7.18
			v-29.7v-7.18v-2.54c0-1.08,0.87-1.95,1.95-1.95h0.391c1.08,0,1.96,0.87,1.96,1.95v2.52v7.22v29.66V90.066z"/>
		<path fill="#D9E2ED" d="M1299.271,90.066v2.52c0,1.08-0.87,1.95-1.95,1.95h-0.39c-1.08,0-1.96-0.87-1.96-1.95v-2.52v-7.22v-29.66
			v-7.22v-2.52c0-1.08,0.88-1.95,1.96-1.95h0.39c1.08,0,1.95,0.87,1.95,1.95v2.52v7.22v29.66V90.066z"/>
		<path fill="#D9E2ED" d="M1307.472,90.066v2.52c0,1.08-0.87,1.95-1.95,1.95h-0.39c-1.08,0-1.96-0.87-1.96-1.95v-2.52v-7.22v-29.66
			v-7.22v-2.52c0-1.08,0.88-1.95,1.96-1.95h0.39c1.08,0,1.95,0.87,1.95,1.95v2.52v7.22v29.66V90.066z"/>
		<path fill="#D9E2ED" d="M1315.672,90.066v2.52c0,1.08-0.87,1.95-1.95,1.95h-0.4c-1.069,0-1.949-0.87-1.949-1.95v-2.52v-7.22
			v-29.66v-7.22v-2.52c0-1.08,0.88-1.95,1.949-1.95h0.4c1.08,0,1.95,0.87,1.95,1.95v2.52v7.22v29.66V90.066z"/>
		<path fill="#D9E2ED" d="M1323.872,90.066v2.52c0,1.08-0.87,1.95-1.95,1.95h-0.4c-1.08,0-1.95-0.87-1.95-1.95v-2.52v-7.22v-29.66
			v-7.22v-2.52c0-1.08,0.87-1.95,1.95-1.95h0.4c1.08,0,1.95,0.87,1.95,1.95v2.52v7.22v29.66V90.066z"/>
		<path fill="#D9E2ED" d="M1332.071,90.066v2.52c0,1.08-0.88,1.95-1.949,1.95h-0.4c-1.08,0-1.95-0.87-1.95-1.95v-2.52v-7.22v-29.66
			v-7.22v-2.52c0-1.08,0.87-1.95,1.95-1.95h0.4c1.069,0,1.949,0.87,1.949,1.95v2.52v7.22v29.66V90.066z"/>
		<path fill="#D9E2ED" d="M1340.271,90.066v2.52c0,1.08-0.88,1.95-1.96,1.95h-0.39c-1.08,0-1.95-0.87-1.95-1.95v-2.52v-7.22v-29.66
			v-7.22v-2.52c0-1.08,0.87-1.95,1.95-1.95h0.39c1.08,0,1.96,0.87,1.96,1.95v2.52v7.22v29.66V90.066z"/>
		<path fill="#D9E2ED" d="M1348.472,90.066v2.52c0,1.08-0.88,1.95-1.96,1.95h-0.39c-1.08,0-1.95-0.87-1.95-1.95v-2.52v-7.22v-29.66
			v-7.22v-2.52c0-1.08,0.87-1.95,1.95-1.95h0.39c1.08,0,1.96,0.87,1.96,1.95v2.52v7.22v29.66V90.066z"/>
		<path fill="#D9E2ED" d="M1356.662,90.066v2.52c0,1.08-0.87,1.95-1.95,1.95h-0.391c-1.079,0-1.96-0.87-1.96-1.95v-2.52v-7.22
			v-29.66v-7.22v-2.52c0-1.08,0.881-1.95,1.96-1.95h0.391c1.08,0,1.95,0.87,1.95,1.95v2.52v7.22v29.66V90.066z"/>
		<path fill="#D9E2ED" d="M1364.861,90.066v2.52c0,1.08-0.869,1.95-1.949,1.95h-0.4c-1.07,0-1.95-0.87-1.95-1.95v-2.52v-7.22v-29.66
			v-7.22v-2.52c0-1.08,0.88-1.95,1.95-1.95h0.4c1.08,0,1.949,0.87,1.949,1.95v2.52v7.22v29.66V90.066z"/>
		<path fill="#D9E2ED" d="M1373.062,90.066v2.52c0,1.08-0.87,1.95-1.95,1.95h-0.399c-1.08,0-1.95-0.87-1.95-1.95v-2.52v-7.22v-29.66
			v-7.22v-2.52c0-1.08,0.87-1.95,1.95-1.95h0.399c1.08,0,1.95,0.87,1.95,1.95v2.52v7.22v29.66V90.066z"/>
		<path fill="#D9E2ED" d="M1381.262,90.046v2.54c0,1.08-0.88,1.95-1.95,1.95h-0.2h-0.199c-1.08,0-1.95-0.87-1.95-1.95v-2.52v-7.22
			v-29.66v-7.22v-2.52c0-1.08,0.87-1.95,1.95-1.95h0.399c1.07,0,1.95,0.87,1.95,1.95v2.54v7.18v29.7V90.046z"/>
		<path fill="#D9E2ED" d="M1387.691,76.476c2.15,0,3.9,0.62,3.9,1.37c0,0.76-1.75,1.38-3.9,1.38c-2.16,0-3.91-0.62-3.91-1.38
			C1383.781,77.095,1385.531,76.476,1387.691,76.476z"/>
		<path fill="#D9E2ED" d="M1622.321,86.356c1.421,0,2.57,1.14,2.561,2.56c0,1.42-1.14,2.56-2.561,2.56l-6.399-0.59
			c-0.2,0.25-0.44,0.46-0.7,0.63c-0.5,0.34-1.09,0.54-1.72,0.54c-0.65,0-1.24-0.2-1.73-0.54c-0.26-0.17-0.5-0.38-0.7-0.63
			l-6.409,0.59c-1.41,0-2.561-1.14-2.561-2.56c0-1.42,1.15-2.56,2.561-2.56l6.409,0.59c0.57-0.7,1.44-1.17,2.431-1.17
			c0.979,0,1.84,0.47,2.42,1.17L1622.321,86.356z"/>
		<path fill="#D9E2ED" d="M1580.231,86.356c1.42,0,2.57,1.14,2.57,2.56c0,1.42-1.15,2.56-2.57,2.56l-6.399-0.59
			c-0.2,0.24-0.431,0.46-0.69,0.63c-0.49,0.34-1.09,0.54-1.729,0.54c-0.641,0-1.23-0.2-1.73-0.54c-0.26-0.17-0.5-0.38-0.7-0.63
			l-6.399,0.59c-1.42,0-2.57-1.14-2.57-2.56c0-1.42,1.15-2.56,2.57-2.56l6.399,0.59c0.58-0.7,1.45-1.17,2.431-1.17
			c0.979,0,1.84,0.47,2.42,1.17L1580.231,86.356z"/>
		<path fill="#D9E2ED" d="M1465.302,75.756c1.26,0,2.28,1.03,2.28,2.29c0,1.26-1.021,2.28-2.28,2.28c-1.271,0-2.29-1.02-2.29-2.28
			C1463.012,76.785,1464.031,75.756,1465.302,75.756z"/>
		<path fill="#D9E2ED" d="M1497.502,33.506v65.81c0,1.29-0.96,2.57-2.141,2.84l-35.18,8.08c-1.18,0.27-2.15-0.56-2.15-1.86v-65.81
			c0-1.29,0.971-2.57,2.15-2.84l35.18-8.08C1496.542,31.376,1497.502,32.206,1497.502,33.506z M1467.582,78.046
			c0-1.26-1.021-2.29-2.28-2.29c-1.271,0-2.29,1.03-2.29,2.29c0,1.26,1.02,2.28,2.29,2.28
			C1466.562,80.325,1467.582,79.305,1467.582,78.046z"/>
		<path fill="#D9E2ED" d="M1193.852,119.915c6.891,0,12.49,2.101,12.49,4.7c0,2.59-6.49,4.7-12.49,4.7
			c-5.51,0-12.479-2.11-12.479-4.7C1181.372,122.016,1186.952,119.915,1193.852,119.915z"/>
		<path fill="#D9E2ED" d="M1221.222,115.526c0.06,0.3,0.07,0.59,0.04,0.89l-1.43,12.601c-0.32,2.83-5.86,5.069-12.37,5.069h-27.13
			c-6.521,0-12.061-2.239-12.4-5.069l-1.49-12.601c-0.04-0.3-0.02-0.6,0.04-0.88c0.62-2.84,5.79-5.06,12.33-5.06h30.061
			C1215.412,110.476,1220.602,112.686,1221.222,115.526z M1206.342,124.615c0-2.6-5.6-4.7-12.49-4.7
			c-6.899,0-12.479,2.101-12.479,4.7c0,2.59,6.97,4.7,12.479,4.7C1199.852,129.316,1206.342,127.205,1206.342,124.615z"/>
		<path fill="#D9E2ED" d="M1093.682,64.946v13.09c0,0.7-0.56,1.26-1.26,1.26h-9.2c-0.7,0-1.26-0.57-1.26-1.26v-13.09
			c0-0.7,0.569-1.26,1.26-1.26h3.55l-2.06,5.64v6.07c0,0.7,0.56,1.26,1.26,1.26h3.71c0.7,0,1.26-0.56,1.26-1.26v-6.07l2.15-5.45
			C1093.452,64.106,1093.682,64.495,1093.682,64.946z"/>
		<path fill="#D9E2ED" d="M1092.642,61.075c0.68,0.15,1.11,0.83,0.96,1.51l-0.51,1.29l-2.15,5.45v6.07c0,0.7-0.56,1.26-1.26,1.26
			h-3.71c-0.7,0-1.26-0.56-1.26-1.26v-6.07l2.06-5.64l0.74-2.02c0.15-0.68,0.82-1.11,1.5-0.96L1092.642,61.075z"/>
		<path fill="#D9E2ED" d="M978.651,38.075c1.4,0,2.54,1.14,2.54,2.54s-1.14,2.54-2.54,2.54c-1.399,0-2.54-1.14-2.54-2.54
			S977.252,38.075,978.651,38.075z"/>
		<path fill="#D9E2ED" d="M970.901,38.075c1.4,0,2.54,1.14,2.54,2.54s-1.14,2.54-2.54,2.54c-1.399,0-2.54-1.14-2.54-2.54
			S969.502,38.075,970.901,38.075z"/>
		<path fill="#D9E2ED" d="M964.281,40.615c0,2.28-1.85,4.13-4.13,4.13c-2.279,0-4.13-1.85-4.13-4.13c0-2.28,1.851-4.12,4.13-4.12
			C962.432,36.486,964.281,38.336,964.281,40.615z"/>
		<path fill="#D9E2ED" d="M1009.222,36.026v11.62h-58.05h-0.45v-11.62c0-1.79,1.45-3.24,3.24-3.24h52.02
			C1005.981,32.785,1009.222,34.236,1009.222,36.026z M981.191,40.615c0-1.4-1.14-2.54-2.54-2.54c-1.399,0-2.54,1.14-2.54,2.54
			s1.141,2.54,2.54,2.54C980.052,43.156,981.191,42.015,981.191,40.615z M973.441,40.615c0-1.4-1.14-2.54-2.54-2.54
			c-1.399,0-2.54,1.14-2.54,2.54s1.141,2.54,2.54,2.54C972.302,43.156,973.441,42.015,973.441,40.615z M960.151,44.745
			c2.28,0,4.13-1.85,4.13-4.13c0-2.28-1.85-4.13-4.13-4.12c-2.279,0-4.13,1.84-4.13,4.12
			C956.021,42.896,957.872,44.745,960.151,44.745z"/>
		<path fill="#D9E2ED" d="M979.972,53.726c12.46,0,22.57,10.1,22.57,22.57c0,12.46-10.11,22.56-22.57,22.56s-22.57-10.1-22.57-22.56
			C957.401,63.825,967.512,53.726,979.972,53.726z M996.852,76.285c0-9.32-7.56-16.88-16.88-16.88s-16.88,7.56-16.88,16.88
			c0,9.33,7.56,16.89,16.88,16.89S996.852,85.615,996.852,76.285z"/>
		<path fill="#D9E2ED" d="M979.972,59.406c9.32,0,16.88,7.56,16.88,16.88c0,9.33-7.56,16.89-16.88,16.89s-16.88-7.56-16.88-16.89
			C963.092,66.966,970.651,59.406,979.972,59.406z"/>
		<rect x="849.632" y="44.805" fill="#D9E2ED" width="36.86" height="49.99"/>
		<path fill="#D9E2ED" d="M711.952,74.256v21.05c0,1.27-1.03,2.31-2.31,2.31h-21.05c-1.27,0-2.3-1.04-2.3-2.31v-21.05
			c0-1.27,1.03-2.31,2.3-2.31h21.05C710.922,71.946,711.952,72.986,711.952,74.256z"/>
		<path fill="#D9E2ED" d="M711.952,43.646v21.05c0,1.27-1.03,2.31-2.31,2.31h-21.05c-1.27,0-2.3-1.04-2.3-2.31v-21.05
			c0-1.27,1.03-2.3,2.3-2.3h21.05C710.922,41.345,711.952,42.376,711.952,43.646z"/>
		<path fill="#D9E2ED" d="M681.342,43.646v21.05c0,1.27-1.03,2.31-2.3,2.31h-21.05c-1.28,0-2.31-1.04-2.31-2.31v-21.05
			c0-1.27,1.03-2.3,2.31-2.3h21.05C680.312,41.345,681.342,42.376,681.342,43.646z"/>
		<path fill="#D9E2ED" d="M681.342,74.256v21.05c0,1.27-1.03,2.31-2.3,2.31h-21.05c-1.28,0-2.31-1.04-2.31-2.31v-21.05
			c0-1.27,1.03-2.31,2.31-2.31h21.05C680.312,71.946,681.342,72.986,681.342,74.256z"/>
		<path fill="#D9E2ED" d="M542.202,53.436v0.02c-2.05,0.65-4.09,1.37-6.1,2.17c-2.3,0.91-3.43,3.51-2.51,5.82
			c0.11,0.28,0.25,0.55,0.41,0.79c-1.59-1.1-2.63-2.94-2.63-5.01c0-3.36,2.72-6.08,6.08-6.08
			C539.372,51.146,541.092,52.046,542.202,53.436z"/>
		<path fill="#D9E2ED" d="M534.002,62.236c-0.16-0.24-0.3-0.51-0.41-0.79c-0.92-2.31,0.21-4.91,2.51-5.82
			c2.01-0.8,4.05-1.52,6.1-2.17c1.95-0.61,3.91-1.16,5.9-1.64c7.05-1.73,14.3-2.59,21.67-2.59c6.19,0,12.39,0.63,18.42,1.86
			c2.42,0.49,3.98,2.86,3.49,5.29c-0.5,2.42-2.86,3.98-5.29,3.49c-5.44-1.11-11.03-1.68-16.63-1.68c-7.4,0-14.67,0.97-21.71,2.89
			c-2.93,0.79-5.81,1.76-8.65,2.88c-0.54,0.21-1.1,0.32-1.65,0.32C536.262,64.276,534.832,63.515,534.002,62.236z"/>
		<path fill="#D9E2ED" d="M537.482,71.796c3.04,0,5.51,2.47,5.51,5.51c0,1.65-0.72,3.12-1.87,4.13v8.74c0,2.03-1.63,3.67-3.66,3.67
			h-0.06c-2.03,0-3.67-1.65-3.67-3.67v-8.84c-1.08-1-1.76-2.43-1.76-4.03C531.972,74.265,534.432,71.796,537.482,71.796z"/>
		<path fill="#D9E2ED" d="M457.952,91.966c-4.03,4.21-9.72,6.83-16.02,6.83c-6.3,0-11.98-2.62-16.03-6.83l0.03-0.03h9.37l0.09,0.01
			c0.56,0.18,2.62,1.59,6.77,1.59c2.49,0,4.29-0.72,6.23-1.6l0.23,0.01h9.31L457.952,91.966z"/>
		<path fill="#D9E2ED" d="M441.932,54.396c12.27,0,22.22,9.94,22.22,22.2c0,5.97-2.36,11.38-6.2,15.37l-0.02-0.02h-9.31l-0.23-0.01
			c-1.94,0.88-3.74,1.6-6.23,1.6c-4.15,0-6.21-1.41-6.77-1.59l-0.09-0.01h-9.37l-0.03,0.03c-3.82-3.99-6.18-9.4-6.18-15.37
			C419.722,64.336,429.662,54.396,441.932,54.396z M455.702,76.396c0-7.6-6.16-13.76-13.77-13.76c-7.6,0-13.76,6.16-13.76,13.76
			c0,7.61,6.16,13.77,13.76,13.77C449.542,90.166,455.702,84.006,455.702,76.396z"/>
		<path fill="#D9E2ED" d="M343.212,75.546c2.6,1.53,4.34,4.34,4.34,7.58c0,3.23-1.74,6.05-4.34,7.57h-11.39
			c-2.6-1.52-4.35-4.34-4.35-7.57c0-3.24,1.75-6.05,4.35-7.58H343.212z M339.462,88.566v-0.62c0-1.07-0.87-1.94-1.95-1.94
			c-1.07,0-1.94,0.87-1.94,1.94v0.62H339.462z"/>
		<path fill="#D9E2ED" d="M343.212,52.216c2.6,1.53,4.34,4.34,4.34,7.58c0,3.23-1.74,6.05-4.34,7.57h-11.39
			c-2.6-1.52-4.35-4.34-4.35-7.57c0-3.24,1.75-6.05,4.35-7.58H343.212z M339.462,65.236v-0.62c0-1.08-0.87-1.94-1.95-1.94
			c-1.07,0-1.94,0.86-1.94,1.94v0.62H339.462z"/>
		<rect x="156.932" y="56.276" fill="#D9E2ED" width="20.47" height="36.6"/>
		<rect x="64.912" y="60.566" fill="#D9E2ED" width="19.05" height="19.05"/>
		<path fill="#D9E2ED" d="M56.422,60.566v41.27h-19.68v-41.27H56.422z M44.782,83.095c0-1.17-0.94-2.11-2.11-2.11
			c-1.16,0-2.11,0.94-2.11,2.11s0.95,2.11,2.11,2.11C43.842,85.206,44.782,84.265,44.782,83.095z"/>
		<path fill="#D9E2ED" d="M441.932,62.635c7.61,0,13.77,6.16,13.77,13.76c0,7.61-6.16,13.77-13.77,13.77
			c-7.6,0-13.76-6.16-13.76-13.77C428.172,68.796,434.332,62.635,441.932,62.635z M448.712,81.385v-1.08h-4.32v-0.03l0.76-0.71
			c2.03-1.96,3.32-3.4,3.32-5.18c0-1.38-0.88-2.81-2.95-2.81c-1.1,0-2.07,0.43-2.72,0.98l0.42,0.92c0.44-0.37,1.17-0.81,2.04-0.81
			c1.44,0,1.9,0.9,1.9,1.88c0,1.46-1.12,2.7-3.59,5.05l-1.02,0.99v0.8H448.712z M441.202,72.606v-0.86h-6.09v1.08h4.72v0.03
			l-4.18,8.53h1.35L441.202,72.606z"/>
		<path fill="#D9E2ED" d="M953.952,101.865c-1.79-0.01-3.23-1.45-3.23-3.24v-50.98h0.45h58.05v50.98c0,1.79-1.45,3.24-3.24,3.24
			h66.74c-2.44,0-4.42-1.98-4.42-4.42v-51.91c0-2.44,1.979-4.43,4.42-4.43h30.21c2.44,0,4.42,1.99,4.42,4.43v51.91
			c0,2.44-1.979,4.42-4.42,4.42h76.93c-6.29,0-11.21,2.2-11.51,4.96l-1.89,8.71h0.02c-0.06,0.28-0.08,0.58-0.04,0.88l1.49,12.601
			c0.34,2.83,5.88,5.069,12.4,5.069h27.13c6.51,0,12.05-2.239,12.37-5.069l1.43-12.601c0.03-0.3,0.02-0.59-0.04-0.89h0.01
			l-1.88-8.69c-0.3-2.77-5.229-4.97-11.53-4.97h72.53v-15.41h3.49h0.08v0.61c0,1.6,1.27,2.91,2.859,2.98v2.54
			c0,1.08,0.87,1.95,1.95,1.95h0.2h0.19c1.08,0,1.96-0.87,1.96-1.95v-2.52h3.89v2.52c0,1.08,0.88,1.95,1.96,1.95h0.39
			c1.08,0,1.95-0.87,1.95-1.95v-2.52h3.9v2.52c0,1.08,0.88,1.95,1.96,1.95h0.39c1.08,0,1.95-0.87,1.95-1.95v-2.52h3.9v2.52
			c0,1.08,0.88,1.95,1.949,1.95h0.4c1.08,0,1.95-0.87,1.95-1.95v-2.52h3.899v2.52c0,1.08,0.87,1.95,1.95,1.95h0.4
			c1.08,0,1.95-0.87,1.95-1.95v-2.52h3.899v2.52c0,1.08,0.87,1.95,1.95,1.95h0.4c1.069,0,1.949-0.87,1.949-1.95v-2.52h3.9v2.52
			c0,1.08,0.87,1.95,1.95,1.95h0.39c1.08,0,1.96-0.87,1.96-1.95v-2.52h3.891h0.01v2.52c0,1.08,0.87,1.95,1.95,1.95h0.39
			c1.08,0,1.96-0.87,1.96-1.95v-2.52h3.89v2.52c0,1.08,0.881,1.95,1.96,1.95h0.391c1.08,0,1.95-0.87,1.95-1.95v-2.52h3.899v2.52
			c0,1.08,0.88,1.95,1.95,1.95h0.4c1.08,0,1.949-0.87,1.949-1.95v-2.52h3.9v2.52c0,1.08,0.87,1.95,1.95,1.95h0.399
			c1.08,0,1.95-0.87,1.95-1.95v-2.52h3.9v2.52c0,1.08,0.87,1.95,1.95,1.95h0.199h0.2c1.07,0,1.95-0.87,1.95-1.95v-2.54
			c1.59-0.07,2.86-1.37,2.86-2.98v-0.61h0.149h3.37h0.05v15.41h62.98v-71.03c0-1.3,1.05-2.35,2.34-2.35h45.58
			c1.29,0,2.35,1.05,2.35,2.35v70.91l68.551,0.12v-10.09l0.189-0.26c0.5,0.34,1.09,0.54,1.73,0.54c0.64,0,1.239-0.2,1.729-0.54
			l0.18,0.26v6.36h16.011v-47.36c0-10.07,8.18-18.26,18.25-18.26c10.06,0,18.25,8.19,18.25,18.26v6.35c0,0.48-1.44,0.87-3.221,0.87
			c-1.79,0-3.229-0.39-3.229-0.87v-6.35c0-6.51-5.29-11.8-11.8-11.8c-6.511,0-11.801,5.29-11.801,11.8v47.36h15.801v-6.36
			l0.189-0.26c0.49,0.34,1.08,0.54,1.73,0.54c0.63,0,1.22-0.2,1.72-0.54l0.19,0.26v10.09h38.1v97.101h-1653v-97.131h27.68V55.376
			c0,0,0.31-1.53,0.86-2.07l29.63-29.62c1.15-1.14,3.01-1.14,4.15,0l14.38,14.37v-1.5c0-1.16,0.94-2.1,2.1-2.1h6.12
			c1.16,0,2.1,0.94,2.1,2.1v11.57c0,0.07-0.01,0.15-0.02,0.22l4.96,4.96c0.55,0.55,0.86,1.3,0.86,2.07v46.459h61.99
			c-1.05,0-1.89-0.869-1.89-1.95v-49.37c0-1.08,0.84-1.95,1.89-1.95h23.69c1.05,0,1.89,0.87,1.89,1.95v49.37
			c0,1.081-0.84,1.95-1.89,1.95h62.46c3.63,3.641,5.88,9.5,5.88,15.051v23.819v0.011c-1.24,0.149-2.37,0.46-3.36,0.869
			c-0.69-0.09-1.41-0.33-2.11-0.729c-1.04-0.601-1.5-1.21-2.22-2.311c-3.04-4.43-8.12-9.02-14.53-12.72
			c-6.41-3.7-16.92-7.62-20.55-6.83c-0.47,0.13-0.9,0.44-1.16,0.891l-0.85,1.47l-0.84,1.47c-0.27,0.46-0.32,0.98-0.2,1.45
			c0.13,0.479,0.44,0.9,0.9,1.17l38.13,20.86c0.48,1.72,2.55,3.149,5.35,3.8c0.26,0.22,0.47,0.47,0.61,0.75
			c0.16,0.28,0.24,0.6,0.24,0.93c0,0.34-0.07,0.601-0.22,0.87c-0.14,0.26-0.36,0.521-0.66,0.85c-1.14,1.341-2.06,2.95-2.7,4.73
			s-0.99,3.74-0.99,5.8c0,2.061,0.45,4.63,1.22,6.87s1.84,4.16,3.07,4.93c0.17,0.091,0.38,0.17,0.6,0.23
			c0.23,0.05,0.48,0.08,0.74,0.08h0.83h0.84h0.83h0.84c0.26,0,0.51-0.03,0.73-0.08c0.23-0.061,0.43-0.14,0.6-0.23
			c0.17-0.1,0.31-0.21,0.4-0.34c0.1-0.13,0.15-0.27,0.15-0.41v-25.029c2.77-0.7,4.79-2.16,5.18-3.9c0.34-0.32,0.72-0.62,1.16-0.87
			c0.52-0.3,0.97-0.479,1.45-0.58c0.48-0.109,1-0.149,1.66-0.189c2.68-0.2,5.65-0.84,8.75-1.88s6.33-2.49,9.53-4.341
			c3.21-1.85,6.97-4.56,10.07-7.25c3.11-2.689,5.55-5.359,6.12-7.13c0.06-0.239,0.08-0.489,0.05-0.739s-0.11-0.49-0.24-0.721
			l-0.43-0.729l-0.42-0.74l-0.43-0.73l-0.42-0.729c-0.13-0.23-0.3-0.42-0.5-0.58c-0.2-0.14-0.43-0.25-0.66-0.32
			c-0.24-0.06-0.49-0.08-0.73-0.05c-0.25,0.03-0.49,0.11-0.72,0.24l-20.02,11.56l-17.97,11.101c-0.88-0.34-1.87-0.601-2.94-0.75
			v-0.021v-23.819c0-5.551,2.25-11.41,5.89-15.051h64.99c-2.44,0-4.43-1.979-4.43-4.43v-51.9c0-2.45,1.99-4.43,4.43-4.43h30.2
			c2.45,0,4.43,1.99,4.43,4.43v51.9c0,2.45-1.98,4.43-4.43,4.43l83.96-0.02c-11.68-2.47-20.44-12.82-20.44-25.22
			c0-14.24,11.55-25.79,25.8-25.79s25.8,11.55,25.8,25.79c0,12.4-8.76,22.75-20.43,25.22l82.85,0.02c-1.86,0-3.36-1.5-3.36-3.359
			v-54.11c0-1.85,1.5-3.36,3.36-3.36h14.6c1.85,0,3.35,1.51,3.35,3.36v7.44v0.01c-1.99,0.48-3.95,1.03-5.9,1.64v-0.02
			c-1.11-1.39-2.83-2.29-4.75-2.29c-3.36,0-6.08,2.72-6.08,6.08c0,2.07,1.04,3.91,2.63,5.01c0.83,1.28,2.26,2.04,3.75,2.04
			c0.55,0,1.11-0.11,1.65-0.32c2.84-1.12,5.72-2.09,8.65-2.88l0.05,0.2v37.2c0,1.859-1.5,3.359-3.35,3.359h108.63
			c-1.4,0-2.54-1.109-2.54-2.52v-60.86c0-1.4,1.14-2.54,2.54-2.54h60.87c1.4,0,2.54,1.14,2.54,2.54v60.87c0,1.4-1.14,2.54-2.54,2.54
			h62.96c-1.14,0-2.07,0.93-2.07,2.07c0,1.149,0.93,2.069,2.07,2.069v0.011h-2.3c-1.14,0-2.07,0.92-2.07,2.069
			c0,1.141,0.93,2.061,2.07,2.061c-1.15,0-2.07,0.93-2.07,2.07c0,1.149,0.93,2.069,2.07,2.069h0.66v0.84v1.61
			c0,3.52-1.85,6.61-4.62,8.36c-5.33,3.26-8.87,9.12-8.87,15.819c0,10.24,8.3,18.54,18.54,18.54c10.24,0,18.54-8.3,18.54-18.54
			c0-6.72-3.57-12.609-8.93-15.859c-2.74-1.761-4.56-4.83-4.56-8.32v-1.61v-0.84h0.66c1.14,0,2.07-0.92,2.07-2.069
			c0-1.141-0.93-2.07-2.07-2.07c1.14,0,2.07-0.92,2.07-2.061c0-1.149-0.93-2.069-2.07-2.069h-2.3v-0.011
			c1.14,0,2.06-0.92,2.06-2.069c0-1.141-0.92-2.07-2.06-2.07h62.38c-1.23,0-2.23-1.02-2.23-2.29v-58.21c0-1.27,1-2.3,2.23-2.3h43.01
			c1.229,0,2.229,1.03,2.229,2.3v58.21c0,0-1,2.29-2.229,2.29H953.952z M1497.502,99.316v-65.81c0-1.3-0.96-2.13-2.141-1.86
			l-35.18,8.08c-1.18,0.27-2.15,1.55-2.15,2.84v65.81c0,1.301,0.971,2.13,2.15,1.86l35.18-8.08
			C1496.542,101.886,1497.502,100.606,1497.502,99.316z M1093.682,78.035v-13.09c0-0.45-0.229-0.84-0.59-1.07l0.51-1.29
			c0.15-0.68-0.28-1.36-0.96-1.51l-3.63-0.37c-0.68-0.15-1.35,0.28-1.5,0.96l-0.74,2.02h-3.55c-0.69,0-1.26,0.56-1.26,1.26v13.09
			c0,0.69,0.56,1.26,1.26,1.26h9.2C1093.122,79.296,1093.682,78.736,1093.682,78.035z M1089.932,49.976c0-1.16-0.939-2.11-2.11-2.11
			c-1.159,0-2.109,0.95-2.109,2.11c0,1.17,0.95,2.11,2.109,2.11C1088.992,52.086,1089.932,51.146,1089.932,49.976z M1089.932,93.006
			c0-1.17-0.939-2.11-2.11-2.11c-1.159,0-2.109,0.94-2.109,2.11c0,1.16,0.95,2.11,2.109,2.11
			C1088.992,95.115,1089.932,94.166,1089.932,93.006z M1002.542,76.296c0-12.47-10.11-22.57-22.57-22.57s-22.57,10.1-22.57,22.57
			c0,12.46,10.11,22.56,22.57,22.56S1002.542,88.756,1002.542,76.296z M886.492,94.796v-49.99h-36.86v49.99H886.492z
			 M869.651,98.385c0-0.98-0.8-1.77-1.779-1.77c-0.98,0-1.771,0.79-1.771,1.77s0.79,1.78,1.771,1.78
			C868.852,100.165,869.651,99.365,869.651,98.385z M711.952,95.305v-21.05c0-1.27-1.03-2.31-2.31-2.31h-21.05
			c-1.27,0-2.3,1.04-2.3,2.31v21.05c0,1.27,1.03,2.31,2.3,2.31h21.05C710.922,97.615,711.952,96.575,711.952,95.305z
			 M711.952,64.696v-21.05c0-1.27-1.03-2.3-2.31-2.3h-21.05c-1.27,0-2.3,1.03-2.3,2.3v21.05c0,1.27,1.03,2.31,2.3,2.31h21.05
			C710.922,67.006,711.952,65.966,711.952,64.696z M681.342,95.305v-21.05c0-1.27-1.03-2.31-2.3-2.31h-21.05
			c-1.28,0-2.31,1.04-2.31,2.31v21.05c0,1.27,1.03,2.31,2.31,2.31h21.05C680.312,97.615,681.342,96.575,681.342,95.305z
			 M681.342,64.696v-21.05c0-1.27-1.03-2.3-2.3-2.3h-21.05c-1.28,0-2.31,1.03-2.31,2.3v21.05c0,1.27,1.03,2.31,2.31,2.31h21.05
			C680.312,67.006,681.342,65.966,681.342,64.696z M542.992,77.305c0-3.04-2.47-5.51-5.51-5.51c-3.05,0-5.51,2.47-5.51,5.51
			c0,1.6,0.68,3.03,1.76,4.03v8.84c0,2.02,1.64,3.67,3.67,3.67h0.06c2.03,0,3.66-1.64,3.66-3.67v-8.74
			C542.271,80.426,542.992,78.956,542.992,77.305z M464.152,76.595c0-12.26-9.95-22.2-22.22-22.2s-22.21,9.94-22.21,22.2
			c0,5.97,2.36,11.38,6.18,15.37c4.05,4.21,9.73,6.83,16.03,6.83c6.3,0,11.99-2.62,16.02-6.83
			C461.792,87.976,464.152,82.566,464.152,76.595z M347.552,59.796c0-3.24-1.74-6.05-4.34-7.58h-11.39
			c-2.6,1.53-4.35,4.34-4.35,7.58c0,3.23,1.75,6.05,4.35,7.57h11.39C345.812,65.845,347.552,63.026,347.552,59.796z M347.552,83.126
			c0-3.24-1.74-6.05-4.34-7.58h-11.39c-2.6,1.53-4.35,4.34-4.35,7.58c0,3.23,1.75,6.05,4.35,7.57h11.39
			C345.812,89.176,347.552,86.356,347.552,83.126z M177.402,92.876v-36.6h-20.47v36.6H177.402z M169.302,98.426
			c0-1.18-0.96-2.13-2.13-2.13c-1.18,0-2.14,0.95-2.14,2.13s0.96,2.13,2.14,2.13C168.342,100.556,169.302,99.606,169.302,98.426z
			 M83.962,79.615v-19.05h-19.05v19.05H83.962z M56.422,101.835v-41.27h-19.68v41.27H56.422z"/>
		<path fill="#9A9A9B" d="M1087.821,47.865c1.171,0,2.11,0.95,2.11,2.11c0,1.17-0.939,2.11-2.11,2.11
			c-1.159,0-2.109-0.94-2.109-2.11C1085.712,48.816,1086.662,47.865,1087.821,47.865z"/>
		<path fill="#9A9A9B" d="M1087.821,90.896c1.171,0,2.11,0.94,2.11,2.11c0,1.16-0.939,2.11-2.11,2.11
			c-1.159,0-2.109-0.95-2.109-2.11C1085.712,91.836,1086.662,90.896,1087.821,90.896z"/>
		<path fill="#9A9A9B" d="M867.872,96.615c0.979,0,1.779,0.79,1.779,1.77s-0.8,1.78-1.779,1.78c-0.98,0-1.771-0.8-1.771-1.78
			S866.892,96.615,867.872,96.615z"/>
		<path fill="#9A9A9B" d="M448.712,80.305v1.08h-6.16v-0.8l1.02-0.99c2.47-2.35,3.59-3.59,3.59-5.05c0-0.98-0.46-1.88-1.9-1.88
			c-0.87,0-1.6,0.44-2.04,0.81l-0.42-0.92c0.65-0.55,1.62-0.98,2.72-0.98c2.07,0,2.95,1.43,2.95,2.81c0,1.78-1.29,3.22-3.32,5.18
			l-0.76,0.71v0.03H448.712z"/>
		<polygon fill="#9A9A9B" points="441.202,71.745 441.202,72.606 437.002,81.385 435.652,81.385 439.832,72.856 439.832,72.825 
			435.112,72.825 435.112,71.745 		"/>
		<path fill="#9A9A9B" d="M339.462,87.946v0.62h-3.89v-0.62c0-1.07,0.87-1.94,1.94-1.94
			C338.592,86.006,339.462,86.876,339.462,87.946z"/>
		<path fill="#9A9A9B" d="M339.462,64.615v0.62h-3.89v-0.62c0-1.08,0.87-1.94,1.94-1.94
			C338.592,62.676,339.462,63.535,339.462,64.615z"/>
		<path fill="#9A9A9B" d="M42.672,80.986c1.17,0,2.11,0.94,2.11,2.11s-0.94,2.11-2.11,2.11c-1.16,0-2.11-0.94-2.11-2.11
			S41.512,80.986,42.672,80.986z"/>
	</g>
	<g>
		<path fill="none" stroke="#9A9A9B" stroke-width="2" stroke-linejoin="bevel" stroke-miterlimit="10" d="M457.932,91.946h-9.31
			l-0.23-0.01c-1.94,0.88-3.74,1.6-6.23,1.6c-4.15,0-6.21-1.41-6.77-1.59l-0.09-0.01h-9.37"/>
		<path fill="none" stroke="#9A9A9B" stroke-width="2" stroke-miterlimit="10" d="M1497.502,99.316c0,1.29-0.96,2.57-2.141,2.84
			l-35.18,8.08c-1.18,0.27-2.15-0.56-2.15-1.86v-65.81c0-1.29,0.971-2.57,2.15-2.84l35.18-8.08c1.181-0.27,2.141,0.56,2.141,1.86
			V99.316z"/>
		<path fill="none" stroke="#9A9A9B" stroke-width="2" stroke-miterlimit="10" d="M1465.302,75.756c1.26,0,2.28,1.03,2.28,2.29
			c0,1.26-1.021,2.28-2.28,2.28c-1.271,0-2.29-1.02-2.29-2.28C1463.012,76.785,1464.031,75.756,1465.302,75.756z"/>
		<path fill="none" stroke="#9A9A9B" stroke-width="2" stroke-linejoin="round" stroke-miterlimit="10" d="M1611.582,91.776v6.36
			h-15.801v-47.36c0-6.51,5.29-11.8,11.801-11.8c6.51,0,11.8,5.29,11.8,11.8v6.35c0,0.48,1.439,0.87,3.229,0.87
			c1.78,0,3.221-0.39,3.221-0.87v-6.35c0-10.07-8.19-18.26-18.25-18.26c-10.07,0-18.25,8.19-18.25,18.26v47.36h-16.011v-6.36"/>
		<path fill="none" stroke="#9A9A9B" stroke-width="2" stroke-miterlimit="10" d="M1573.142,91.515c0.26-0.17,0.49-0.39,0.69-0.63
			l6.399,0.59c1.42,0,2.57-1.14,2.57-2.56c0-1.42-1.15-2.56-2.57-2.56l-6.399,0.59c-0.58-0.7-1.44-1.17-2.42-1.17
			c-0.98,0-1.851,0.47-2.431,1.17l-6.399-0.59c-1.42,0-2.57,1.14-2.57,2.56c0,1.42,1.15,2.56,2.57,2.56l6.399-0.59
			c0.2,0.25,0.44,0.46,0.7,0.63c0.5,0.34,1.09,0.54,1.73,0.54C1572.052,92.055,1572.651,91.856,1573.142,91.515z"/>
		<path fill="none" stroke="#9A9A9B" stroke-width="2" stroke-miterlimit="10" d="M1569.492,91.776v10.09l-68.551-0.12v-70.91
			c0-1.3-1.06-2.35-2.35-2.35h-45.58c-1.29,0-2.34,1.05-2.34,2.35v71.03h-62.98v-15.41v-7.15"/>
		<path fill="none" stroke="#9A9A9B" stroke-width="2" stroke-miterlimit="10" d="M1615.222,91.515c0.26-0.17,0.5-0.38,0.7-0.63
			l6.399,0.59c1.421,0,2.561-1.14,2.561-2.56c0.01-1.42-1.14-2.56-2.561-2.56l-6.399,0.59c-0.58-0.7-1.44-1.17-2.42-1.17
			c-0.99,0-1.86,0.47-2.431,1.17l-6.409-0.59c-1.41,0-2.561,1.14-2.561,2.56c0,1.42,1.15,2.56,2.561,2.56l6.409-0.59
			c0.2,0.25,0.44,0.46,0.7,0.63c0.49,0.34,1.08,0.54,1.73,0.54C1614.132,92.055,1614.722,91.856,1615.222,91.515z"/>
		<polyline fill="none" stroke="#9A9A9B" stroke-width="2" stroke-miterlimit="10" points="1615.412,91.776 1615.412,101.865 
			1653.512,101.865 1654.021,101.865 		"/>
		
			<line fill="none" stroke="#9A9A9B" stroke-width="2" stroke-miterlimit="10" x1="1384.271" y1="86.456" x2="1387.642" y2="86.456"/>
		<path fill="none" stroke="#9A9A9B" stroke-width="2" stroke-miterlimit="10" d="M1291.082,45.966v-2.52
			c0-1.08-0.88-1.95-1.96-1.95h-0.391c-1.08,0-1.95,0.87-1.95,1.95v2.54v7.18v29.7v7.18v2.54c0,1.08,0.87,1.95,1.95,1.95h0.2h0.19
			c1.08,0,1.96-0.87,1.96-1.95v-2.52v-7.22v-29.66V45.966z"/>
		<path fill="none" stroke="#9A9A9B" stroke-width="2" stroke-miterlimit="10" d="M1299.271,45.966v-2.52
			c0-1.08-0.87-1.95-1.95-1.95h-0.39c-1.08,0-1.96,0.87-1.96,1.95v2.52v7.22v29.66v7.22v2.52c0,1.08,0.88,1.95,1.96,1.95h0.39
			c1.08,0,1.95-0.87,1.95-1.95v-2.52v-7.22v-29.66V45.966z"/>
		<path fill="none" stroke="#9A9A9B" stroke-width="2" stroke-miterlimit="10" d="M1307.472,45.966v-2.52
			c0-1.08-0.87-1.95-1.95-1.95h-0.39c-1.08,0-1.96,0.87-1.96,1.95v2.52v7.22v29.66v7.22v2.52c0,1.08,0.88,1.95,1.96,1.95h0.39
			c1.08,0,1.95-0.87,1.95-1.95v-2.52v-7.22v-29.66V45.966z"/>
		<path fill="none" stroke="#9A9A9B" stroke-width="2" stroke-miterlimit="10" d="M1315.672,45.966v-2.52
			c0-1.08-0.87-1.95-1.95-1.95h-0.4c-1.069,0-1.949,0.87-1.949,1.95v2.52v7.22v29.66v7.22v2.52c0,1.08,0.88,1.95,1.949,1.95h0.4
			c1.08,0,1.95-0.87,1.95-1.95v-2.52v-7.22v-29.66V45.966z"/>
		<path fill="none" stroke="#9A9A9B" stroke-width="2" stroke-miterlimit="10" d="M1323.872,45.966v-2.52
			c0-1.08-0.87-1.95-1.95-1.95h-0.4c-1.08,0-1.95,0.87-1.95,1.95v2.52v7.22v29.66v7.22v2.52c0,1.08,0.87,1.95,1.95,1.95h0.4
			c1.08,0,1.95-0.87,1.95-1.95v-2.52v-7.22v-29.66V45.966z"/>
		<path fill="none" stroke="#9A9A9B" stroke-width="2" stroke-miterlimit="10" d="M1332.071,45.966v-2.52
			c0-1.08-0.88-1.95-1.949-1.95h-0.4c-1.08,0-1.95,0.87-1.95,1.95v2.52v7.22v29.66v7.22v2.52c0,1.08,0.87,1.95,1.95,1.95h0.4
			c1.069,0,1.949-0.87,1.949-1.95v-2.52v-7.22v-29.66V45.966z"/>
		<path fill="none" stroke="#9A9A9B" stroke-width="2" stroke-miterlimit="10" d="M1340.271,45.966v-2.52
			c0-1.08-0.88-1.95-1.96-1.95h-0.39c-1.08,0-1.95,0.87-1.95,1.95v2.52v7.22v29.66v7.22v2.52c0,1.08,0.87,1.95,1.95,1.95h0.39
			c1.08,0,1.96-0.87,1.96-1.95v-2.52v-7.22v-29.66V45.966z"/>
		<path fill="none" stroke="#9A9A9B" stroke-width="2" stroke-miterlimit="10" d="M1348.472,45.966v-2.52
			c0-1.08-0.88-1.95-1.96-1.95h-0.39c-1.08,0-1.95,0.87-1.95,1.95v2.52v7.22v29.66v7.22v2.52c0,1.08,0.87,1.95,1.95,1.95h0.39
			c1.08,0,1.96-0.87,1.96-1.95v-2.52v-7.22v-29.66V45.966z"/>
		<path fill="none" stroke="#9A9A9B" stroke-width="2" stroke-miterlimit="10" d="M1356.662,45.966v-2.52
			c0-1.08-0.87-1.95-1.95-1.95h-0.391c-1.079,0-1.96,0.87-1.96,1.95v2.52v7.22v29.66v7.22v2.52c0,1.08,0.881,1.95,1.96,1.95h0.391
			c1.08,0,1.95-0.87,1.95-1.95v-2.52v-7.22v-29.66V45.966z"/>
		<path fill="none" stroke="#9A9A9B" stroke-width="2" stroke-miterlimit="10" d="M1364.861,45.966v-2.52
			c0-1.08-0.869-1.95-1.949-1.95h-0.4c-1.07,0-1.95,0.87-1.95,1.95v2.52v7.22v29.66v7.22v2.52c0,1.08,0.88,1.95,1.95,1.95h0.4
			c1.08,0,1.949-0.87,1.949-1.95v-2.52v-7.22v-29.66V45.966z"/>
		<path fill="none" stroke="#9A9A9B" stroke-width="2" stroke-miterlimit="10" d="M1373.062,45.966v-2.52
			c0-1.08-0.87-1.95-1.95-1.95h-0.399c-1.08,0-1.95,0.87-1.95,1.95v2.52v7.22v29.66v7.22v2.52c0,1.08,0.87,1.95,1.95,1.95h0.399
			c1.08,0,1.95-0.87,1.95-1.95v-2.52v-7.22v-29.66V45.966z"/>
		<path fill="none" stroke="#9A9A9B" stroke-width="2" stroke-miterlimit="10" d="M1381.262,45.986v-2.54
			c0-1.08-0.88-1.95-1.95-1.95h-0.399c-1.08,0-1.95,0.87-1.95,1.95v2.52v7.22v29.66v7.22v2.52c0,1.08,0.87,1.95,1.95,1.95h0.199h0.2
			c1.07,0,1.95-0.87,1.95-1.95v-2.54v-7.18v-29.7V45.986z"/>
		<path fill="none" stroke="#9A9A9B" stroke-width="2" stroke-miterlimit="10" d="M1286.781,101.865c0-1.189,0.961-2.15,2.15-2.15
			c1.18,0,2.15,0.96,2.15,2.15"/>
		
			<line fill="none" stroke="#9A9A9B" stroke-width="2" stroke-miterlimit="10" x1="1288.932" y1="94.535" x2="1288.932" y2="99.716"/>
		<path fill="none" stroke="#9A9A9B" stroke-width="2" stroke-miterlimit="10" d="M1376.962,101.865c0-1.189,0.96-2.15,2.149-2.15
			c1.19,0,2.15,0.96,2.15,2.15"/>
		
			<line fill="none" stroke="#9A9A9B" stroke-width="2" stroke-miterlimit="10" x1="1379.111" y1="94.535" x2="1379.111" y2="99.716"/>
		<path fill="none" stroke="#9A9A9B" stroke-width="2" stroke-miterlimit="10" d="M1387.691,76.476c2.15,0,3.9,0.62,3.9,1.37
			c0,0.76-1.75,1.38-3.9,1.38c-2.16,0-3.91-0.62-3.91-1.38C1383.781,77.095,1385.531,76.476,1387.691,76.476z"/>
		
			<line fill="none" stroke="#9A9A9B" stroke-width="2" stroke-miterlimit="10" x1="1315.672" y1="90.066" x2="1319.571" y2="90.066"/>
		
			<line fill="none" stroke="#9A9A9B" stroke-width="2" stroke-miterlimit="10" x1="1319.571" y1="82.845" x2="1315.672" y2="82.845"/>
		
			<line fill="none" stroke="#9A9A9B" stroke-width="2" stroke-miterlimit="10" x1="1307.472" y1="90.066" x2="1311.372" y2="90.066"/>
		
			<line fill="none" stroke="#9A9A9B" stroke-width="2" stroke-miterlimit="10" x1="1311.372" y1="82.845" x2="1307.472" y2="82.845"/>
		
			<line fill="none" stroke="#9A9A9B" stroke-width="2" stroke-miterlimit="10" x1="1323.872" y1="90.066" x2="1327.771" y2="90.066"/>
		
			<line fill="none" stroke="#9A9A9B" stroke-width="2" stroke-miterlimit="10" x1="1327.771" y1="82.845" x2="1323.872" y2="82.845"/>
		
			<line fill="none" stroke="#9A9A9B" stroke-width="2" stroke-miterlimit="10" x1="1291.082" y1="90.066" x2="1294.972" y2="90.066"/>
		
			<line fill="none" stroke="#9A9A9B" stroke-width="2" stroke-miterlimit="10" x1="1294.972" y1="82.845" x2="1291.082" y2="82.845"/>
		
			<line fill="none" stroke="#9A9A9B" stroke-width="2" stroke-miterlimit="10" x1="1299.271" y1="90.066" x2="1303.172" y2="90.066"/>
		
			<line fill="none" stroke="#9A9A9B" stroke-width="2" stroke-miterlimit="10" x1="1303.172" y1="82.845" x2="1299.271" y2="82.845"/>
		
			<line fill="none" stroke="#9A9A9B" stroke-width="2" stroke-miterlimit="10" x1="1332.071" y1="90.066" x2="1335.972" y2="90.066"/>
		
			<line fill="none" stroke="#9A9A9B" stroke-width="2" stroke-miterlimit="10" x1="1335.972" y1="82.845" x2="1332.071" y2="82.845"/>
		<path fill="none" stroke="#9A9A9B" stroke-width="2" stroke-miterlimit="10" d="M1286.781,82.865
			c-1.59,0.07-2.859,1.38-2.859,2.98v0.61v0.61c0,1.6,1.27,2.91,2.859,2.98"/>
		
			<line fill="none" stroke="#9A9A9B" stroke-width="2" stroke-miterlimit="10" x1="1364.861" y1="90.066" x2="1368.762" y2="90.066"/>
		
			<line fill="none" stroke="#9A9A9B" stroke-width="2" stroke-miterlimit="10" x1="1368.762" y1="82.845" x2="1364.861" y2="82.845"/>
		
			<line fill="none" stroke="#9A9A9B" stroke-width="2" stroke-miterlimit="10" x1="1340.271" y1="90.066" x2="1344.162" y2="90.066"/>
		
			<line fill="none" stroke="#9A9A9B" stroke-width="2" stroke-miterlimit="10" x1="1344.162" y1="82.845" x2="1340.271" y2="82.845"/>
		<path fill="none" stroke="#9A9A9B" stroke-width="2" stroke-miterlimit="10" d="M1381.262,90.046c1.59-0.07,2.86-1.37,2.86-2.98
			v-0.61v-0.61c0-1.6-1.271-2.91-2.86-2.98"/>
		
			<line fill="none" stroke="#9A9A9B" stroke-width="2" stroke-miterlimit="10" x1="1373.062" y1="90.066" x2="1376.962" y2="90.066"/>
		
			<line fill="none" stroke="#9A9A9B" stroke-width="2" stroke-miterlimit="10" x1="1376.962" y1="82.845" x2="1373.062" y2="82.845"/>
		
			<line fill="none" stroke="#9A9A9B" stroke-width="2" stroke-miterlimit="10" x1="1348.472" y1="90.066" x2="1352.361" y2="90.066"/>
		
			<line fill="none" stroke="#9A9A9B" stroke-width="2" stroke-miterlimit="10" x1="1352.361" y1="82.845" x2="1348.472" y2="82.845"/>
		
			<line fill="none" stroke="#9A9A9B" stroke-width="2" stroke-miterlimit="10" x1="1356.662" y1="90.066" x2="1360.562" y2="90.066"/>
		
			<line fill="none" stroke="#9A9A9B" stroke-width="2" stroke-miterlimit="10" x1="1360.562" y1="82.845" x2="1356.662" y2="82.845"/>
		
			<line fill="none" stroke="#9A9A9B" stroke-width="2" stroke-miterlimit="10" x1="1315.672" y1="53.186" x2="1319.571" y2="53.186"/>
		
			<line fill="none" stroke="#9A9A9B" stroke-width="2" stroke-miterlimit="10" x1="1319.571" y1="45.966" x2="1315.672" y2="45.966"/>
		
			<line fill="none" stroke="#9A9A9B" stroke-width="2" stroke-miterlimit="10" x1="1307.472" y1="53.186" x2="1311.372" y2="53.186"/>
		
			<line fill="none" stroke="#9A9A9B" stroke-width="2" stroke-miterlimit="10" x1="1311.372" y1="45.966" x2="1307.472" y2="45.966"/>
		
			<line fill="none" stroke="#9A9A9B" stroke-width="2" stroke-miterlimit="10" x1="1323.872" y1="53.186" x2="1327.771" y2="53.186"/>
		
			<line fill="none" stroke="#9A9A9B" stroke-width="2" stroke-miterlimit="10" x1="1327.771" y1="45.966" x2="1323.872" y2="45.966"/>
		
			<line fill="none" stroke="#9A9A9B" stroke-width="2" stroke-miterlimit="10" x1="1291.082" y1="53.186" x2="1294.972" y2="53.186"/>
		
			<line fill="none" stroke="#9A9A9B" stroke-width="2" stroke-miterlimit="10" x1="1294.972" y1="45.966" x2="1291.082" y2="45.966"/>
		
			<line fill="none" stroke="#9A9A9B" stroke-width="2" stroke-miterlimit="10" x1="1299.271" y1="53.186" x2="1303.172" y2="53.186"/>
		
			<line fill="none" stroke="#9A9A9B" stroke-width="2" stroke-miterlimit="10" x1="1303.172" y1="45.966" x2="1299.271" y2="45.966"/>
		
			<line fill="none" stroke="#9A9A9B" stroke-width="2" stroke-miterlimit="10" x1="1332.071" y1="53.186" x2="1335.972" y2="53.186"/>
		
			<line fill="none" stroke="#9A9A9B" stroke-width="2" stroke-miterlimit="10" x1="1335.972" y1="45.966" x2="1332.071" y2="45.966"/>
		<path fill="none" stroke="#9A9A9B" stroke-width="2" stroke-miterlimit="10" d="M1286.781,45.986
			c-1.59,0.07-2.859,1.37-2.859,2.98v1.21c0,1.61,1.27,2.91,2.859,2.99"/>
		
			<line fill="none" stroke="#9A9A9B" stroke-width="2" stroke-miterlimit="10" x1="1364.861" y1="53.186" x2="1368.762" y2="53.186"/>
		
			<line fill="none" stroke="#9A9A9B" stroke-width="2" stroke-miterlimit="10" x1="1368.762" y1="45.966" x2="1364.861" y2="45.966"/>
		
			<line fill="none" stroke="#9A9A9B" stroke-width="2" stroke-miterlimit="10" x1="1340.271" y1="53.186" x2="1344.162" y2="53.186"/>
		
			<line fill="none" stroke="#9A9A9B" stroke-width="2" stroke-miterlimit="10" x1="1344.162" y1="45.966" x2="1340.271" y2="45.966"/>
		<path fill="none" stroke="#9A9A9B" stroke-width="2" stroke-miterlimit="10" d="M1381.262,53.166c1.59-0.08,2.86-1.38,2.86-2.99
			v-1.21c0-1.61-1.271-2.91-2.86-2.98"/>
		
			<line fill="none" stroke="#9A9A9B" stroke-width="2" stroke-miterlimit="10" x1="1373.062" y1="53.186" x2="1376.962" y2="53.186"/>
		
			<line fill="none" stroke="#9A9A9B" stroke-width="2" stroke-miterlimit="10" x1="1376.962" y1="45.966" x2="1373.062" y2="45.966"/>
		
			<line fill="none" stroke="#9A9A9B" stroke-width="2" stroke-miterlimit="10" x1="1348.472" y1="53.186" x2="1352.361" y2="53.186"/>
		
			<line fill="none" stroke="#9A9A9B" stroke-width="2" stroke-miterlimit="10" x1="1352.361" y1="45.966" x2="1348.472" y2="45.966"/>
		
			<line fill="none" stroke="#9A9A9B" stroke-width="2" stroke-miterlimit="10" x1="1356.662" y1="53.186" x2="1360.562" y2="53.186"/>
		
			<line fill="none" stroke="#9A9A9B" stroke-width="2" stroke-miterlimit="10" x1="1360.562" y1="45.966" x2="1356.662" y2="45.966"/>
		<path fill="none" stroke="#9A9A9B" stroke-width="2" stroke-miterlimit="10" d="M1166.481,115.535c0.62-2.84,5.79-5.06,12.33-5.06
			h30.061c6.54,0,11.729,2.21,12.35,5.05c0.06,0.3,0.07,0.59,0.04,0.89l-1.43,12.601c-0.32,2.83-5.86,5.069-12.37,5.069h-27.13
			c-6.521,0-12.061-2.239-12.4-5.069l-1.49-12.601C1166.401,116.115,1166.422,115.816,1166.481,115.535z"/>
		<path fill="none" stroke="#9A9A9B" stroke-width="2" stroke-miterlimit="10" d="M1206.342,124.615c0,2.59-6.49,4.7-12.49,4.7
			c-5.51,0-12.479-2.11-12.479-4.7c0-2.6,5.58-4.7,12.479-4.7C1200.742,119.915,1206.342,122.016,1206.342,124.615z"/>
		<path fill="none" stroke="#9A9A9B" stroke-width="2" stroke-miterlimit="10" d="M1283.842,86.456h-3.49v15.41h-72.53
			c6.301,0,11.23,2.2,11.53,4.97l1.88,8.69l0.05,0.21"/>
		
			<rect x="849.632" y="44.805" fill="none" stroke="#9A9A9B" stroke-width="2" stroke-miterlimit="10" width="36.86" height="49.99"/>
		<path fill="none" stroke="#9A9A9B" stroke-width="2" stroke-miterlimit="10" d="M953.962,101.865h-0.01h-64.53
			c1.229,0,2.229-2.29,2.229-2.29v-58.21c0-1.27-1-2.3-2.229-2.3"/>
		<path fill="none" stroke="#9A9A9B" stroke-width="2" stroke-miterlimit="10" d="M1166.422,115.736l0.04-0.2l1.89-8.71
			c0.3-2.76,5.22-4.96,11.51-4.96h-76.93c2.44,0,4.42-1.98,4.42-4.42v-51.91c0-2.44-1.979-4.43-4.42-4.43h-30.21
			c-2.44,0-4.42,1.99-4.42,4.43v51.91c0,2.44,1.979,4.42,4.42,4.42h-66.74c1.79,0,3.24-1.45,3.24-3.24v-50.98v-11.62
			c0-1.79-3.24-3.24-3.24-3.24h-52.02c-1.79,0-3.24,1.45-3.24,3.24v11.62v50.98c0,1.79,1.44,3.23,3.23,3.24"/>
		<path fill="none" stroke="#9A9A9B" stroke-width="2" stroke-miterlimit="10" d="M889.422,39.066h-43.01
			c-1.23,0-2.23,1.03-2.23,2.3v58.21c0,1.271,1,2.29,2.23,2.29h-62.38c1.14,0,2.06,0.93,2.06,2.07c0,1.149-0.92,2.069-2.06,2.069"/>
		<path fill="none" stroke="#9A9A9B" stroke-width="2" stroke-miterlimit="10" d="M979.972,53.726c12.46,0,22.57,10.1,22.57,22.57
			c0,12.46-10.11,22.56-22.57,22.56s-22.57-10.1-22.57-22.56C957.401,63.825,967.512,53.726,979.972,53.726z"/>
		<path fill="none" stroke="#9A9A9B" stroke-width="2" stroke-miterlimit="10" d="M979.972,59.406c9.32,0,16.88,7.56,16.88,16.88
			c0,9.33-7.56,16.89-16.88,16.89s-16.88-7.56-16.88-16.89C963.092,66.966,970.651,59.406,979.972,59.406z"/>
		
			<line fill="none" stroke="#9A9A9B" stroke-width="2" stroke-miterlimit="10" x1="951.172" y1="47.646" x2="1009.222" y2="47.646"/>
		<path fill="none" stroke="#9A9A9B" stroke-width="2" stroke-miterlimit="10" d="M964.281,40.615c0,2.28-1.85,4.13-4.13,4.13
			c-2.279,0-4.13-1.85-4.13-4.13c0-2.28,1.851-4.12,4.13-4.12C962.432,36.486,964.281,38.336,964.281,40.615z"/>
		<path fill="none" stroke="#9A9A9B" stroke-width="2" stroke-miterlimit="10" d="M970.901,38.075c1.4,0,2.54,1.14,2.54,2.54
			s-1.14,2.54-2.54,2.54c-1.399,0-2.54-1.14-2.54-2.54S969.502,38.075,970.901,38.075z"/>
		<path fill="none" stroke="#9A9A9B" stroke-width="2" stroke-miterlimit="10" d="M978.651,38.075c1.4,0,2.54,1.14,2.54,2.54
			s-1.14,2.54-2.54,2.54c-1.399,0-2.54-1.14-2.54-2.54S977.252,38.075,978.651,38.075z"/>
		<path fill="none" stroke="#9A9A9B" stroke-width="2" stroke-miterlimit="10" d="M786.332,110.146h-11.42
			c-1.15,0-2.07,0.93-2.07,2.07c0,1.149,0.93,2.069,2.07,2.069h0.66h10.1h0.66c1.14,0,2.07-0.92,2.07-2.069
			C788.402,111.075,787.472,110.146,786.332,110.146z"/>
		<path fill="none" stroke="#9A9A9B" stroke-width="2" stroke-miterlimit="10" d="M774.912,110.146c-1.14,0-2.07-0.92-2.07-2.061
			c0-1.149,0.93-2.069,2.07-2.069h2.3h6.82h2.3c1.14,0,2.07,0.92,2.07,2.069c0,1.141-0.93,2.061-2.07,2.061"/>
		<path fill="none" stroke="#9A9A9B" stroke-width="2" stroke-miterlimit="10" d="M785.672,115.125v1.61c0,3.49,1.82,6.56,4.56,8.32
			c5.36,3.25,8.93,9.14,8.93,15.859c0,10.24-8.3,18.54-18.54,18.54c-10.24,0-18.54-8.3-18.54-18.54c0-6.699,3.54-12.56,8.87-15.819
			c2.77-1.75,4.62-4.841,4.62-8.36v-1.61"/>
		<path fill="none" stroke="#9A9A9B" stroke-width="2" stroke-miterlimit="10" d="M782.452,132.585v-13.54
			c0-0.85-0.69-1.54-1.55-1.54c-0.85,0-1.54,0.69-1.54,1.54v13.54c0,0.851,0.69,1.54,1.54,1.54
			C781.762,134.125,782.452,133.436,782.452,132.585z"/>
		<path fill="none" stroke="#9A9A9B" stroke-width="2" stroke-miterlimit="10" d="M780.902,154.176c7.42,0,13.44-6.011,13.44-13.431
			"/>
		<path fill="none" stroke="#9A9A9B" stroke-width="2" stroke-miterlimit="10" d="M1093.092,63.876l-2.15,5.45v6.07
			c0,0.7-0.56,1.26-1.26,1.26h-3.71c-0.7,0-1.26-0.56-1.26-1.26v-6.07l2.06-5.64l0.74-2.02c0.15-0.68,0.82-1.11,1.5-0.96l3.63,0.37
			c0.68,0.15,1.11,0.83,0.96,1.51L1093.092,63.876z"/>
		<path fill="none" stroke="#9A9A9B" stroke-width="2" stroke-miterlimit="10" d="M1086.771,63.686h-3.55
			c-0.69,0-1.26,0.56-1.26,1.26v13.09c0,0.69,0.56,1.26,1.26,1.26h9.2c0.7,0,1.26-0.56,1.26-1.26v-13.09
			c0-0.45-0.229-0.84-0.59-1.07"/>
		<path fill="none" stroke="#9A9A9B" stroke-width="2" stroke-miterlimit="10" d="M777.242,101.865h-0.03
			c-1.14,0-2.07,0.93-2.07,2.07c0,1.149,0.93,2.069,2.07,2.069"/>
		<path fill="none" stroke="#9A9A9B" stroke-width="2" stroke-miterlimit="10" d="M548.102,61.276v37.2
			c0,1.859-1.5,3.359-3.35,3.359h108.63c-1.4,0-2.54-1.109-2.54-2.52v-60.86c0-1.4,1.14-2.54,2.54-2.54h60.87
			c1.4,0,2.54,1.14,2.54,2.54v60.87c0,1.4-1.14,2.54-2.54,2.54h62.96"/>
		<path fill="none" stroke="#9A9A9B" stroke-width="2" stroke-miterlimit="10" d="M681.342,64.696c0,1.27-1.03,2.31-2.3,2.31h-21.05
			c-1.28,0-2.31-1.04-2.31-2.31v-21.05c0-1.27,1.03-2.3,2.31-2.3h21.05c1.27,0,2.3,1.03,2.3,2.3V64.696z"/>
		<path fill="none" stroke="#9A9A9B" stroke-width="2" stroke-miterlimit="10" d="M711.952,64.696c0,1.27-1.03,2.31-2.31,2.31
			h-21.05c-1.27,0-2.3-1.04-2.3-2.31v-21.05c0-1.27,1.03-2.3,2.3-2.3h21.05c1.28,0,2.31,1.03,2.31,2.3V64.696z"/>
		<path fill="none" stroke="#9A9A9B" stroke-width="2" stroke-miterlimit="10" d="M681.342,95.305c0,1.27-1.03,2.31-2.3,2.31h-21.05
			c-1.28,0-2.31-1.04-2.31-2.31v-21.05c0-1.27,1.03-2.31,2.31-2.31h21.05c1.27,0,2.3,1.04,2.3,2.31V95.305z"/>
		<path fill="none" stroke="#9A9A9B" stroke-width="2" stroke-miterlimit="10" d="M711.952,95.305c0,1.27-1.03,2.31-2.31,2.31
			h-21.05c-1.27,0-2.3-1.04-2.3-2.31v-21.05c0-1.27,1.03-2.31,2.3-2.31h21.05c1.28,0,2.31,1.04,2.31,2.31V95.305z"/>
		<path fill="none" stroke="#9A9A9B" stroke-width="2" stroke-miterlimit="10" d="M542.992,77.305c0-3.04-2.47-5.51-5.51-5.51
			c-3.05,0-5.51,2.47-5.51,5.51c0,1.6,0.68,3.03,1.76,4.03v8.84c0,2.02,1.64,3.67,3.67,3.67h0.06c2.03,0,3.66-1.64,3.66-3.67v-8.74
			C542.271,80.426,542.992,78.956,542.992,77.305z"/>
		<line fill="none" stroke="#9A9A9B" stroke-width="2" stroke-miterlimit="10" x1="537.482" y1="74.776" x2="537.482" y2="79.836"/>
		<path fill="none" stroke="#9A9A9B" stroke-width="2" stroke-miterlimit="10" d="M548.052,61.075c-2.93,0.79-5.81,1.76-8.65,2.88
			c-0.54,0.21-1.1,0.32-1.65,0.32c-1.49,0-2.92-0.76-3.75-2.04c-0.16-0.24-0.3-0.51-0.41-0.79c-0.92-2.31,0.21-4.91,2.51-5.82
			c2.01-0.8,4.05-1.52,6.1-2.17c1.95-0.61,3.91-1.16,5.9-1.64c7.05-1.73,14.3-2.59,21.67-2.59c6.19,0,12.39,0.63,18.42,1.86
			c2.42,0.49,3.98,2.86,3.49,5.29c-0.5,2.42-2.86,3.98-5.29,3.49c-5.44-1.11-11.03-1.68-16.63-1.68
			C562.362,58.186,555.092,59.156,548.052,61.075z"/>
		<path fill="none" stroke="#9A9A9B" stroke-width="2" stroke-miterlimit="10" d="M542.202,53.436c-1.11-1.39-2.83-2.29-4.75-2.29
			c-3.36,0-6.08,2.72-6.08,6.08c0,2.07,1.04,3.91,2.63,5.01c0.01,0.01,0.03,0.02,0.04,0.03"/>
		
			<rect x="64.912" y="60.566" fill="none" stroke="#9A9A9B" stroke-width="2" stroke-linejoin="round" stroke-miterlimit="10" width="19.05" height="19.05"/>
		
			<rect x="36.742" y="60.566" fill="none" stroke="#9A9A9B" stroke-width="2" stroke-linejoin="round" stroke-miterlimit="10" width="19.68" height="41.27"/>
		<path fill="none" stroke="#9A9A9B" stroke-width="2" stroke-linejoin="round" stroke-miterlimit="10" d="M343.212,52.216
			c2.6,1.53,4.34,4.34,4.34,7.58c0,3.23-1.74,6.05-4.34,7.57h-11.39c-2.6-1.52-4.35-4.34-4.35-7.57c0-3.24,1.75-6.05,4.35-7.58
			H343.212z"/>
		<path fill="none" stroke="#9A9A9B" stroke-width="2" stroke-linejoin="round" stroke-miterlimit="10" d="M343.212,75.546
			c2.6,1.53,4.34,4.34,4.34,7.58c0,3.23-1.74,6.05-4.34,7.57h-11.39c-2.6-1.52-4.35-4.34-4.35-7.57c0-3.24,1.75-6.05,4.35-7.58
			H343.212z"/>
		
			<line fill="none" stroke="#9A9A9B" stroke-width="2" stroke-linecap="round" stroke-miterlimit="10" x1="333.771" y1="83.285" x2="333.771" y2="79.486"/>
		
			<line fill="none" stroke="#9A9A9B" stroke-width="2" stroke-linecap="round" stroke-miterlimit="10" x1="341.302" y1="83.285" x2="341.302" y2="79.486"/>
		
			<line fill="none" stroke="#9A9A9B" stroke-width="2" stroke-linecap="round" stroke-miterlimit="10" x1="333.771" y1="59.976" x2="333.771" y2="56.176"/>
		
			<line fill="none" stroke="#9A9A9B" stroke-width="2" stroke-linecap="round" stroke-miterlimit="10" x1="341.302" y1="59.976" x2="341.302" y2="56.176"/>
		<path fill="none" stroke="#9A9A9B" stroke-width="2" stroke-miterlimit="10" d="M247.352,140.705v-23.819
			c0-5.551-2.25-11.41-5.88-15.051h-62.46c1.05,0,1.89-0.869,1.89-1.95v-49.37c0-1.08-0.84-1.95-1.89-1.95h-23.69
			c-1.05,0-1.89,0.87-1.89,1.95v49.37c0,1.081,0.84,1.95,1.89,1.95h-61.99V55.376c0-0.77-0.31-1.52-0.86-2.07l-4.96-4.96
			c0.01-0.07,0.02-0.15,0.02-0.22v-11.57c0-1.16-0.94-2.1-2.1-2.1h-6.12c-1.16,0-2.1,0.94-2.1,2.1v1.5l-14.38-14.37
			c-1.14-1.14-3-1.14-4.15,0l-29.63,29.62c-0.55,0.54-0.86,2.07-0.86,2.07v46.459H0.512h-0.51"/>
		<path fill="none" stroke="#9A9A9B" stroke-width="2" stroke-miterlimit="10" d="M169.302,98.426c0,1.18-0.96,2.13-2.13,2.13
			c-1.18,0-2.14-0.95-2.14-2.13s0.96-2.13,2.14-2.13C168.342,96.296,169.302,97.245,169.302,98.426z"/>
		
			<line fill="none" stroke="#9A9A9B" stroke-width="2" stroke-linecap="round" stroke-miterlimit="10" x1="164.322" y1="52.376" x2="170.012" y2="52.376"/>
		
			<rect x="156.932" y="56.276" fill="none" stroke="#9A9A9B" stroke-width="2" stroke-miterlimit="10" width="20.47" height="36.6"/>
		<path fill="none" stroke="#9A9A9B" stroke-width="2" stroke-linejoin="bevel" stroke-miterlimit="10" d="M548.102,51.805v-7.44
			c0-1.85-1.5-3.36-3.35-3.36h-14.6c-1.86,0-3.36,1.51-3.36,3.36v54.11c0,1.859,1.5,3.359,3.36,3.359l-82.85-0.02
			c11.67-2.47,20.43-12.82,20.43-25.22c0-14.24-11.55-25.79-25.8-25.79s-25.8,11.55-25.8,25.79c0,12.4,8.76,22.75,20.44,25.22
			l-83.96,0.02c2.45,0,4.43-1.979,4.43-4.43v-51.9c0-2.44-1.98-4.43-4.43-4.43h-30.2c-2.44,0-4.43,1.98-4.43,4.43v51.9
			c0,2.45,1.99,4.43,4.43,4.43h-64.99c-3.64,3.641-5.89,9.5-5.89,15.051v23.819"/>
		<path fill="none" stroke="#9A9A9B" stroke-width="2" stroke-linejoin="bevel" stroke-miterlimit="10" d="M457.952,91.966
			c-4.03,4.21-9.72,6.83-16.02,6.83c-6.3,0-11.98-2.62-16.03-6.83c-3.82-3.99-6.18-9.4-6.18-15.37c0-12.26,9.94-22.2,22.21-22.2
			s22.22,9.94,22.22,22.2C464.152,82.566,461.792,87.976,457.952,91.966z"/>
		<path fill="none" stroke="#9A9A9B" stroke-width="2" stroke-linejoin="bevel" stroke-miterlimit="10" d="M441.932,62.635
			c7.61,0,13.77,6.16,13.77,13.76c0,7.61-6.16,13.77-13.77,13.77c-7.6,0-13.76-6.16-13.76-13.77
			C428.172,68.796,434.332,62.635,441.932,62.635z"/>
		<path fill="none" stroke="#9A9A9B" stroke-width="2" stroke-miterlimit="10" d="M247.352,140.716
			c-1.24,0.149-2.37,0.46-3.36,0.869c-0.69-0.09-1.41-0.33-2.11-0.729c-1.04-0.601-1.5-1.21-2.22-2.311
			c-3.04-4.43-8.12-9.02-14.53-12.72c-6.41-3.7-16.92-7.62-20.55-6.83c-0.47,0.13-0.9,0.44-1.16,0.891l-0.85,1.47l-0.84,1.47
			c-0.27,0.46-0.32,0.98-0.2,1.45c0.13,0.479,0.44,0.9,0.9,1.17l38.13,20.86c0.48,1.72,2.55,3.149,5.35,3.8
			c0.26,0.22,0.47,0.47,0.61,0.75c0.16,0.28,0.24,0.6,0.24,0.93c0,0.34-0.07,0.601-0.22,0.87c-0.14,0.26-0.36,0.521-0.66,0.85
			c-1.14,1.341-2.06,2.95-2.7,4.73s-0.99,3.74-0.99,5.8c0,2.061,0.45,4.63,1.22,6.87s1.84,4.16,3.07,4.93
			c0.17,0.091,0.38,0.17,0.6,0.23c0.23,0.05,0.48,0.08,0.74,0.08h0.83h0.84h0.83h0.84c0.26,0,0.51-0.03,0.73-0.08
			c0.23-0.061,0.43-0.14,0.6-0.23c0.17-0.1,0.31-0.21,0.4-0.34c0.1-0.13,0.15-0.27,0.15-0.41v-25.029c2.77-0.7,4.79-2.16,5.18-3.9
			c0.34-0.32,0.72-0.62,1.16-0.87c0.52-0.3,0.97-0.479,1.45-0.58c0.48-0.109,1-0.149,1.66-0.189c2.68-0.2,5.65-0.84,8.75-1.88
			s6.33-2.49,9.53-4.341c3.21-1.85,6.97-4.56,10.07-7.25c3.11-2.689,5.55-5.359,6.12-7.13c0.06-0.239,0.08-0.489,0.05-0.739
			s-0.11-0.49-0.24-0.721l-0.43-0.729l-0.42-0.74l-0.43-0.73l-0.42-0.729c-0.13-0.23-0.3-0.42-0.5-0.58
			c-0.2-0.14-0.43-0.25-0.66-0.32c-0.24-0.06-0.49-0.08-0.73-0.05c-0.25,0.03-0.49,0.11-0.72,0.24l-20.02,11.56l-17.97,11.101
			c-0.88-0.34-1.87-0.601-2.94-0.75c-0.69-0.09-1.41-0.141-2.16-0.141C248.672,140.585,248.002,140.625,247.352,140.716z"/>
	</g>
</g>
</svg>
