<?xml version="1.0" encoding="UTF-8" standalone="no"?>
<!-- Created with Inkscape (http://www.inkscape.org/) -->

<svg
   xmlns:dc="http://purl.org/dc/elements/1.1/"
   xmlns:cc="http://creativecommons.org/ns#"
   xmlns:rdf="http://www.w3.org/1999/02/22-rdf-syntax-ns#"
   xmlns:svg="http://www.w3.org/2000/svg"
   xmlns="http://www.w3.org/2000/svg"
   version="1.1"
   width="100"
   height="100"
   viewBox="0 0 100 100"
   id="Capa_1"
   xml:space="preserve"><metadata
     id="metadata21"><rdf:RDF><cc:Work
         rdf:about=""><dc:format>image/svg+xml</dc:format><dc:type
           rdf:resource="http://purl.org/dc/dcmitype/StillImage" /><dc:title></dc:title></cc:Work></rdf:RDF></metadata><defs
     id="defs19" /><path
     d="M 41.346253,74.20585"
     id="path3"
     style="fill:none" /><path
     d="M 59.463372,74.080846 C 59.693749,69.069377 64.607076,64.867841 67.735243,61.442149 71.80351,56.986476 75.437885,50.98015 75.367635,44.639106 L 75.367635,44.639106 C 75.367635,31.16878 64.300252,20.268755 50.626408,20.268755 36.675699,20.268755 25.389304,31.044811 25.389304,44.514104 L 25.389304,44.514104 C 25.389304,50.653697 28.397633,56.294311 32.133248,60.532005 35.428772,64.269688 40.976411,68.676806 41.22435,74.080846"
     id="path5"
     style="fill:none;stroke:#ffffff;stroke-width:3.09923935;stroke-linecap:round;stroke-linejoin:bevel;stroke-miterlimit:10;stroke-opacity:1" /><line
     style="fill:none;stroke:#ffffff;stroke-width:3.09923935;stroke-linecap:round;stroke-linejoin:round;stroke-miterlimit:10;stroke-opacity:1"
     x1="40.60347"
     y1="78.720406"
     x2="60.150368"
     y2="77.48381"
     id="line7" /><line
     style="fill:none;stroke:#ffffff;stroke-width:3.09923935;stroke-linecap:round;stroke-linejoin:round;stroke-miterlimit:10;stroke-opacity:1"
     x1="40.849339"
     y1="83.912666"
     x2="60.397278"
     y2="82.674004"
     id="line9" /><line
     style="fill:none;stroke:#ffffff;stroke-width:3.09923935;stroke-linecap:round;stroke-linejoin:round;stroke-miterlimit:10;stroke-opacity:1"
     x1="40.849339"
     y1="88.786743"
     x2="60.397278"
     y2="87.550133"
     id="line11" /><path
     d="M 55.214316,92.822979 C 55.214316,95.543078 53.000425,97.742505 50.266896,97.742505 47.618081,97.742505 45.472375,95.543078 45.472375,92.822979"
     id="path13"
     style="fill:none;stroke:#ffffff;stroke-width:3.09923935;stroke-linecap:round;stroke-linejoin:round;stroke-miterlimit:10;stroke-opacity:1" /><path
     d="M 47.980691,74.20585 C 48.01065,65.298635 36.691196,48.412947 36.691196,48.412947 L 36.585822,48.527618 C 36.955664,52.238442 41.152034,54.734362 44.420698,53.235363 47.570559,51.792151 48.728641,47.094738 46.385616,44.375671 L 46.436237,44.24447 C 42.544626,47.567887 45.463076,54.019471 50.34851,54.040132 55.111008,54.060794 58.147229,47.884011 54.533517,44.43869 L 54.640956,44.380836 C 52.460125,47.039985 53.412624,51.607229 56.357935,53.144451 59.523291,54.79738 63.723793,52.327286 64.191779,48.624728 L 64.138059,48.286911 C 64.138059,48.286911 52.818604,65.173633 52.850629,74.079812"
     id="path15"
     style="fill:none;stroke:#f2e500;stroke-width:2.06615949;stroke-linecap:round;stroke-linejoin:round;stroke-miterlimit:10" /><g
     transform="matrix(1.7041206,0,0,1.7041206,-195.9183,-6.3547852)"
     id="g4212"
     style="fill:#f2e500;fill-opacity:1;stroke:#f2e500;stroke-width:1.41993713;stroke-miterlimit:4;stroke-opacity:1;stroke-dasharray:none"><path
       d="M 145,5 145,12"
       id="path3778-88"
       style="fill:#f2e500;fill-opacity:1;stroke:#f2e500;stroke-width:1.41993713;stroke-linecap:round;stroke-linejoin:miter;stroke-miterlimit:4;stroke-opacity:1;stroke-dasharray:none;marker-start:none" /><path
       d="M 163.26096,13 158.19258,17.807421"
       id="path3778-88-2-8"
       style="fill:#f2e500;fill-opacity:1;stroke:#f2e500;stroke-width:1.41993713;stroke-linecap:round;stroke-linejoin:miter;stroke-miterlimit:4;stroke-opacity:1;stroke-dasharray:none;marker-start:none" /><path
       d="M 163,30 170,30"
       id="path3778-88-27"
       style="fill:#f2e500;fill-opacity:1;stroke:#f2e500;stroke-width:1.41993713;stroke-linecap:round;stroke-linejoin:miter;stroke-miterlimit:4;stroke-opacity:1;stroke-dasharray:none;marker-start:none" /><path
       d="M 126.73904,13 131.80742,17.807421"
       id="path3778-88-2-8-3"
       style="fill:#f2e500;fill-opacity:1;stroke:#f2e500;stroke-width:1.41993713;stroke-linecap:round;stroke-linejoin:miter;stroke-miterlimit:4;stroke-opacity:1;stroke-dasharray:none;marker-start:none" /><path
       d="M 127,30 120,30"
       id="path3778-88-27-3"
       style="fill:#f2e500;fill-opacity:1;stroke:#f2e500;stroke-width:1.41993713;stroke-linecap:round;stroke-linejoin:miter;stroke-miterlimit:4;stroke-opacity:1;stroke-dasharray:none;marker-start:none" /><path
       d="M 163,48 157.93162,43.192579"
       id="path3778-88-2-8-1"
       style="fill:#f2e500;fill-opacity:1;stroke:#f2e500;stroke-width:1.41993713;stroke-linecap:round;stroke-linejoin:miter;stroke-miterlimit:4;stroke-opacity:1;stroke-dasharray:none;marker-start:none" /><path
       d="M 126.47808,48 131.54646,43.192579"
       id="path3778-88-2-8-3-3"
       style="fill:#f2e500;fill-opacity:1;stroke:#f2e500;stroke-width:1.41993713;stroke-linecap:round;stroke-linejoin:miter;stroke-miterlimit:4;stroke-opacity:1;stroke-dasharray:none;marker-start:none" /></g></svg>