<?xml version="1.0" encoding="UTF-8" standalone="no"?>
<!-- Generator: Adobe Illustrator 15.1.0, SVG Export Plug-In . SVG Version: 6.00 Build 0)  -->

<svg
   xmlns:dc="http://purl.org/dc/elements/1.1/"
   xmlns:cc="http://creativecommons.org/ns#"
   xmlns:rdf="http://www.w3.org/1999/02/22-rdf-syntax-ns#"
   xmlns:svg="http://www.w3.org/2000/svg"
   xmlns="http://www.w3.org/2000/svg"
   xmlns:sodipodi="http://sodipodi.sourceforge.net/DTD/sodipodi-0.dtd"
   xmlns:inkscape="http://www.inkscape.org/namespaces/inkscape"
   version="1.1"
   id="Capa_1"
   x="0px"
   y="0px"
   width="100"
   height="100"
   viewBox="0 0 100 100"
   xml:space="preserve"
   inkscape:version="0.48.5 r10040"
   sodipodi:docname="camera.svg"><metadata
     id="metadata21"><rdf:RDF><cc:Work
         rdf:about=""><dc:format>image/svg+xml</dc:format><dc:type
           rdf:resource="http://purl.org/dc/dcmitype/StillImage" /><dc:title></dc:title></cc:Work></rdf:RDF></metadata><defs
     id="defs19" /><sodipodi:namedview
     pagecolor="#ffffff"
     bordercolor="#666666"
     borderopacity="1"
     objecttolerance="10"
     gridtolerance="10"
     guidetolerance="10"
     inkscape:pageopacity="0"
     inkscape:pageshadow="2"
     inkscape:window-width="1920"
     inkscape:window-height="1014"
     id="namedview17"
     showgrid="false"
     fit-margin-top="0"
     fit-margin-left="0"
     fit-margin-right="0"
     fit-margin-bottom="0"
     inkscape:zoom="5.636766"
     inkscape:cx="-1.2679055"
     inkscape:cy="57.295782"
     inkscape:window-x="0"
     inkscape:window-y="27"
     inkscape:window-maximized="1"
     inkscape:current-layer="Capa_1"><inkscape:grid
       type="xygrid"
       id="grid3776"
       empspacing="5"
       visible="true"
       enabled="true"
       snapvisiblegridlinesonly="true" /></sodipodi:namedview><path
     inkscape:connector-curvature="0"
     id="path270"
     style="fill:#ffffff;fill-opacity:1;fill-rule:nonzero;stroke:none"
     d="M 94.075182,63.565268 89.688235,61.343499 89.688235,33.379123 94.075182,31.157354 z M 85.30359,59.12151 76.528929,54.754523 76.528929,39.967879 85.30359,35.524341 z M 72.141982,34.221856 6.3370061,34.221856 6.3370061,25.411112 C 6.3370061,23.036238 8.302929,21.044125 10.724722,21.044125 L 67.754266,21.044125 C 70.175291,21.044125 72.141982,23.036238 72.141982,25.411112 z M 72.141982,69.311291 C 72.141982,71.686385 70.175291,73.678277 67.754266,73.678277 L 10.724722,73.678277 C 8.302929,73.678277 6.3370061,71.686385 6.3370061,69.311291 L 6.3370061,38.588843 72.141982,38.588843 z M 96.269422,25.411112 C 95.916229,25.411112 95.592913,25.487883 95.29949,25.640988 L 95.290278,25.640988 76.528929,34.988036 76.528929,25.411112 C 76.528929,20.584373 72.599365,16.600587 67.754266,16.600587 L 10.724722,16.600587 C 5.8788338,16.600587 1.9492928,20.584373 1.9492928,25.411112 L 1.9492928,69.311291 C 1.9492928,74.138029 5.8788338,78.045264 10.724722,78.045264 L 67.754266,78.045264 C 72.599365,78.045264 76.528929,74.138029 76.528929,69.311291 L 76.528929,59.657814 95.290278,69.004863 95.29949,69.004863 C 95.592913,69.158186 95.916229,69.311291 96.269422,69.311291 97.48147,69.311291 98.462895,68.315235 98.462895,67.089522 L 98.462895,27.6331 C 98.462895,26.407168 97.48147,25.411112 96.269422,25.411112 z M 56.786132,25.411112 C 55.576387,25.411112 54.59496,26.407168 54.59496,27.6331 54.59496,28.782261 55.576387,29.778318 56.786132,29.778318 57.998179,29.778318 58.979605,28.782261 58.979605,27.6331 58.979605,26.407168 57.998179,25.411112 56.786132,25.411112 z M 65.560792,25.411112 C 64.351816,25.411112 63.366552,26.407168 63.366552,27.6331 63.366552,28.782261 64.351816,29.778318 65.560792,29.778318 66.77284,29.778318 67.754266,28.782261 67.754266,27.6331 67.754266,26.407168 66.77284,25.411112 65.560792,25.411112 z"
     sodipodi:nodetypes="ccccccccccccsssscssssccsscccsssssssscccssssssssssssss" /><path
     inkscape:connector-curvature="0"
     id="path270-9"
     style="fill:#2a8fbd;fill-opacity:1;fill-rule:nonzero;stroke:none"
     d="M 26.508341,49.030961 C 30.144462,49.030961 33.088762,52.018911 33.088762,55.619716 33.088762,59.297294 30.144462,62.208472 26.508341,62.208472 22.874501,62.208472 19.930223,59.297294 19.930223,55.619716 19.930223,52.018911 22.874501,49.030961 26.508341,49.030961 z M 52.832326,49.030961 C 56.465376,49.030961 59.410444,52.018911 59.410444,55.619716 59.410444,59.297294 56.465376,62.208472 52.832326,62.208472 49.196184,62.208472 46.251138,59.297294 46.251138,55.619716 46.251138,52.018911 49.196184,49.030961 52.832326,49.030961 z M 26.508341,66.575678 52.832326,66.575678 C 58.889471,66.575678 63.797391,61.672169 63.797391,55.619716 63.797391,49.567265 58.889471,44.663755 52.832326,44.663755 46.77518,44.663755 41.864191,49.567265 41.864191,55.619716 41.864191,58.147915 42.719974,60.369903 44.105154,62.208472 L 35.231675,62.208472 C 36.620693,60.369903 37.476475,58.147915 37.476475,55.619716 37.476475,49.567265 32.565486,44.663755 26.508341,44.663755 20.453497,44.663755 15.542508,49.567265 15.542508,55.619716 15.542508,61.672169 20.453497,66.575678 26.508341,66.575678"
     sodipodi:nodetypes="sssssssssscssssccsssc" /></svg>