<?xml version="1.0" encoding="UTF-8" standalone="no"?>
<!-- Generator: Adobe Illustrator 15.1.0, SVG Export Plug-In . SVG Version: 6.00 Build 0)  -->

<svg
   xmlns:dc="http://purl.org/dc/elements/1.1/"
   xmlns:cc="http://creativecommons.org/ns#"
   xmlns:rdf="http://www.w3.org/1999/02/22-rdf-syntax-ns#"
   xmlns:svg="http://www.w3.org/2000/svg"
   xmlns="http://www.w3.org/2000/svg"
   xmlns:sodipodi="http://sodipodi.sourceforge.net/DTD/sodipodi-0.dtd"
   xmlns:inkscape="http://www.inkscape.org/namespaces/inkscape"
   version="1.1"
   id="Capa_1"
   x="0px"
   y="0px"
   width="100"
   height="100"
   viewBox="0 0 100 100"
   xml:space="preserve"
   inkscape:version="0.48.5 r10040"
   sodipodi:docname="drops.svg"><metadata
     id="metadata21"><rdf:RDF><cc:Work
         rdf:about=""><dc:format>image/svg+xml</dc:format><dc:type
           rdf:resource="http://purl.org/dc/dcmitype/StillImage" /><dc:title></dc:title></cc:Work></rdf:RDF></metadata><defs
     id="defs19" /><sodipodi:namedview
     pagecolor="#ffffff"
     bordercolor="#666666"
     borderopacity="1"
     objecttolerance="10"
     gridtolerance="10"
     guidetolerance="10"
     inkscape:pageopacity="0"
     inkscape:pageshadow="2"
     inkscape:window-width="1920"
     inkscape:window-height="1014"
     id="namedview17"
     showgrid="false"
     fit-margin-top="0"
     fit-margin-left="0"
     fit-margin-right="0"
     fit-margin-bottom="0"
     inkscape:zoom="3.9857955"
     inkscape:cx="45.829343"
     inkscape:cy="73.508477"
     inkscape:window-x="0"
     inkscape:window-y="27"
     inkscape:window-maximized="1"
     inkscape:current-layer="Capa_1"><inkscape:grid
       type="xygrid"
       id="grid3776"
       empspacing="5"
       visible="true"
       enabled="true"
       snapvisiblegridlinesonly="true" /></sodipodi:namedview><path
     inkscape:connector-curvature="0"
     id="path736"
     style="fill:#2a8fbd;fill-opacity:1;fill-rule:nonzero;stroke:none"
     d="M 38.322788,63.094454 C 29.176519,63.094454 21.761184,55.394019 21.761184,45.896656 21.761184,34.709637 37.137156,16.235315 38.322788,16.235315 39.504281,16.235315 54.880253,34.709637 54.880253,45.896656 54.880253,55.394019 47.464916,63.094454 38.322788,63.094454 z M 38.322788,13.42206 C 35.955662,13.42206 19.398198,33.523945 19.398198,46.536989 19.398198,56.992841 27.871087,65.45744 38.322788,65.45744 48.774477,65.45744 57.243251,56.992841 57.243251,46.536989 57.243251,33.523945 40.685775,13.42206 38.322788,13.42206 z M 38.322788,58.36434 C 31.787384,58.36434 26.495436,53.064149 26.495436,46.536989 26.495436,45.884237 25.966647,45.355436 25.309804,45.355436 24.657088,45.355436 24.128311,45.884237 24.128311,46.536989 24.128311,54.377813 30.481952,60.727328 38.322788,60.727328 38.975504,60.727328 39.504281,60.198526 39.504281,59.545775 39.504281,58.897281 38.975504,58.36434 38.322788,58.36434" /><path
     inkscape:connector-curvature="0"
     id="path736-9"
     style="fill:#2a8fbd;fill-opacity:1;fill-rule:nonzero;stroke:none"
     d="M 75.897924,60.792831 C 70.601874,60.792831 66.308105,56.333976 66.308105,50.834631 66.308105,44.356907 75.211397,33.659549 75.897924,33.659549 76.582055,33.659549 85.485346,44.356907 85.485346,50.834631 85.485346,56.333976 81.191574,60.792831 75.897924,60.792831 z M 75.897924,32.030565 C 74.527264,32.030565 64.939843,43.670345 64.939843,51.205409 64.939843,57.259757 69.845978,62.161093 75.897924,62.161093 81.949863,62.161093 86.853615,57.259757 86.853615,51.205409 86.853615,43.670345 77.266186,32.030565 75.897924,32.030565 z M 75.897924,58.053909 C 72.113668,58.053909 69.049423,54.984891 69.049423,51.205409 69.049423,50.82744 68.743232,50.521243 68.362894,50.521243 67.984947,50.521243 67.678764,50.82744 67.678764,51.205409 67.678764,55.745554 71.357771,59.422172 75.897924,59.422172 76.275872,59.422172 76.582055,59.115975 76.582055,58.738007 76.582055,58.362503 76.275872,58.053909 75.897924,58.053909" /><path
     inkscape:connector-curvature="0"
     id="path736-9-3"
     style="fill:#2a8fbd;fill-opacity:1;fill-rule:nonzero;stroke:none"
     d="M 55.516354,88.505129 C 50.793593,88.505129 46.964618,84.528938 46.964618,79.624888 46.964618,73.848368 54.904142,64.308982 55.516354,64.308982 56.126429,64.308982 64.065953,73.848368 64.065953,79.624888 64.065953,84.528938 60.236975,88.505129 55.516354,88.505129 z M 55.516354,62.856333 C 54.294066,62.856333 45.744468,73.236125 45.744468,79.95553 45.744468,85.354505 50.119522,89.725279 55.516354,89.725279 60.91318,89.725279 65.286109,85.354505 65.286109,79.95553 65.286109,73.236125 56.736504,62.856333 55.516354,62.856333 z M 55.516354,86.062691 C 52.141738,86.062691 49.409192,83.325889 49.409192,79.95553 49.409192,79.618476 49.136146,79.345424 48.796979,79.345424 48.459944,79.345424 48.186905,79.618476 48.186905,79.95553 48.186905,84.004212 51.467665,87.282842 55.516354,87.282842 55.85339,87.282842 56.126429,87.00979 56.126429,86.672736 56.126429,86.33788 55.85339,86.062691 55.516354,86.062691" /><path
     inkscape:connector-curvature="0"
     id="path104"
     style="fill:#ffffff;fill-opacity:1;fill-rule:nonzero;stroke:none"
     d="M 82.813687,78.349056 22.739951,18.264126 C 30.292418,11.422813 40.279138,7.2584981 51.270645,7.2584981 74.787751,7.2584981 93.852041,26.295335 93.852041,49.793907 93.852041,60.799535 89.65131,70.764084 82.813687,78.349056 z M 51.270645,92.403405 C 27.75361,92.403405 8.6895456,73.292266 8.6895456,49.793907 8.6895456,38.788279 12.892731,28.82373 19.727678,21.238758 L 79.801266,81.323475 C 72.246046,88.164789 62.262152,92.403405 51.270645,92.403405 z M 51.270645,2.9455795 C 25.40361,2.9455795 4.4340094,23.915757 4.4340094,49.793907 4.4340094,75.671844 25.40361,96.642235 51.270645,96.642235 77.137605,96.642235 98.107057,75.671844 98.107057,49.793907 98.107057,23.915757 77.137605,2.9455795 51.270645,2.9455795" /></svg>