<?xml version="1.0" encoding="UTF-8" standalone="no"?>
<!-- Generator: Adobe Illustrator 15.1.0, SVG Export Plug-In . SVG Version: 6.00 Build 0)  -->

<svg
   xmlns:dc="http://purl.org/dc/elements/1.1/"
   xmlns:cc="http://creativecommons.org/ns#"
   xmlns:rdf="http://www.w3.org/1999/02/22-rdf-syntax-ns#"
   xmlns:svg="http://www.w3.org/2000/svg"
   xmlns="http://www.w3.org/2000/svg"
   xmlns:sodipodi="http://sodipodi.sourceforge.net/DTD/sodipodi-0.dtd"
   xmlns:inkscape="http://www.inkscape.org/namespaces/inkscape"
   version="1.1"
   id="Capa_1"
   x="0px"
   y="0px"
   width="100"
   height="100"
   viewBox="0 0 100 100"
   xml:space="preserve"
   inkscape:version="0.48.5 r10040"
   sodipodi:docname="guard.svg"><metadata
     id="metadata21"><rdf:RDF><cc:Work
         rdf:about=""><dc:format>image/svg+xml</dc:format><dc:type
           rdf:resource="http://purl.org/dc/dcmitype/StillImage" /><dc:title /></cc:Work></rdf:RDF></metadata><defs
     id="defs19" /><sodipodi:namedview
     pagecolor="#ffffff"
     bordercolor="#666666"
     borderopacity="1"
     objecttolerance="10"
     gridtolerance="10"
     guidetolerance="10"
     inkscape:pageopacity="0"
     inkscape:pageshadow="2"
     inkscape:window-width="1920"
     inkscape:window-height="1014"
     id="namedview17"
     showgrid="false"
     fit-margin-top="0"
     fit-margin-left="0"
     fit-margin-right="0"
     fit-margin-bottom="0"
     inkscape:zoom="3.9857955"
     inkscape:cx="28.294421"
     inkscape:cy="59.255373"
     inkscape:window-x="0"
     inkscape:window-y="27"
     inkscape:window-maximized="1"
     inkscape:current-layer="Capa_1"><inkscape:grid
       type="xygrid"
       id="grid3776"
       empspacing="5"
       visible="true"
       enabled="true"
       snapvisiblegridlinesonly="true" /></sodipodi:namedview><path
     d="M 50.936858,92.87395 C 46.56381,91.902163 8.1333076,78.895146 8.1333076,56.544008 8.1333076,35.613175 13.978991,15.728886 15.96742,8.1788357 21.387003,10.496178 35.388247,15.878392 50.936858,15.878392 66.492952,15.878392 80.494181,10.496178 85.913778,8.1788357 87.902208,15.728886 93.740406,35.613175 93.740406,56.544008 93.740406,78.895146 55.317374,91.902163 50.936858,92.87395 z M 89.382302,4.5906931 C 89.202905,3.9179164 88.76934,3.4693985 88.186271,3.1703866 87.603183,2.9461277 86.937895,2.9461277 86.369772,3.2451395 86.197839,3.3198926 69.483071,11.542719 50.936858,11.542719 32.435506,11.542719 15.683359,3.3198926 15.511426,3.2451395 14.943304,2.9461277 14.278003,2.9461277 13.694929,3.1703866 13.111857,3.4693985 12.670815,3.9179164 12.498883,4.5906931 12.409179,4.889705 3.8574392,30.828985 3.8574392,56.544008 3.8574392,83.679336 48.626991,96.761107 50.540669,97.134871 50.667745,97.134871 50.802303,97.134871 50.936858,97.134871 51.071417,97.134871 51.205973,97.134871 51.340531,97.134871 53.246726,96.761107 98.023758,83.679336 98.023758,56.544008 98.023758,30.828985 89.464539,4.889705 89.382302,4.5906931"
     style="fill:#2a8fbd;fill-opacity:1;fill-rule:nonzero;stroke:none"
     id="path232"
     inkscape:connector-curvature="0"
     sodipodi:nodetypes="cscscsccccscccscscsc" /><path
     d="M 49.345246,48.136591 C 49.345246,48.855279 48.76985,49.43921 48.059249,49.43921 47.348657,49.43921 46.773251,48.855279 46.773251,48.136591 46.773251,47.417907 47.348657,46.833976 48.059249,46.833976 48.76985,46.833976 49.345246,47.417907 49.345246,48.136591 z M 75.064307,75.132218 69.921665,75.132218 69.921665,71.269284 C 69.921665,70.595515 69.344478,70.011585 68.635667,70.011585 L 64.777231,70.011585 64.777231,66.148649 C 64.777231,65.429963 64.201381,64.846032 63.49078,64.846032 L 58.883554,64.846032 54.716077,60.668672 C 54.482953,60.399166 54.161792,60.264411 53.80559,60.264411 53.421098,60.264411 53.084207,60.444083 52.849292,60.713589 L 52.051099,61.52211 C 51.047188,62.510304 49.420709,62.510304 48.41725,61.52211 L 37.207105,50.292648 C 36.204981,49.304456 36.204981,47.687414 37.207105,46.69922 L 46.599425,37.311391 C 47.602884,36.27828 49.231164,36.27828 50.233275,37.311391 L 51.861553,38.928433 C 51.699847,41.08449 51.066499,43.060876 50.050909,44.857589 49.468322,44.498248 48.79096,44.273659 48.059249,44.273659 45.927455,44.273659 44.200813,46.025454 44.200813,48.136591 44.200813,50.292648 45.927455,51.999526 48.059249,51.999526 50.189262,51.999526 51.917694,50.292648 51.917694,48.136591 51.917694,47.732332 51.838642,47.37299 51.726348,47.013646 52.872203,45.261851 53.709018,43.285464 54.140681,41.219245 L 61.441631,48.495935 C 62.443299,49.484129 62.443299,51.146088 61.441631,52.134282 L 60.683416,52.897883 C 60.413459,53.122473 60.236031,53.481816 60.236031,53.841158 60.236031,54.200501 60.380218,54.514926 60.613345,54.739516 L 75.064307,69.24798 75.064307,75.132218 z M 35.050599,51.73002 C 28.542893,50.427404 23.624836,44.722836 23.624836,37.850405 23.624836,30.034699 29.958705,23.701284 37.77217,23.701284 44.657176,23.701284 50.38779,28.642247 51.652675,35.155335 49.633177,33.493374 46.665905,33.583211 44.7816,35.46976 L 35.39287,44.857589 C 33.515302,46.744139 33.416929,49.708717 35.050599,51.73002 z M 77.261245,67.81061 63.340309,53.841158 C 65.256054,51.819857 65.233143,48.675606 63.257655,46.69922 L 54.486553,37.895323 C 54.486553,37.895323 54.489692,37.850405 54.489692,37.850405 54.489692,28.597329 47.004585,21.140966 37.77217,21.140966 28.537503,21.140966 21.052398,28.597329 21.052398,37.850405 21.052398,47.103482 28.537503,54.559846 37.77217,54.559846 37.791481,54.559846 37.809002,54.559846 37.828314,54.559846 L 46.599425,63.318824 C 48.587485,65.340128 51.79462,65.340128 53.80559,63.40866 L 57.43765,67.047007 C 57.670776,67.271595 57.991936,67.451266 58.346337,67.451266 L 62.204782,67.451266 62.204782,71.269284 C 62.204782,71.987969 62.780179,72.571901 63.49078,72.571901 L 67.349226,72.571901 67.349226,76.434835 C 67.349226,77.153522 67.925065,77.737454 68.635667,77.737454 L 76.350305,77.737454 C 77.060907,77.737454 77.636758,77.153522 77.636758,76.434835 L 77.636758,68.708966 C 77.636758,68.349624 77.492571,68.035198 77.261245,67.81061"
     style="fill:#ffffff;fill-opacity:1;fill-rule:nonzero;stroke:none"
     id="path206"
     inkscape:connector-curvature="0" /></svg>