<?xml version="1.0" encoding="UTF-8" standalone="no"?>
<!-- Generator: Adobe Illustrator 15.1.0, SVG Export Plug-In . SVG Version: 6.00 Build 0)  -->

<svg
   xmlns:dc="http://purl.org/dc/elements/1.1/"
   xmlns:cc="http://creativecommons.org/ns#"
   xmlns:rdf="http://www.w3.org/1999/02/22-rdf-syntax-ns#"
   xmlns:svg="http://www.w3.org/2000/svg"
   xmlns="http://www.w3.org/2000/svg"
   xmlns:sodipodi="http://sodipodi.sourceforge.net/DTD/sodipodi-0.dtd"
   xmlns:inkscape="http://www.inkscape.org/namespaces/inkscape"
   version="1.1"
   id="Capa_1"
   x="0px"
   y="0px"
   width="100"
   height="100"
   viewBox="0 0 100 100"
   xml:space="preserve"
   inkscape:version="0.48.5 r10040"
   sodipodi:docname="multimedia.svg"><metadata
     id="metadata21"><rdf:RDF><cc:Work
         rdf:about=""><dc:format>image/svg+xml</dc:format><dc:type
           rdf:resource="http://purl.org/dc/dcmitype/StillImage" /><dc:title></dc:title></cc:Work></rdf:RDF></metadata><defs
     id="defs19" /><sodipodi:namedview
     pagecolor="#ffffff"
     bordercolor="#666666"
     borderopacity="1"
     objecttolerance="10"
     gridtolerance="10"
     guidetolerance="10"
     inkscape:pageopacity="0"
     inkscape:pageshadow="2"
     inkscape:window-width="1920"
     inkscape:window-height="1014"
     id="namedview17"
     showgrid="false"
     fit-margin-top="0"
     fit-margin-left="0"
     fit-margin-right="0"
     fit-margin-bottom="0"
     inkscape:zoom="3.9857955"
     inkscape:cx="72.074891"
     inkscape:cy="59.255373"
     inkscape:window-x="0"
     inkscape:window-y="27"
     inkscape:window-maximized="1"
     inkscape:current-layer="Capa_1"><inkscape:grid
       type="xygrid"
       id="grid3776"
       empspacing="5"
       visible="true"
       enabled="true"
       snapvisiblegridlinesonly="true" /></sodipodi:namedview><path
     d="M 83.363718,79.636187 79.69676,79.636187 79.69676,83.347941 83.363718,83.347941 z M 83.363718,64.981156 79.69676,64.981156 79.69676,68.69291 83.363718,68.69291 z M 83.363718,57.685639 79.69676,57.685639 79.69676,61.333398 83.363718,61.333398 z M 83.363718,72.340669 79.69676,72.340669 79.69676,75.988426 83.363718,75.988426 z M 79.69676,21.016067 83.363718,21.016067 83.363718,17.368307 79.69676,17.368307 z M 87.024275,48.534245 76.029802,48.534245 76.029802,13.72055 83.363718,13.72055 C 85.385982,13.72055 87.024275,15.320444 87.024275,17.368307 z M 87.024275,83.347941 C 87.024275,85.331809 85.385982,86.995699 83.363718,86.995699 L 76.029802,86.995699 76.029802,52.182003 87.024275,52.182003 z M 72.369245,86.995699 28.397755,86.995699 28.397755,13.72055 72.369245,13.72055 z M 24.730798,48.534245 13.736325,48.534245 13.736325,17.368307 C 13.736325,15.320444 15.381015,13.72055 17.403282,13.72055 L 24.730798,13.72055 z M 24.730798,86.995699 17.403282,86.995699 C 15.381015,86.995699 13.736325,85.331809 13.736325,83.347941 L 13.736325,52.182003 24.730798,52.182003 z M 83.363718,10.008795 17.403282,10.008795 C 13.352351,10.008795 10.075767,13.336575 10.075767,17.368307 L 10.075767,83.347941 C 10.075767,87.379673 13.352351,90.64346 17.403282,90.64346 L 83.363718,90.64346 C 87.40825,90.64346 90.691231,87.379673 90.691231,83.347941 L 90.691231,17.368307 C 90.691231,13.336575 87.40825,10.008795 83.363718,10.008795 z M 79.69676,43.030609 83.363718,43.030609 83.363718,39.382851 79.69676,39.382851 z M 79.69676,35.671096 83.363718,35.671096 83.363718,32.023337 79.69676,32.023337 z M 79.69676,28.375578 83.363718,28.375578 83.363718,24.663825 79.69676,24.663825 z M 17.403282,21.016067 21.06384,21.016067 21.06384,17.368307 17.403282,17.368307 z M 17.403282,43.030609 21.06384,43.030609 21.06384,39.382851 17.403282,39.382851 z M 21.06384,72.340669 17.403282,72.340669 17.403282,75.988426 21.06384,75.988426 z M 21.06384,57.685639 17.403282,57.685639 17.403282,61.333398 21.06384,61.333398 z M 21.06384,64.981156 17.403282,64.981156 17.403282,68.69291 21.06384,68.69291 z M 21.06384,79.636187 17.403282,79.636187 17.403282,83.347941 21.06384,83.347941 z M 17.403282,35.671096 21.06384,35.671096 21.06384,32.023337 17.403282,32.023337 z M 17.403282,28.375578 21.06384,28.375578 21.06384,24.663825 17.403282,24.663825 17.403282,28.375578"
     style="fill:#ffffff;fill-opacity:1;fill-rule:nonzero;stroke:none"
     id="path82"
     inkscape:connector-curvature="0"
     sodipodi:nodetypes="ccccccccccccccccccccccccccccsscsscccscccccccsscccsscccsssssssssccccccccccccccccccccccccccccccccccccccccccccccccccccccc" /><path
     d="M 66.931561,50.382548 57.532928,49.211754 57.532928,42.832566 66.931561,44.008831 z M 49.702284,80.287043 46.569588,80.287043 C 43.972504,80.287043 41.869999,78.186177 41.869999,75.587451 41.869999,72.988726 43.972504,70.887861 46.569588,70.887861 L 49.702284,70.887861 C 52.296633,70.887861 54.399684,72.988726 54.399684,75.587451 54.399684,78.186177 52.296633,80.287043 49.702284,80.287043 z M 68.498456,41.125614 C 68.414749,41.125614 68.341984,41.15844 68.265391,41.174853 L 68.258825,41.142026 56.579333,39.686741 C 56.391677,39.604676 56.184326,39.560908 55.966032,39.560908 55.915152,39.560908 55.871931,39.593734 55.821052,39.593734 L 55.729138,39.577321 55.733514,39.604676 C 54.985083,39.73598 54.399684,40.343261 54.399684,41.125614 L 54.399684,69.355981 C 53.089928,68.36573 51.473794,67.752978 49.702284,67.752978 L 46.569588,67.752978 C 42.243668,67.752978 38.736756,71.26536 38.736756,75.587451 38.736756,79.909542 42.243668,83.416454 46.569588,83.416454 L 49.702284,83.416454 C 54.027657,83.416454 57.532928,79.909542 57.532928,75.587451 L 57.532928,52.231746 67.884609,53.533845 C 68.072811,53.610439 68.280163,53.659678 68.498456,53.659678 68.549335,53.659678 68.59201,53.626852 68.645625,53.626852 L 68.73535,53.643265 68.730973,53.610439 C 69.479406,53.484606 70.064802,52.871854 70.064802,52.089501 L 70.064802,42.695791 C 70.064802,41.831374 69.361779,41.125614 68.498456,41.125614 z"
     style="fill:#f44d27;fill-opacity:1;fill-rule:nonzero;stroke:none"
     id="path826"
     inkscape:connector-curvature="0"
     sodipodi:nodetypes="cccccsssssssscccscccscssssssccscccsss" /><path
     d="M 35.342576,22.564826 50.272789,32.036199 35.342576,41.571566 z M 33.512297,46.691228 C 33.941068,46.691228 34.325047,46.563236 34.63862,46.307253 L 34.657822,46.307253 54.810089,33.508101 54.790887,33.444105 C 55.213262,33.124126 55.494842,32.61216 55.494842,32.036199 55.494842,31.460236 55.213262,31.012266 54.790887,30.628292 L 54.810089,30.628292 34.657822,17.829138 34.63862,17.829138 C 34.325047,17.573155 33.941068,17.381167 33.512297,17.381167 32.49476,17.381167 31.682019,18.213112 31.682019,19.237045 L 31.682019,44.899345 C 31.682019,45.923278 32.49476,46.691228 33.512297,46.691228 z"
     style="fill:#f44d27;fill-opacity:1;fill-rule:nonzero;stroke:none"
     id="path82-1"
     inkscape:connector-curvature="0"
     sodipodi:nodetypes="ccccsccccsccccssss" /></svg>