<?xml version="1.0" encoding="UTF-8" standalone="no"?>
<!-- Generator: Adobe Illustrator 15.1.0, SVG Export Plug-In . SVG Version: 6.00 Build 0)  -->

<svg
   xmlns:dc="http://purl.org/dc/elements/1.1/"
   xmlns:cc="http://creativecommons.org/ns#"
   xmlns:rdf="http://www.w3.org/1999/02/22-rdf-syntax-ns#"
   xmlns:svg="http://www.w3.org/2000/svg"
   xmlns="http://www.w3.org/2000/svg"
   xmlns:sodipodi="http://sodipodi.sourceforge.net/DTD/sodipodi-0.dtd"
   xmlns:inkscape="http://www.inkscape.org/namespaces/inkscape"
   version="1.1"
   id="Capa_1"
   x="0px"
   y="0px"
   width="100"
   height="100"
   viewBox="0 0 100 100"
   xml:space="preserve"
   inkscape:version="0.48.5 r10040"
   sodipodi:docname="thermometer.svg"><metadata
     id="metadata21"><rdf:RDF><cc:Work
         rdf:about=""><dc:format>image/svg+xml</dc:format><dc:type
           rdf:resource="http://purl.org/dc/dcmitype/StillImage" /><dc:title></dc:title></cc:Work></rdf:RDF></metadata><defs
     id="defs19" /><sodipodi:namedview
     pagecolor="#ffffff"
     bordercolor="#666666"
     borderopacity="1"
     objecttolerance="10"
     gridtolerance="10"
     guidetolerance="10"
     inkscape:pageopacity="0"
     inkscape:pageshadow="2"
     inkscape:window-width="1920"
     inkscape:window-height="1014"
     id="namedview17"
     showgrid="false"
     fit-margin-top="0"
     fit-margin-left="0"
     fit-margin-right="0"
     fit-margin-bottom="0"
     inkscape:zoom="5.636766"
     inkscape:cx="29.689562"
     inkscape:cy="57.295782"
     inkscape:window-x="0"
     inkscape:window-y="27"
     inkscape:window-maximized="1"
     inkscape:current-layer="Capa_1"><inkscape:grid
       type="xygrid"
       id="grid3776"
       empspacing="5"
       visible="true"
       enabled="true"
       snapvisiblegridlinesonly="true" /></sodipodi:namedview><path
     style="fill:none;stroke:#ffffff;stroke-width:2.34164810000000001;stroke-linecap:round;stroke-linejoin:miter;stroke-miterlimit:4;stroke-opacity:1;stroke-dasharray:none"
     d="M 64.264108,18.056702 C 69.060911,18.056702 69.060911,18.056702 69.060911,18.056702"
     id="path4338"
     inkscape:connector-curvature="0" /><path
     d="M 49.446073,95.80695 C 41.853208,95.80695 35.70088,89.654625 35.70088,82.061756 35.70088,76.977834 38.467927,72.542158 42.573471,70.171263 L 42.573471,12.092189 C 42.573471,8.2927529 45.652644,5.2135883 49.446073,5.2135883 53.245509,5.2135883 56.318673,8.2927529 56.318673,12.092189 L 56.318673,70.171263 C 60.424228,72.542158 63.197268,76.977834 63.197268,82.061756 63.197268,89.654625 57.038938,95.80695 49.446073,95.80695 z M 59.757978,68.328566 59.757978,12.092189 C 59.757978,6.4020385 55.142222,1.7802928 49.446073,1.7802928 43.755929,1.7802928 39.14018,6.4020385 39.14018,12.092189 L 39.14018,68.328566 C 34.968603,71.473754 32.261581,76.443633 32.261581,82.061756 32.261581,91.54534 39.956489,99.246252 49.446073,99.246252 58.935665,99.246252 66.630565,91.54534 66.630565,82.061756 66.630565,76.443633 63.923539,71.473754 59.757978,68.328566 z"
     style="fill:#ffffff;fill-opacity:1;fill-rule:nonzero;stroke:none"
     id="path782"
     inkscape:connector-curvature="0"
     sodipodi:nodetypes="sscssscsscssscsssc" /><path
     d="M 52.851502,72.401577 52.851502,32.44437 C 52.851502,30.559657 51.308913,29.011072 49.412198,29.011072 47.515484,29.011072 45.978902,30.559657 45.978902,32.44437 L 45.978902,72.401577 C 41.975396,73.81211 39.106306,77.629552 39.106306,82.113247 39.106306,87.803396 43.722056,92.425144 49.412198,92.425144 55.108349,92.425144 59.724103,87.803396 59.724103,82.113247 59.724103,77.629552 56.855008,73.81211 52.851502,72.401577"
     style="fill:#ff0066;fill-opacity:1;fill-rule:nonzero;stroke:none"
     id="path782-0"
     inkscape:connector-curvature="0"
     sodipodi:nodetypes="cssscsssc" /><path
     style="fill:none;stroke:#ffffff;stroke-width:2.34164810000000001;stroke-linecap:round;stroke-linejoin:miter;stroke-miterlimit:4;stroke-opacity:1;stroke-dasharray:none"
     d="M 64.264108,25.862197 C 72.069603,25.862197 72.069603,25.862197 72.069603,25.862197"
     id="path4338-5"
     inkscape:connector-curvature="0" /><path
     style="fill:none;stroke:#ffffff;stroke-width:2.34164810000000001;stroke-linecap:round;stroke-linejoin:miter;stroke-miterlimit:4;stroke-opacity:1;stroke-dasharray:none"
     d="M 64.264108,33.667691 C 69.060911,33.667691 69.060911,33.667691 69.060911,33.667691"
     id="path4338-5-5"
     inkscape:connector-curvature="0" /><path
     style="fill:none;stroke:#ffffff;stroke-width:2.34164810000000001;stroke-linecap:round;stroke-linejoin:miter;stroke-miterlimit:4;stroke-opacity:1;stroke-dasharray:none"
     d="M 64.264108,41.473186 C 72.069603,41.473186 72.069603,41.473186 72.069603,41.473186"
     id="path4338-5-5-5"
     inkscape:connector-curvature="0" /><path
     style="fill:none;stroke:#ffffff;stroke-width:2.34164810000000001;stroke-linecap:round;stroke-linejoin:miter;stroke-miterlimit:4;stroke-opacity:1;stroke-dasharray:none"
     d="M 64.264108,49.27868 C 69.060911,49.27868 69.060911,49.27868 69.060911,49.27868"
     id="path4338-5-5-3"
     inkscape:connector-curvature="0" /><path
     style="fill:none;stroke:#ffffff;stroke-width:2.34164810000000001;stroke-linecap:round;stroke-linejoin:miter;stroke-miterlimit:4;stroke-opacity:1;stroke-dasharray:none"
     d="M 64.264108,57.084175 C 72.069603,57.084175 72.069603,57.084175 72.069603,57.084175"
     id="path4338-5-5-5-3"
     inkscape:connector-curvature="0" /></svg>