<?xml version="1.0" encoding="UTF-8" standalone="no"?>
<!-- Created with Inkscape (http://www.inkscape.org/) -->

<svg
   xmlns:dc="http://purl.org/dc/elements/1.1/"
   xmlns:cc="http://creativecommons.org/ns#"
   xmlns:rdf="http://www.w3.org/1999/02/22-rdf-syntax-ns#"
   xmlns:svg="http://www.w3.org/2000/svg"
   xmlns="http://www.w3.org/2000/svg"
   version="1.1"
   width="100"
   height="50"
   id="svg2">
  <defs
     id="defs4" />
  <metadata
     id="metadata7">
    <rdf:RDF>
      <cc:Work
         rdf:about="">
        <dc:format>image/svg+xml</dc:format>
        <dc:type
           rdf:resource="http://purl.org/dc/dcmitype/StillImage" />
        <dc:title></dc:title>
      </cc:Work>
    </rdf:RDF>
  </metadata>
  <g
     transform="translate(0,-1002.3622)"
     id="layer1">
    <path
       d="M 39.224939,1040.3356 C 39.224939,1041.1061 38.598802,1041.7347 37.825914,1041.7347 L 12.616564,1041.7347 C 11.843676,1041.7347 11.215093,1041.1061 11.215093,1040.3356 L 11.215093,1015.1263 C 11.215093,1014.3558 11.843676,1013.7248 12.616564,1013.7248 L 37.825914,1013.7248 C 38.598802,1013.7248 39.224939,1014.3558 39.224939,1015.1263 L 39.224939,1040.3356 z M 37.825914,1012.3258 12.616564,1012.3258 C 11.068342,1012.3258 9.8160682,1013.5781 9.8160682,1015.1263 L 9.8160682,1040.3356 C 9.8160682,1041.8814 11.068342,1043.1361 12.616564,1043.1361 L 37.825914,1043.1361 C 39.37169,1043.1361 40.62641,1041.8814 40.62641,1040.3356 L 40.62641,1015.1263 C 40.62641,1013.5781 39.37169,1012.3258 37.825914,1012.3258 z M 30.468805,1032.2032 C 29.994311,1032.4649 29.505141,1032.5896 29.001296,1032.5896 28.358038,1032.5896 27.773481,1032.4649 27.252515,1032.213 26.73155,1031.9586 26.28396,1031.6162 25.907299,1031.1759 25.533084,1030.7406 25.244474,1030.2172 25.039023,1029.613 24.833572,1029.0114 24.730847,1028.3534 24.730847,1027.6392 24.730847,1026.974 24.833572,1026.3503 25.039023,1025.7706 25.244474,1025.1959 25.533084,1024.692 25.907299,1024.2566 26.28396,1023.8237 26.73155,1023.4789 27.252515,1023.2343 27.773481,1022.997 28.358038,1022.8698 29.001296,1022.8698 29.436657,1022.8698 29.864681,1022.9628 30.292704,1023.1364 30.720727,1023.3125 31.163425,1023.6623 31.620799,1024.1857 L 33.342676,1022.8356 C 32.72143,1022.0651 32.051268,1021.5246 31.332189,1021.2042 30.610664,1020.8813 29.827993,1020.7199 28.984175,1020.7199 28.022957,1020.7199 27.142452,1020.8887 26.340214,1021.2238 25.53553,1021.554 24.845801,1022.0309 24.266135,1022.6472 23.68647,1023.2636 23.231542,1024.0047 22.903799,1024.8803 22.576055,1025.7486 22.412183,1026.7221 22.412183,1027.786 22.412183,1028.8304 22.576055,1029.7745 22.903799,1030.6281 23.231542,1031.4841 23.68647,1032.2179 24.266135,1032.8293 24.845801,1033.4359 25.53553,1033.9055 26.340214,1034.2357 27.142452,1034.5708 28.022957,1034.7395 28.984175,1034.7395 29.898923,1034.7395 30.759861,1034.5512 31.566991,1034.1721 32.376566,1033.793 33.061403,1033.1913 33.623948,1032.3646 L 31.7969,1030.9729 C 31.385998,1031.533 30.943299,1031.9464 30.468805,1032.2032 z M 18.217555,1022.1287 C 17.444667,1022.1287 16.81853,1021.4977 16.81853,1020.7273 16.81853,1019.9568 17.444667,1019.3282 18.217555,1019.3282 18.990443,1019.3282 19.619025,1019.9568 19.619025,1020.7273 19.619025,1021.4977 18.990443,1022.1287 18.217555,1022.1287 z M 18.217555,1017.9268 C 16.671779,1017.9268 15.417059,1019.1791 15.417059,1020.7273 15.417059,1022.2755 16.671779,1023.5278 18.217555,1023.5278 19.765776,1023.5278 21.020496,1022.2755 21.020496,1020.7273 21.020496,1019.1791 19.765776,1017.9268 18.217555,1017.9268"
       id="path762"
       style="fill:#ffffff;fill-opacity:1;fill-rule:nonzero;stroke:none" />
    <path
       d="M 89.867057,1040.2492 C 89.867057,1041.0197 89.24092,1041.6483 88.468032,1041.6483 L 63.258681,1041.6483 C 62.485793,1041.6483 61.85721,1041.0197 61.85721,1040.2492 L 61.85721,1015.0399 C 61.85721,1014.2694 62.485793,1013.6384 63.258681,1013.6384 L 88.468032,1013.6384 C 89.24092,1013.6384 89.867057,1014.2694 89.867057,1015.0399 L 89.867057,1040.2492 z M 88.468032,1012.2394 63.258681,1012.2394 C 61.710459,1012.2394 60.458186,1013.4917 60.458186,1015.0399 L 60.458186,1040.2492 C 60.458186,1041.795 61.710459,1043.0497 63.258681,1043.0497 L 88.468032,1043.0497 C 90.013808,1043.0497 91.268528,1041.795 91.268528,1040.2492 L 91.268528,1015.0399 C 91.268528,1013.4917 90.013808,1012.2394 88.468032,1012.2394 z M 81.110923,1032.1168 C 80.636429,1032.3785 80.147259,1032.5032 79.643414,1032.5032 79.000156,1032.5032 78.415599,1032.3785 77.894633,1032.1266 77.373668,1031.8722 76.926078,1031.5298 76.549417,1031.0895 76.175202,1030.6542 75.886592,1030.1308 75.681141,1029.5266 75.47569,1028.925 75.372965,1028.267 75.372965,1027.5528 75.372965,1026.8876 75.47569,1026.2639 75.681141,1025.6842 75.886592,1025.1095 76.175202,1024.6056 76.549417,1024.1702 76.926078,1023.7373 77.373668,1023.3925 77.894633,1023.1479 78.415599,1022.9106 79.000156,1022.7834 79.643414,1022.7834 80.078775,1022.7834 80.506799,1022.8764 80.934822,1023.05 81.362845,1023.2261 81.805543,1023.5759 82.262917,1024.0993 L 83.984794,1022.7492 C 83.363548,1021.9787 82.693386,1021.4382 81.974307,1021.1178 81.252782,1020.7949 80.470111,1020.6335 79.626293,1020.6335 78.665075,1020.6335 77.78457,1020.8023 76.982332,1021.1374 76.177648,1021.4676 75.487919,1021.9445 74.908253,1022.5608 74.328588,1023.1772 73.87366,1023.9183 73.545917,1024.7939 73.218173,1025.6622 73.054301,1026.6357 73.054301,1027.6996 73.054301,1028.744 73.218173,1029.6881 73.545917,1030.5417 73.87366,1031.3977 74.328588,1032.1315 74.908253,1032.7429 75.487919,1033.3495 76.177648,1033.8191 76.982332,1034.1493 77.78457,1034.4844 78.665075,1034.6531 79.626293,1034.6531 80.541041,1034.6531 81.401979,1034.4648 82.209109,1034.0857 83.018684,1033.7066 83.703521,1033.1049 84.266066,1032.2782 L 82.439018,1030.8865 C 82.028116,1031.4466 81.585417,1031.86 81.110923,1032.1168 z M 68.859672,1022.0423 C 68.086784,1022.0423 67.460647,1021.4113 67.460647,1020.6409 67.460647,1019.8704 68.086784,1019.2418 68.859672,1019.2418 69.63256,1019.2418 70.261142,1019.8704 70.261142,1020.6409 70.261142,1021.4113 69.63256,1022.0423 68.859672,1022.0423 z M 68.859672,1017.8404 C 67.313896,1017.8404 66.059176,1019.0927 66.059176,1020.6409 66.059176,1022.1891 67.313896,1023.4414 68.859672,1023.4414 70.407893,1023.4414 71.662614,1022.1891 71.662614,1020.6409 71.662614,1019.0927 70.407893,1017.8404 68.859672,1017.8404"
       id="path762-9"
       style="fill:#2a8fbd;fill-opacity:1;fill-rule:nonzero;stroke:none" />
  </g>
</svg>
