<?xml version="1.0" encoding="UTF-8" standalone="no"?>
<!-- Created with Inkscape (http://www.inkscape.org/) -->

<svg
   xmlns:dc="http://purl.org/dc/elements/1.1/"
   xmlns:cc="http://creativecommons.org/ns#"
   xmlns:rdf="http://www.w3.org/1999/02/22-rdf-syntax-ns#"
   xmlns:svg="http://www.w3.org/2000/svg"
   xmlns="http://www.w3.org/2000/svg"
   version="1.1"
   width="100"
   height="50"
   id="svg2">
  <defs
     id="defs4" />
  <metadata
     id="metadata7">
    <rdf:RDF>
      <cc:Work
         rdf:about="">
        <dc:format>image/svg+xml</dc:format>
        <dc:type
           rdf:resource="http://purl.org/dc/dcmitype/StillImage" />
        <dc:title></dc:title>
      </cc:Work>
    </rdf:RDF>
  </metadata>
  <g
     transform="translate(0,-1002.3622)"
     id="layer1">
    <path
       d="M 39.384565,1036.9033 11.495128,1036.9033 C 10.641101,1036.9033 9.9456107,1036.1996 9.9456107,1035.3337 9.9456107,1035.0091 10.015368,1034.8196 10.050248,1034.7385 10.077739,1034.7114 10.051303,1034.7385 10.097817,1034.6572 L 24.042548,1012.9832 C 24.066901,1012.9291 24.089088,1012.9021 24.109113,1012.8479 24.113442,1012.8479 24.54665,1012.0902 25.439859,1012.0902 26.333068,1012.0902 26.684018,1012.6856 26.729477,1012.7669 26.766277,1012.875 26.782243,1012.875 26.837172,1012.9832 L 40.781877,1034.6572 C 40.802171,1034.6844 40.823275,1034.7114 40.845464,1034.7655 40.867652,1034.8196 40.934217,1034.9819 40.934217,1035.3337 40.934217,1036.1996 40.238808,1036.9033 39.384565,1036.9033 z M 42.085294,1033.8184 28.14059,1012.1444 C 28.14059,1012.1444 27.424887,1010.548 25.439859,1010.548 23.572267,1010.548 22.739401,1012.1444 22.739401,1012.1444 L 8.7945603,1033.8184 C 8.7945603,1033.8184 8.397122,1034.3326 8.397122,1035.3337 8.397122,1037.0655 9.7838808,1038.4455 11.495128,1038.4455 L 39.384565,1038.4455 C 41.095758,1038.4455 42.482516,1037.0655 42.482516,1035.3337 42.482516,1034.2514 42.085294,1033.8184 42.085294,1033.8184 z M 25.439859,1030.7067 C 24.583723,1030.7067 23.890477,1031.3832 23.890477,1032.2491 23.890477,1033.0879 24.583723,1033.7914 25.439859,1033.7914 26.294915,1033.7914 26.989512,1033.0879 26.989512,1032.2491 26.989512,1031.3832 26.294915,1030.7067 25.439859,1030.7067 z M 25.439859,1018.3139 C 24.583723,1018.3139 23.890477,1018.9903 23.890477,1019.8562 L 24.665169,1028.3797 C 24.665169,1028.8126 25.011791,1029.1373 25.439859,1029.1373 25.867928,1029.1373 26.21455,1028.8126 26.21455,1028.3797 L 26.989512,1019.8562 C 26.989512,1018.9903 26.294915,1018.3139 25.439859,1018.3139"
       id="path244"
       style="fill:#ffffff;fill-opacity:1;fill-rule:nonzero;stroke:none" />
    <path
       d="M 89.246805,1036.6864 61.357368,1036.6864 C 60.503341,1036.6864 59.807851,1035.9827 59.807851,1035.1168 59.807851,1034.7922 59.877608,1034.6027 59.912488,1034.5216 59.939979,1034.4945 59.913543,1034.5216 59.960057,1034.4403 L 73.904788,1012.7663 C 73.929141,1012.7122 73.951328,1012.6852 73.971353,1012.631 73.975682,1012.631 74.40889,1011.8733 75.302099,1011.8733 76.195308,1011.8733 76.546258,1012.4687 76.591717,1012.55 76.628517,1012.6581 76.644483,1012.6581 76.699412,1012.7663 L 90.644117,1034.4403 C 90.664411,1034.4675 90.685515,1034.4945 90.707704,1034.5486 90.729892,1034.6027 90.796457,1034.765 90.796457,1035.1168 90.796457,1035.9827 90.101048,1036.6864 89.246805,1036.6864 z M 91.947534,1033.6015 78.00283,1011.9275 C 78.00283,1011.9275 77.287127,1010.3311 75.302099,1010.3311 73.434507,1010.3311 72.601641,1011.9275 72.601641,1011.9275 L 58.6568,1033.6015 C 58.6568,1033.6015 58.259362,1034.1157 58.259362,1035.1168 58.259362,1036.8486 59.646121,1038.2286 61.357368,1038.2286 L 89.246805,1038.2286 C 90.957998,1038.2286 92.344756,1036.8486 92.344756,1035.1168 92.344756,1034.0345 91.947534,1033.6015 91.947534,1033.6015 z M 75.302099,1030.4898 C 74.445963,1030.4898 73.752717,1031.1663 73.752717,1032.0322 73.752717,1032.871 74.445963,1033.5745 75.302099,1033.5745 76.157155,1033.5745 76.851752,1032.871 76.851752,1032.0322 76.851752,1031.1663 76.157155,1030.4898 75.302099,1030.4898 z M 75.302099,1018.097 C 74.445963,1018.097 73.752717,1018.7734 73.752717,1019.6393 L 74.527409,1028.1628 C 74.527409,1028.5957 74.874031,1028.9204 75.302099,1028.9204 75.730168,1028.9204 76.07679,1028.5957 76.07679,1028.1628 L 76.851752,1019.6393 C 76.851752,1018.7734 76.157155,1018.097 75.302099,1018.097"
       id="path244-8"
       style="fill:#2a8fbd;fill-opacity:1;fill-rule:nonzero;stroke:none" />
  </g>
</svg>
