<?xml version="1.0" encoding="UTF-8" standalone="no"?>
<!-- Created with Inkscape (http://www.inkscape.org/) -->

<svg
   xmlns:dc="http://purl.org/dc/elements/1.1/"
   xmlns:cc="http://creativecommons.org/ns#"
   xmlns:rdf="http://www.w3.org/1999/02/22-rdf-syntax-ns#"
   xmlns:svg="http://www.w3.org/2000/svg"
   xmlns="http://www.w3.org/2000/svg"
   version="1.1"
   width="100"
   height="50"
   id="svg2">
  <defs
     id="defs4" />
  <metadata
     id="metadata7">
    <rdf:RDF>
      <cc:Work
         rdf:about="">
        <dc:format>image/svg+xml</dc:format>
        <dc:type
           rdf:resource="http://purl.org/dc/dcmitype/StillImage" />
        <dc:title></dc:title>
      </cc:Work>
    </rdf:RDF>
  </metadata>
  <g
     transform="translate(0,-1002.3622)"
     id="layer1">
    <path
       d="M 33.449844,1043.9752 C 32.460235,1043.9752 31.498192,1043.7547 30.585768,1043.3412 30.503071,1043.2861 30.414861,1043.2585 30.323894,1043.231 21.354018,1038.6551 13.919552,1031.2123 9.3408908,1022.2535 9.3160818,1022.1708 9.2830028,1022.0605 9.2416548,1021.9778 8.8088728,1021.0681 8.5911038,1020.1034 8.5911038,1019.111 8.5911038,1015.2793 11.943092,1012.4126 14.115269,1012.4126 14.399195,1012.4126 14.586641,1012.5505 14.672095,1012.6331 14.694148,1012.6607 14.727227,1012.7158 14.782358,1012.7985 14.809923,1012.8261 14.840246,1012.8812 14.870569,1012.9087 L 20.066701,1019.6072 C 20.10805,1019.6623 20.152154,1019.6899 20.196259,1019.745 20.28447,1019.8277 20.427811,1020.0206 20.427811,1020.2964 20.427811,1020.4342 20.38922,1020.572 20.314792,1020.6822 L 18.556101,1022.4465 C 18.547831,1022.4465 18.539562,1022.4465 18.531292,1022.474 17.894524,1023.0529 17.530657,1023.9074 17.530657,1024.762 17.530657,1025.589 17.847663,1026.3608 18.398977,1026.9396 18.418273,1026.9672 18.437568,1026.9948 18.459621,1027.0223 20.400246,1029.7238 22.784678,1032.0944 25.54676,1034.1068 25.566056,1034.1068 25.588109,1034.1343 25.610161,1034.1343 26.191797,1034.6856 26.977419,1035.0164 27.79612,1035.0164 28.620335,1035.0164 29.414226,1034.6856 30.004132,1034.1068 30.034455,1034.0792 30.064777,1034.0516 30.092343,1034.0241 L 31.859303,1032.2322 C 31.983349,1032.1771 32.115664,1032.122 32.256249,1032.122 32.537419,1032.122 32.727622,1032.2598 32.813076,1032.3701 32.859938,1032.3977 32.906799,1032.4528 32.959174,1032.4804 L 39.641097,1037.6903 C 39.685203,1037.7179 39.729307,1037.7454 39.773413,1037.773 39.858866,1037.8281 39.897458,1037.8557 39.916754,1037.8833 40.002208,1037.9659 40.145549,1038.1589 40.145549,1038.4346 40.145549,1038.4897 40.151063,1038.5448 40.156576,1038.5999 40.03253,1040.7776 37.193264,1043.9752 33.449844,1043.9752 z M 41.725064,1038.4346 C 41.725064,1037.8006 41.460433,1037.1941 41.033165,1036.7806 40.906363,1036.6428 40.763021,1036.5325 40.611409,1036.4498 L 33.929486,1031.2399 C 33.502218,1030.8264 32.909556,1030.5508 32.256249,1030.5508 31.718718,1030.5508 31.230805,1030.7437 30.836616,1031.0469 L 28.970419,1032.9214 28.967662,1032.9214 C 28.678222,1033.2246 28.26198,1033.4452 27.79612,1033.4452 27.261346,1033.4452 26.792729,1033.1695 26.506046,1032.756 26.49502,1032.7836 26.481237,1032.8111 26.472967,1032.8111 23.892818,1030.9367 21.607623,1028.7039 19.738669,1026.1127 19.757965,1026.0852 19.771748,1026.0852 19.791044,1026.0576 19.380315,1025.7819 19.110171,1025.3133 19.110171,1024.762 19.110171,1024.2933 19.330697,1023.8523 19.669755,1023.5767 L 19.666999,1023.5491 21.522169,1021.7297 C 21.825392,1021.3163 22.007325,1020.8477 22.007325,1020.2964 22.007325,1019.6623 21.742695,1019.0559 21.31267,1018.6424 L 16.116537,1011.944 C 16.022814,1011.8061 15.915308,1011.6408 15.788506,1011.5305 15.361237,1011.0894 14.768575,1010.8413 14.115269,1010.8413 10.958997,1010.8413 7.01159,1014.5351 7.01159,1019.111 7.01159,1020.379 7.3065433,1021.5919 7.8137518,1022.667 L 7.7889424,1022.6945 C 12.535754,1032.1496 20.427811,1040.0334 29.888356,1044.7747 L 29.913165,1044.7471 C 30.985471,1045.2709 32.181822,1045.5465 33.449844,1045.5465 38.028505,1045.5465 41.73609,1041.6046 41.73609,1038.4621 41.73609,1038.4621 41.73609,1038.4346 41.73609,1038.4346 L 41.725064,1038.4346 z M 25.963002,1028.2077 C 26.834078,1028.2077 27.539759,1027.4909 27.539759,1026.6089 27.539759,1025.7543 26.834078,1025.0377 25.963002,1025.0377 25.091926,1025.0377 24.383488,1025.7543 24.383488,1026.6089 24.383488,1027.4909 25.091926,1028.2077 25.963002,1028.2077 z M 25.963002,1020.2964 C 29.450062,1020.2964 32.275545,1023.1356 32.275545,1026.6089 32.275545,1027.0499 32.628386,1027.4083 33.066681,1027.4083 33.502218,1027.4083 33.855059,1027.0499 33.855059,1026.6089 33.855059,1022.2535 30.321138,1018.7251 25.963002,1018.7251 25.527464,1018.7251 25.174623,1019.0834 25.174623,1019.5245 25.174623,1019.938 25.527464,1020.2964 25.963002,1020.2964 z M 25.963002,1012.4126 C 33.808197,1012.4126 40.167602,1018.7802 40.167602,1026.6089 40.167602,1027.0499 40.520443,1027.4083 40.958737,1027.4083 41.394275,1027.4083 41.747116,1027.0499 41.747116,1026.6089 41.747116,1017.8981 34.679273,1010.8413 25.963002,1010.8413 25.527464,1010.8413 25.174623,1011.1721 25.174623,1011.6132 25.174623,1012.0543 25.527464,1012.4126 25.963002,1012.4126"
       id="path252"
       style="fill:#ffffff;fill-opacity:1;fill-rule:nonzero;stroke:none" />
    <path
       d="M 83.00866,1044.0844 C 82.019051,1044.0844 81.057008,1043.8639 80.144584,1043.4504 80.061887,1043.3953 79.973677,1043.3677 79.88271,1043.3402 70.912834,1038.7643 63.478368,1031.3215 58.899707,1022.3627 58.874898,1022.28 58.841819,1022.1697 58.800471,1022.087 58.367689,1021.1773 58.14992,1020.2126 58.14992,1019.2202 58.14992,1015.3885 61.501908,1012.5218 63.674085,1012.5218 63.958011,1012.5218 64.145457,1012.6597 64.230911,1012.7423 64.252964,1012.7699 64.286043,1012.825 64.341174,1012.9077 64.368739,1012.9353 64.399062,1012.9904 64.429385,1013.0179 L 69.625517,1019.7164 C 69.666866,1019.7715 69.71097,1019.7991 69.755075,1019.8542 69.843286,1019.9369 69.986627,1020.1298 69.986627,1020.4056 69.986627,1020.5434 69.948036,1020.6812 69.873608,1020.7914 L 68.114917,1022.5557 C 68.106647,1022.5557 68.098378,1022.5557 68.090108,1022.5832 67.45334,1023.1621 67.089473,1024.0166 67.089473,1024.8712 67.089473,1025.6982 67.406479,1026.47 67.957793,1027.0488 67.977089,1027.0764 67.996384,1027.104 68.018437,1027.1315 69.959062,1029.833 72.343494,1032.2036 75.105576,1034.216 75.124872,1034.216 75.146925,1034.2435 75.168977,1034.2435 75.750613,1034.7948 76.536235,1035.1256 77.354936,1035.1256 78.179151,1035.1256 78.973042,1034.7948 79.562948,1034.216 79.593271,1034.1884 79.623593,1034.1608 79.651159,1034.1333 L 81.418119,1032.3414 C 81.542165,1032.2863 81.67448,1032.2312 81.815065,1032.2312 82.096235,1032.2312 82.286438,1032.369 82.371892,1032.4793 82.418754,1032.5069 82.465615,1032.562 82.51799,1032.5896 L 89.199913,1037.7995 C 89.244019,1037.8271 89.288123,1037.8546 89.332229,1037.8822 89.417682,1037.9373 89.456274,1037.9649 89.47557,1037.9925 89.561025,1038.0751 89.704366,1038.2681 89.704366,1038.5438 89.704366,1038.5989 89.709879,1038.654 89.715392,1038.7091 89.591346,1040.8868 86.75208,1044.0844 83.00866,1044.0844 z M 91.283881,1038.5438 C 91.283881,1037.9098 91.019249,1037.3033 90.591981,1036.8898 90.465179,1036.752 90.321837,1036.6417 90.170225,1036.559 L 83.488302,1031.3491 C 83.061034,1030.9356 82.468372,1030.66 81.815065,1030.66 81.277534,1030.66 80.789621,1030.8529 80.395432,1031.1561 L 78.529235,1033.0306 78.526478,1033.0306 C 78.237038,1033.3338 77.820796,1033.5544 77.354936,1033.5544 76.820162,1033.5544 76.351545,1033.2787 76.064862,1032.8652 76.053836,1032.8928 76.040053,1032.9203 76.031783,1032.9203 73.451634,1031.0459 71.166439,1028.8131 69.297485,1026.2219 69.316781,1026.1944 69.330564,1026.1944 69.34986,1026.1668 68.939131,1025.8911 68.668987,1025.4225 68.668987,1024.8712 68.668987,1024.4025 68.889513,1023.9615 69.228571,1023.6859 L 69.225815,1023.6583 71.080985,1021.8389 C 71.384208,1021.4255 71.566141,1020.9569 71.566141,1020.4056 71.566141,1019.7715 71.301511,1019.1651 70.871486,1018.7516 L 65.675353,1012.0532 C 65.58163,1011.9153 65.474124,1011.75 65.347322,1011.6397 64.920053,1011.1986 64.327391,1010.9505 63.674085,1010.9505 60.517813,1010.9505 56.570406,1014.6443 56.570406,1019.2202 56.570406,1020.4882 56.86536,1021.7011 57.372568,1022.7762 L 57.347759,1022.8037 C 62.09457,1032.2588 69.986627,1040.1426 79.447172,1044.8839 L 79.471981,1044.8563 C 80.544287,1045.3801 81.740638,1045.6557 83.00866,1045.6557 87.587322,1045.6557 91.294906,1041.7138 91.294906,1038.5713 91.294906,1038.5713 91.294906,1038.5438 91.294906,1038.5438 L 91.283881,1038.5438 z M 75.521818,1028.3169 C 76.392894,1028.3169 77.098575,1027.6001 77.098575,1026.7181 77.098575,1025.8635 76.392894,1025.1469 75.521818,1025.1469 74.650742,1025.1469 73.942304,1025.8635 73.942304,1026.7181 73.942304,1027.6001 74.650742,1028.3169 75.521818,1028.3169 z M 75.521818,1020.4056 C 79.008878,1020.4056 81.834361,1023.2448 81.834361,1026.7181 81.834361,1027.1591 82.187202,1027.5175 82.625498,1027.5175 83.061034,1027.5175 83.413875,1027.1591 83.413875,1026.7181 83.413875,1022.3627 79.879954,1018.8343 75.521818,1018.8343 75.08628,1018.8343 74.733439,1019.1926 74.733439,1019.6337 74.733439,1020.0472 75.08628,1020.4056 75.521818,1020.4056 z M 75.521818,1012.5218 C 83.367013,1012.5218 89.726418,1018.8894 89.726418,1026.7181 89.726418,1027.1591 90.079259,1027.5175 90.517553,1027.5175 90.953091,1027.5175 91.305932,1027.1591 91.305932,1026.7181 91.305932,1018.0073 84.238089,1010.9505 75.521818,1010.9505 75.08628,1010.9505 74.733439,1011.2813 74.733439,1011.7224 74.733439,1012.1635 75.08628,1012.5218 75.521818,1012.5218"
       id="path252-7"
       style="fill:#2a8fbd;fill-opacity:1;fill-rule:nonzero;stroke:none" />
  </g>
</svg>
