<?xml version="1.0" encoding="UTF-8" standalone="no"?>
<!-- Created with Inkscape (http://www.inkscape.org/) -->

<svg
   xmlns:dc="http://purl.org/dc/elements/1.1/"
   xmlns:cc="http://creativecommons.org/ns#"
   xmlns:rdf="http://www.w3.org/1999/02/22-rdf-syntax-ns#"
   xmlns:svg="http://www.w3.org/2000/svg"
   xmlns="http://www.w3.org/2000/svg"
   xmlns:sodipodi="http://sodipodi.sourceforge.net/DTD/sodipodi-0.dtd"
   xmlns:inkscape="http://www.inkscape.org/namespaces/inkscape"
   version="1.1"
   width="100"
   height="50"
   id="svg2"
   inkscape:version="0.48.5 r10040"
   sodipodi:docname="template.svg">
  <sodipodi:namedview
     pagecolor="#ffffff"
     bordercolor="#666666"
     borderopacity="1"
     objecttolerance="10"
     gridtolerance="10"
     guidetolerance="10"
     inkscape:pageopacity="0"
     inkscape:pageshadow="2"
     inkscape:window-width="1920"
     inkscape:window-height="1014"
     id="namedview10"
     showgrid="false"
     inkscape:zoom="9.4752309"
     inkscape:cx="36.807123"
     inkscape:cy="17.708356"
     inkscape:window-x="0"
     inkscape:window-y="27"
     inkscape:window-maximized="1"
     inkscape:current-layer="layer1" />
  <defs
     id="defs4" />
  <metadata
     id="metadata7">
    <rdf:RDF>
      <cc:Work
         rdf:about="">
        <dc:format>image/svg+xml</dc:format>
        <dc:type
           rdf:resource="http://purl.org/dc/dcmitype/StillImage" />
        <dc:title></dc:title>
      </cc:Work>
    </rdf:RDF>
  </metadata>
  <g
     transform="translate(0,-1002.3622)"
     id="layer1">
    <path
       d="M 22.468002,1023.7277 28.510245,1027.5607 22.468002,1031.4197 22.468002,1023.7277 z M 21.727289,1033.4916 C 21.900814,1033.4916 22.056208,1033.4398 22.183113,1033.3362 L 22.190883,1033.3362 30.346487,1028.1564 30.338718,1028.1304 C 30.509651,1028.0009 30.623606,1027.7939 30.623606,1027.5607 30.623606,1027.3276 30.509651,1027.1463 30.338718,1026.9909 L 30.346487,1026.9909 22.190883,1021.8111 22.183113,1021.8111 C 22.056208,1021.7075 21.900814,1021.6298 21.727289,1021.6298 21.315495,1021.6298 20.986578,1021.9664 20.986578,1022.3809 L 20.986578,1032.7665 C 20.986578,1033.1807 21.315495,1033.4916 21.727289,1033.4916 z M 38.781801,1039.4224 37.297786,1039.4224 37.297786,1040.9245 38.781801,1040.9245 38.781801,1039.4224 z M 38.781801,1033.4916 37.297786,1033.4916 37.297786,1034.9937 38.781801,1034.9937 38.781801,1033.4916 z M 38.781801,1030.5391 37.297786,1030.5391 37.297786,1032.0153 38.781801,1032.0153 38.781801,1030.5391 z M 38.781801,1036.47 37.297786,1036.47 37.297786,1037.9462 38.781801,1037.9462 38.781801,1036.47 z M 37.297786,1015.6989 38.781801,1015.6989 38.781801,1014.2227 37.297786,1014.2227 37.297786,1015.6989 z M 40.263225,1026.8356 35.813772,1026.8356 35.813772,1012.7465 38.781801,1012.7465 C 39.60021,1012.7465 40.263225,1013.3939 40.263225,1014.2227 L 40.263225,1026.8356 z M 40.263225,1040.9245 C 40.263225,1041.7275 39.60021,1042.4009 38.781801,1042.4009 L 35.813772,1042.4009 35.813772,1028.3118 40.263225,1028.3118 40.263225,1040.9245 z M 34.332347,1042.4009 16.537125,1042.4009 16.537125,1012.7465 34.332347,1012.7465 34.332347,1042.4009 z M 15.053111,1026.8356 10.603657,1026.8356 10.603657,1014.2227 C 10.603657,1013.3939 11.269262,1012.7465 12.087672,1012.7465 L 15.053111,1012.7465 15.053111,1026.8356 z M 15.053111,1042.4009 12.087672,1042.4009 C 11.269262,1042.4009 10.603657,1041.7275 10.603657,1040.9245 L 10.603657,1028.3118 15.053111,1028.3118 15.053111,1042.4009 z M 38.781801,1011.2443 12.087672,1011.2443 C 10.448264,1011.2443 9.1222327,1012.591 9.1222327,1014.2227 L 9.1222327,1040.9245 C 9.1222327,1042.5562 10.448264,1043.877 12.087672,1043.877 L 38.781801,1043.877 C 40.418619,1043.877 41.747239,1042.5562 41.747239,1040.9245 L 41.747239,1014.2227 C 41.747239,1012.591 40.418619,1011.2443 38.781801,1011.2443 z M 37.297786,1024.6082 38.781801,1024.6082 38.781801,1023.132 37.297786,1023.132 37.297786,1024.6082 z M 37.297786,1021.6298 38.781801,1021.6298 38.781801,1020.1535 37.297786,1020.1535 37.297786,1021.6298 z M 37.297786,1018.6774 38.781801,1018.6774 38.781801,1017.1753 37.297786,1017.1753 37.297786,1018.6774 z M 12.087672,1015.6989 13.569096,1015.6989 13.569096,1014.2227 12.087672,1014.2227 12.087672,1015.6989 z M 12.087672,1024.6082 13.569096,1024.6082 13.569096,1023.132 12.087672,1023.132 12.087672,1024.6082 z M 13.569096,1036.47 12.087672,1036.47 12.087672,1037.9462 13.569096,1037.9462 13.569096,1036.47 z M 13.569096,1030.5391 12.087672,1030.5391 12.087672,1032.0153 13.569096,1032.0153 13.569096,1030.5391 z M 13.569096,1033.4916 12.087672,1033.4916 12.087672,1034.9937 13.569096,1034.9937 13.569096,1033.4916 z M 13.569096,1039.4224 12.087672,1039.4224 12.087672,1040.9245 13.569096,1040.9245 13.569096,1039.4224 z M 12.087672,1021.6298 13.569096,1021.6298 13.569096,1020.1535 12.087672,1020.1535 12.087672,1021.6298 z M 12.087672,1018.6774 13.569096,1018.6774 13.569096,1017.1753 12.087672,1017.1753 12.087672,1018.6774"
       style="fill:#ffffff;fill-opacity:1;fill-rule:nonzero;stroke:none"
       id="path82"
       inkscape:connector-curvature="0" />
    <path
       d="M 72.343433,1023.7314 78.385676,1027.5644 72.343433,1031.4234 72.343433,1023.7314 z M 71.60272,1033.4953 C 71.776245,1033.4953 71.931639,1033.4435 72.058544,1033.3399 L 72.066314,1033.3399 80.221918,1028.1601 80.214149,1028.1341 C 80.385082,1028.0046 80.499037,1027.7976 80.499037,1027.5644 80.499037,1027.3313 80.385082,1027.15 80.214149,1026.9946 L 80.221918,1026.9946 72.066314,1021.8148 72.058544,1021.8148 C 71.931639,1021.7112 71.776245,1021.6335 71.60272,1021.6335 71.190926,1021.6335 70.862009,1021.9701 70.862009,1022.3846 L 70.862009,1032.7702 C 70.862009,1033.1844 71.190926,1033.4953 71.60272,1033.4953 z M 88.657232,1039.4261 87.173217,1039.4261 87.173217,1040.9282 88.657232,1040.9282 88.657232,1039.4261 z M 88.657232,1033.4953 87.173217,1033.4953 87.173217,1034.9974 88.657232,1034.9974 88.657232,1033.4953 z M 88.657232,1030.5428 87.173217,1030.5428 87.173217,1032.019 88.657232,1032.019 88.657232,1030.5428 z M 88.657232,1036.4737 87.173217,1036.4737 87.173217,1037.9499 88.657232,1037.9499 88.657232,1036.4737 z M 87.173217,1015.7026 88.657232,1015.7026 88.657232,1014.2264 87.173217,1014.2264 87.173217,1015.7026 z M 90.138656,1026.8393 85.689203,1026.8393 85.689203,1012.7502 88.657232,1012.7502 C 89.475641,1012.7502 90.138656,1013.3976 90.138656,1014.2264 L 90.138656,1026.8393 z M 90.138656,1040.9282 C 90.138656,1041.7312 89.475641,1042.4046 88.657232,1042.4046 L 85.689203,1042.4046 85.689203,1028.3155 90.138656,1028.3155 90.138656,1040.9282 z M 84.207778,1042.4046 66.412556,1042.4046 66.412556,1012.7502 84.207778,1012.7502 84.207778,1042.4046 z M 64.928542,1026.8393 60.479088,1026.8393 60.479088,1014.2264 C 60.479088,1013.3976 61.144693,1012.7502 61.963103,1012.7502 L 64.928542,1012.7502 64.928542,1026.8393 z M 64.928542,1042.4046 61.963103,1042.4046 C 61.144693,1042.4046 60.479088,1041.7312 60.479088,1040.9282 L 60.479088,1028.3155 64.928542,1028.3155 64.928542,1042.4046 z M 88.657232,1011.248 61.963103,1011.248 C 60.323695,1011.248 58.997664,1012.5947 58.997664,1014.2264 L 58.997664,1040.9282 C 58.997664,1042.5599 60.323695,1043.8807 61.963103,1043.8807 L 88.657232,1043.8807 C 90.29405,1043.8807 91.62267,1042.5599 91.62267,1040.9282 L 91.62267,1014.2264 C 91.62267,1012.5947 90.29405,1011.248 88.657232,1011.248 z M 87.173217,1024.6119 88.657232,1024.6119 88.657232,1023.1357 87.173217,1023.1357 87.173217,1024.6119 z M 87.173217,1021.6335 88.657232,1021.6335 88.657232,1020.1572 87.173217,1020.1572 87.173217,1021.6335 z M 87.173217,1018.6811 88.657232,1018.6811 88.657232,1017.179 87.173217,1017.179 87.173217,1018.6811 z M 61.963103,1015.7026 63.444527,1015.7026 63.444527,1014.2264 61.963103,1014.2264 61.963103,1015.7026 z M 61.963103,1024.6119 63.444527,1024.6119 63.444527,1023.1357 61.963103,1023.1357 61.963103,1024.6119 z M 63.444527,1036.4737 61.963103,1036.4737 61.963103,1037.9499 63.444527,1037.9499 63.444527,1036.4737 z M 63.444527,1030.5428 61.963103,1030.5428 61.963103,1032.019 63.444527,1032.019 63.444527,1030.5428 z M 63.444527,1033.4953 61.963103,1033.4953 61.963103,1034.9974 63.444527,1034.9974 63.444527,1033.4953 z M 63.444527,1039.4261 61.963103,1039.4261 61.963103,1040.9282 63.444527,1040.9282 63.444527,1039.4261 z M 61.963103,1021.6335 63.444527,1021.6335 63.444527,1020.1572 61.963103,1020.1572 61.963103,1021.6335 z M 61.963103,1018.6811 63.444527,1018.6811 63.444527,1017.179 61.963103,1017.179 61.963103,1018.6811"
       style="fill:#2a8fbd;fill-opacity:1;fill-rule:nonzero;stroke:none"
       id="path82-4"
       inkscape:connector-curvature="0" />
  </g>
</svg>
