<?xml version="1.0" encoding="UTF-8" standalone="no"?>
<!-- Created with Inkscape (http://www.inkscape.org/) -->

<svg
   xmlns:dc="http://purl.org/dc/elements/1.1/"
   xmlns:cc="http://creativecommons.org/ns#"
   xmlns:rdf="http://www.w3.org/1999/02/22-rdf-syntax-ns#"
   xmlns:svg="http://www.w3.org/2000/svg"
   xmlns="http://www.w3.org/2000/svg"
   version="1.1"
   width="100"
   height="50"
   id="svg2">
  <defs
     id="defs4" />
  <metadata
     id="metadata7">
    <rdf:RDF>
      <cc:Work
         rdf:about="">
        <dc:format>image/svg+xml</dc:format>
        <dc:type
           rdf:resource="http://purl.org/dc/dcmitype/StillImage" />
        <dc:title></dc:title>
      </cc:Work>
    </rdf:RDF>
  </metadata>
  <g
     transform="translate(0,-1002.3622)"
     id="layer1">
    <path
       d="M 28.06975,1030.6748 29.246328,1034.2017 26.387273,1032.0913 25.407273,1031.3687 24.430165,1032.0913 21.571109,1034.2017 22.747686,1030.6748 23.117716,1029.5474 22.192643,1028.8246 19.888632,1027.0323 23.730577,1027.0323 24.135296,1025.9628 25.407273,1022.6093 26.682139,1025.9628 27.08686,1027.0323 30.928806,1027.0323 28.624794,1028.8246 27.699721,1029.5474 28.06975,1030.6748 z M 28.228747,1025.3845 25.407273,1017.9261 22.585799,1025.3845 15.063795,1025.3845 21.175062,1030.1545 18.353587,1038.5958 25.407273,1033.4212 32.460958,1038.5958 29.639485,1030.1545 35.753642,1025.3845 28.228747,1025.3845 z M 25.43329,1045.2736 C 23.742141,1044.8978 8.880257,1039.8678 8.880257,1031.2241 8.880257,1023.1297 11.140905,1015.44 11.909873,1012.5203 14.005741,1013.4164 19.420313,1015.4978 25.43329,1015.4978 31.44916,1015.4978 36.863731,1013.4164 38.9596,1012.5203 39.728567,1015.44 41.986324,1023.1297 41.986324,1031.2241 41.986324,1039.8678 27.127331,1044.8978 25.43329,1045.2736 z M 40.300956,1011.1326 C 40.231576,1010.8725 40.063906,1010.699 39.83842,1010.5834 39.612933,1010.4967 39.355647,1010.4967 39.135942,1010.6123 39.069452,1010.6412 32.605501,1013.8212 25.43329,1013.8212 18.278425,1013.8212 11.80002,1010.6412 11.733531,1010.6123 11.513825,1010.4967 11.256539,1010.4967 11.031052,1010.5834 10.805566,1010.699 10.635006,1010.8725 10.568516,1011.1326 10.533825,1011.2483 7.2266877,1021.2796 7.2266877,1031.2241 7.2266877,1041.7179 24.540017,1046.7769 25.280075,1046.9215 25.32922,1046.9215 25.381255,1046.9215 25.43329,1046.9215 25.485326,1046.9215 25.537362,1046.9215 25.589397,1046.9215 26.326564,1046.7769 43.642785,1041.7179 43.642785,1031.2241 43.642785,1021.2796 40.332756,1011.2483 40.300956,1011.1326"
       id="path232"
       style="fill:#ffffff;fill-opacity:1;fill-rule:nonzero;stroke:none" />
    <path
       d="M 77.945181,1030.8896 79.121759,1034.4165 76.262704,1032.3061 75.282704,1031.5835 74.305596,1032.3061 71.44654,1034.4165 72.623117,1030.8896 72.993147,1029.7622 72.068074,1029.0394 69.764063,1027.2471 73.606008,1027.2471 74.010727,1026.1776 75.282704,1022.8241 76.55757,1026.1776 76.962291,1027.2471 80.804237,1027.2471 78.500225,1029.0394 77.575152,1029.7622 77.945181,1030.8896 z M 78.104178,1025.5993 75.282704,1018.1409 72.46123,1025.5993 64.939226,1025.5993 71.050493,1030.3693 68.229018,1038.8106 75.282704,1033.636 82.336389,1038.8106 79.514916,1030.3693 85.629073,1025.5993 78.104178,1025.5993 z M 75.308721,1045.4884 C 73.617572,1045.1126 58.755688,1040.0826 58.755688,1031.4389 58.755688,1023.3445 61.016336,1015.6548 61.785304,1012.7351 63.881172,1013.6312 69.295744,1015.7126 75.308721,1015.7126 81.324591,1015.7126 86.739162,1013.6312 88.835031,1012.7351 89.603998,1015.6548 91.861756,1023.3445 91.861756,1031.4389 91.861756,1040.0826 77.002762,1045.1126 75.308721,1045.4884 z M 90.176387,1011.3474 C 90.107007,1011.0873 89.939338,1010.9138 89.713851,1010.7982 89.488364,1010.7115 89.231078,1010.7115 89.011373,1010.8271 88.944883,1010.856 82.480932,1014.036 75.308721,1014.036 68.153856,1014.036 61.675451,1010.856 61.608962,1010.8271 61.389256,1010.7115 61.13197,1010.7115 60.906483,1010.7982 60.680997,1010.9138 60.510437,1011.0873 60.443947,1011.3474 60.409256,1011.4631 57.102119,1021.4944 57.102119,1031.4389 57.102119,1041.9327 74.415448,1046.9917 75.155506,1047.1363 75.204651,1047.1363 75.256686,1047.1363 75.308721,1047.1363 75.360757,1047.1363 75.412793,1047.1363 75.464828,1047.1363 76.201995,1046.9917 93.518217,1041.9327 93.518217,1031.4389 93.518217,1021.4944 90.208188,1011.4631 90.176387,1011.3474"
       id="path232-6"
       style="fill:#2a8fbd;fill-opacity:1;fill-rule:nonzero;stroke:none" />
  </g>
</svg>
