<?xml version="1.0" encoding="UTF-8" standalone="no"?>
<!-- Created with Inkscape (http://www.inkscape.org/) -->

<svg
   xmlns:dc="http://purl.org/dc/elements/1.1/"
   xmlns:cc="http://creativecommons.org/ns#"
   xmlns:rdf="http://www.w3.org/1999/02/22-rdf-syntax-ns#"
   xmlns:svg="http://www.w3.org/2000/svg"
   xmlns="http://www.w3.org/2000/svg"
   version="1.1"
   width="100"
   height="50"
   id="svg2">
  <defs
     id="defs4" />
  <metadata
     id="metadata7">
    <rdf:RDF>
      <cc:Work
         rdf:about="">
        <dc:format>image/svg+xml</dc:format>
        <dc:type
           rdf:resource="http://purl.org/dc/dcmitype/StillImage" />
        <dc:title></dc:title>
      </cc:Work>
    </rdf:RDF>
  </metadata>
  <g
     transform="translate(0,-1002.3622)"
     id="layer1">
    <path
       d="M 25.224125,1044.948 C 15.444493,1044.948 7.5168823,1037.0314 7.5168823,1027.2287 7.5168823,1017.4567 15.444493,1009.5402 25.224125,1009.5402 35.003757,1009.5402 42.930438,1017.4567 42.930438,1027.2287 42.930438,1037.0314 35.003757,1044.948 25.224125,1044.948 z M 25.224125,1007.7776 C 14.467303,1007.7776 5.7458804,1016.4981 5.7458804,1027.2287 5.7458804,1037.9901 14.467303,1046.7106 25.224125,1046.7106 35.980947,1046.7106 44.70144,1037.9901 44.70144,1027.2287 44.70144,1016.4981 35.980947,1007.7776 25.224125,1007.7776 z M 31.420932,1037.9591 C 30.996968,1038.2066 30.853173,1038.7631 31.097161,1039.1961 31.341459,1039.5982 31.883551,1039.7528 32.306588,1039.5053 32.730553,1039.258 32.875276,1038.7323 32.631287,1038.2993 32.386063,1037.8664 31.844897,1037.7426 31.420932,1037.9591 z M 25.224125,1029.0222 C 24.246935,1029.0222 23.453432,1028.2182 23.453432,1027.2287 23.453432,1026.27 24.246935,1025.466 25.224125,1025.466 26.201315,1025.466 26.995127,1026.27 26.995127,1027.2287 26.995127,1028.2182 26.201315,1029.0222 25.224125,1029.0222 z M 33.191935,1026.3628 28.639033,1026.3628 C 28.317735,1025.1258 27.348895,1024.1362 26.10978,1023.827 L 26.10978,1013.9624 C 26.10978,1013.4676 25.712101,1013.0655 25.224125,1013.0655 24.734911,1013.0655 24.338779,1013.4676 24.338779,1013.9624 L 24.338779,1023.827 C 22.814238,1024.2291 21.682429,1025.5896 21.682429,1027.2287 21.682429,1029.2078 23.268507,1030.7849 25.224125,1030.7849 26.872978,1030.7849 28.245374,1029.6407 28.639033,1028.1254 L 33.191935,1028.1254 C 33.681148,1028.1254 34.077281,1027.7234 34.077281,1027.2287 34.077281,1026.7648 33.681148,1026.3628 33.191935,1026.3628 z M 36.281834,1019.8378 C 35.859107,1020.0853 35.714075,1020.6109 35.9593,1021.0439 36.202051,1021.4768 36.744454,1021.6005 37.167181,1021.3532 37.591145,1021.1366 37.736178,1020.58 37.490953,1020.1471 37.246965,1019.7451 36.705799,1019.5905 36.281834,1019.8378 z M 25.224125,1039.6291 C 24.734911,1039.6291 24.338779,1040.0311 24.338779,1040.5258 24.338779,1041.0206 24.734911,1041.3918 25.224125,1041.3918 25.712101,1041.3918 26.10978,1041.0206 26.10978,1040.5258 26.10978,1040.0311 25.712101,1039.6291 25.224125,1039.6291 z M 37.167181,1033.1041 C 36.744454,1032.8568 36.202051,1033.0114 35.9593,1033.4443 35.714075,1033.8463 35.859107,1034.4029 36.281834,1034.6504 36.705799,1034.8977 37.246965,1034.7431 37.490953,1034.3102 37.736178,1033.9082 37.591145,1033.3515 37.167181,1033.1041 z M 14.166414,1019.8378 C 13.74245,1019.5905 13.201284,1019.7451 12.956059,1020.1471 12.71207,1020.58 12.857103,1021.1366 13.281067,1021.3532 13.703795,1021.6005 14.246197,1021.4768 14.488949,1021.0439 14.734175,1020.6109 14.589451,1020.0853 14.166414,1019.8378 z M 31.420932,1016.4981 C 31.844897,1016.7455 32.386063,1016.5908 32.631287,1016.1889 32.875276,1015.7559 32.730553,1015.2302 32.306588,1014.9829 31.883551,1014.7354 31.341459,1014.8591 31.097161,1015.2921 30.853173,1015.725 30.996968,1016.2507 31.420932,1016.4981 z M 11.943925,1026.3628 C 11.454711,1026.3628 11.058578,1026.7648 11.058578,1027.2287 11.058578,1027.7234 11.454711,1028.1254 11.943925,1028.1254 12.433139,1028.1254 12.829272,1027.7234 12.829272,1027.2287 12.829272,1026.7648 12.433139,1026.3628 11.943925,1026.3628 z M 18.140733,1014.9829 C 17.718006,1015.2302 17.572974,1015.7559 17.816962,1016.1889 18.06095,1016.5908 18.603353,1016.7455 19.02608,1016.4981 19.450045,1016.2507 19.595077,1015.725 19.351089,1015.2921 19.105863,1014.8591 18.565934,1014.7354 18.140733,1014.9829 z M 13.281067,1033.1041 C 12.857103,1033.3515 12.71207,1033.9082 12.956059,1034.3102 13.201284,1034.7431 13.74245,1034.8977 14.166414,1034.6504 14.589451,1034.4029 14.734175,1033.8463 14.488949,1033.4443 14.246197,1033.0114 13.703795,1032.8568 13.281067,1033.1041 z M 19.02608,1037.9591 C 18.603353,1037.7426 18.06095,1037.8664 17.816962,1038.2993 17.572974,1038.7323 17.718006,1039.258 18.140733,1039.5053 18.565934,1039.7528 19.105863,1039.5982 19.351089,1039.1961 19.595077,1038.7631 19.450045,1038.2066 19.02608,1037.9591 z M 38.504633,1026.3628 C 38.015419,1026.3628 37.618977,1026.7648 37.618977,1027.2287 37.618977,1027.7234 38.015419,1028.1254 38.504633,1028.1254 38.992609,1028.1254 39.389979,1027.7234 39.389979,1027.2287 39.389979,1026.7648 38.992609,1026.3628 38.504633,1026.3628"
       id="path46"
       style="fill:#ffffff;fill-opacity:1;fill-rule:nonzero;stroke:none" />
    <path
       d="M 75.099556,1045.0572 C 65.319924,1045.0572 57.392314,1037.1406 57.392314,1027.3379 57.392314,1017.5659 65.319924,1009.6494 75.099556,1009.6494 84.879188,1009.6494 92.805869,1017.5659 92.805869,1027.3379 92.805869,1037.1406 84.879188,1045.0572 75.099556,1045.0572 z M 75.099556,1007.8868 C 64.342734,1007.8868 55.621312,1016.6073 55.621312,1027.3379 55.621312,1038.0993 64.342734,1046.8198 75.099556,1046.8198 85.856378,1046.8198 94.576871,1038.0993 94.576871,1027.3379 94.576871,1016.6073 85.856378,1007.8868 75.099556,1007.8868 z M 81.296363,1038.0683 C 80.872399,1038.3158 80.728604,1038.8723 80.972592,1039.3053 81.21689,1039.7074 81.758982,1039.862 82.182019,1039.6145 82.605984,1039.3672 82.750707,1038.8415 82.506718,1038.4085 82.261494,1037.9756 81.720328,1037.8518 81.296363,1038.0683 z M 75.099556,1029.1314 C 74.122366,1029.1314 73.328863,1028.3274 73.328863,1027.3379 73.328863,1026.3792 74.122366,1025.5752 75.099556,1025.5752 76.076746,1025.5752 76.870558,1026.3792 76.870558,1027.3379 76.870558,1028.3274 76.076746,1029.1314 75.099556,1029.1314 z M 83.067366,1026.472 78.514464,1026.472 C 78.193166,1025.235 77.224326,1024.2454 75.985211,1023.9362 L 75.985211,1014.0716 C 75.985211,1013.5768 75.587532,1013.1747 75.099556,1013.1747 74.610342,1013.1747 74.21421,1013.5768 74.21421,1014.0716 L 74.21421,1023.9362 C 72.689669,1024.3383 71.55786,1025.6988 71.55786,1027.3379 71.55786,1029.317 73.143938,1030.8941 75.099556,1030.8941 76.748409,1030.8941 78.120805,1029.7499 78.514464,1028.2346 L 83.067366,1028.2346 C 83.556579,1028.2346 83.952712,1027.8326 83.952712,1027.3379 83.952712,1026.874 83.556579,1026.472 83.067366,1026.472 z M 86.157266,1019.947 C 85.734538,1020.1945 85.589506,1020.7201 85.834731,1021.1531 86.077482,1021.586 86.619885,1021.7097 87.042612,1021.4624 87.466576,1021.2458 87.611609,1020.6892 87.366384,1020.2563 87.122397,1019.8543 86.58123,1019.6997 86.157266,1019.947 z M 75.099556,1039.7383 C 74.610342,1039.7383 74.21421,1040.1403 74.21421,1040.635 74.21421,1041.1298 74.610342,1041.501 75.099556,1041.501 75.587532,1041.501 75.985211,1041.1298 75.985211,1040.635 75.985211,1040.1403 75.587532,1039.7383 75.099556,1039.7383 z M 87.042612,1033.2133 C 86.619885,1032.966 86.077482,1033.1206 85.834731,1033.5535 85.589506,1033.9555 85.734538,1034.5121 86.157266,1034.7596 86.58123,1035.0069 87.122397,1034.8523 87.366384,1034.4194 87.611609,1034.0174 87.466576,1033.4607 87.042612,1033.2133 z M 64.041845,1019.947 C 63.617881,1019.6997 63.076715,1019.8543 62.83149,1020.2563 62.587501,1020.6892 62.732534,1021.2458 63.156498,1021.4624 63.579226,1021.7097 64.121628,1021.586 64.36438,1021.1531 64.609606,1020.7201 64.464882,1020.1945 64.041845,1019.947 z M 81.296363,1016.6073 C 81.720328,1016.8547 82.261494,1016.7 82.506718,1016.2981 82.750707,1015.8651 82.605984,1015.3394 82.182019,1015.0921 81.758982,1014.8446 81.21689,1014.9683 80.972592,1015.4013 80.728604,1015.8342 80.872399,1016.3599 81.296363,1016.6073 z M 61.819356,1026.472 C 61.330142,1026.472 60.934009,1026.874 60.934009,1027.3379 60.934009,1027.8326 61.330142,1028.2346 61.819356,1028.2346 62.30857,1028.2346 62.704703,1027.8326 62.704703,1027.3379 62.704703,1026.874 62.30857,1026.472 61.819356,1026.472 z M 68.016164,1015.0921 C 67.593437,1015.3394 67.448405,1015.8651 67.692393,1016.2981 67.936381,1016.7 68.478784,1016.8547 68.901511,1016.6073 69.325476,1016.3599 69.470508,1015.8342 69.22652,1015.4013 68.981294,1014.9683 68.441365,1014.8446 68.016164,1015.0921 z M 63.156498,1033.2133 C 62.732534,1033.4607 62.587501,1034.0174 62.83149,1034.4194 63.076715,1034.8523 63.617881,1035.0069 64.041845,1034.7596 64.464882,1034.5121 64.609606,1033.9555 64.36438,1033.5535 64.121628,1033.1206 63.579226,1032.966 63.156498,1033.2133 z M 68.901511,1038.0683 C 68.478784,1037.8518 67.936381,1037.9756 67.692393,1038.4085 67.448405,1038.8415 67.593437,1039.3672 68.016164,1039.6145 68.441365,1039.862 68.981294,1039.7074 69.22652,1039.3053 69.470508,1038.8723 69.325476,1038.3158 68.901511,1038.0683 z M 88.380064,1026.472 C 87.89085,1026.472 87.494408,1026.874 87.494408,1027.3379 87.494408,1027.8326 87.89085,1028.2346 88.380064,1028.2346 88.86804,1028.2346 89.26541,1027.8326 89.26541,1027.3379 89.26541,1026.874 88.86804,1026.472 88.380064,1026.472"
       id="path46-2"
       style="fill:#2a8fbd;fill-opacity:1;fill-rule:nonzero;stroke:none" />
  </g>
</svg>
