<?xml version="1.0" encoding="UTF-8" standalone="no"?>
<!-- Created with Inkscape (http://www.inkscape.org/) -->

<svg
   xmlns:dc="http://purl.org/dc/elements/1.1/"
   xmlns:cc="http://creativecommons.org/ns#"
   xmlns:rdf="http://www.w3.org/1999/02/22-rdf-syntax-ns#"
   xmlns:svg="http://www.w3.org/2000/svg"
   xmlns="http://www.w3.org/2000/svg"
   xmlns:sodipodi="http://sodipodi.sourceforge.net/DTD/sodipodi-0.dtd"
   xmlns:inkscape="http://www.inkscape.org/namespaces/inkscape"
   version="1.1"
   width="100"
   height="50"
   id="svg2"
   inkscape:version="0.48.5 r10040"
   sodipodi:docname="multimedia.svg">
  <sodipodi:namedview
     pagecolor="#ffffff"
     bordercolor="#666666"
     borderopacity="1"
     objecttolerance="10"
     gridtolerance="10"
     guidetolerance="10"
     inkscape:pageopacity="0"
     inkscape:pageshadow="2"
     inkscape:window-width="1920"
     inkscape:window-height="1014"
     id="namedview10"
     showgrid="false"
     inkscape:zoom="9.4752309"
     inkscape:cx="36.807123"
     inkscape:cy="17.708356"
     inkscape:window-x="0"
     inkscape:window-y="27"
     inkscape:window-maximized="1"
     inkscape:current-layer="layer1" />
  <defs
     id="defs4" />
  <metadata
     id="metadata7">
    <rdf:RDF>
      <cc:Work
         rdf:about="">
        <dc:format>image/svg+xml</dc:format>
        <dc:type
           rdf:resource="http://purl.org/dc/dcmitype/StillImage" />
        <dc:title></dc:title>
      </cc:Work>
    </rdf:RDF>
  </metadata>
  <g
     transform="translate(0,-1002.3622)"
     id="layer1">
    <path
       d="M 44.242742,1034.2897 42.425248,1033.3692 42.425248,1021.7837 44.242742,1020.8633 44.242742,1034.2897 z M 40.608707,1032.4488 36.973403,1030.6395 36.973403,1024.5136 40.608707,1022.6725 40.608707,1032.4488 z M 35.155909,1022.1329 7.8931914,1022.1329 7.8931914,1018.4827 C 7.8931914,1017.4988 8.7076676,1016.6735 9.7110024,1016.6735 L 33.338099,1016.6735 C 34.341116,1016.6735 35.155909,1017.4988 35.155909,1018.4827 L 35.155909,1022.1329 z M 35.155909,1036.6703 C 35.155909,1037.6544 34.341116,1038.4796 33.338099,1038.4796 L 9.7110024,1038.4796 C 8.7076676,1038.4796 7.8931914,1037.6544 7.8931914,1036.6703 L 7.8931914,1023.9422 35.155909,1023.9422 35.155909,1036.6703 z M 45.151806,1018.4827 C 45.005479,1018.4827 44.871532,1018.5145 44.749964,1018.5779 L 44.746154,1018.5779 36.973403,1022.4504 36.973403,1018.4827 C 36.973403,1016.483 35.345403,1014.8324 33.338099,1014.8324 L 9.7110024,1014.8324 C 7.7033798,1014.8324 6.0753805,1016.483 6.0753805,1018.4827 L 6.0753805,1036.6703 C 6.0753805,1038.67 7.7033798,1040.2889 9.7110024,1040.2889 L 33.338099,1040.2889 C 35.345403,1040.2889 36.973403,1038.67 36.973403,1036.6703 L 36.973403,1032.6709 44.746154,1036.5434 44.749964,1036.5434 C 44.871532,1036.6068 45.005479,1036.6703 45.151806,1036.6703 45.65395,1036.6703 46.060552,1036.2577 46.060552,1035.7499 L 46.060552,1019.4032 C 46.060552,1018.8953 45.65395,1018.4827 45.151806,1018.4827 z M 28.794049,1018.4827 C 28.292857,1018.4827 27.886254,1018.8953 27.886254,1019.4032 27.886254,1019.8793 28.292857,1020.2919 28.794049,1020.2919 29.296192,1020.2919 29.702795,1019.8793 29.702795,1019.4032 29.702795,1018.8953 29.296192,1018.4827 28.794049,1018.4827 z M 32.429352,1018.4827 C 31.928478,1018.4827 31.520288,1018.8953 31.520288,1019.4032 31.520288,1019.8793 31.928478,1020.2919 32.429352,1020.2919 32.931496,1020.2919 33.338099,1019.8793 33.338099,1019.4032 33.338099,1018.8953 32.931496,1018.4827 32.429352,1018.4827 z M 16.071594,1027.5607 C 17.578026,1027.5607 18.797835,1028.7985 18.797835,1030.2904 18.797835,1031.814 17.578026,1033.0202 16.071594,1033.0202 14.566116,1033.0202 13.346307,1031.814 13.346307,1030.2904 13.346307,1028.7985 14.566116,1027.5607 16.071594,1027.5607 z M 26.977506,1027.5607 C 28.482668,1027.5607 29.702795,1028.7985 29.702795,1030.2904 29.702795,1031.814 28.482668,1033.0202 26.977506,1033.0202 25.471076,1033.0202 24.25095,1031.814 24.25095,1030.2904 24.25095,1028.7985 25.471076,1027.5607 26.977506,1027.5607 z M 16.071594,1034.8294 26.977506,1034.8294 C 29.486956,1034.8294 31.520288,1032.7979 31.520288,1030.2904 31.520288,1027.7828 29.486956,1025.7514 26.977506,1025.7514 24.468058,1025.7514 22.433456,1027.7828 22.433456,1030.2904 22.433456,1031.3378 22.788004,1032.2583 23.361882,1033.0202 L 19.685632,1033.0202 C 20.261098,1032.2583 20.615646,1031.3378 20.615646,1030.2904 20.615646,1027.7828 18.581043,1025.7514 16.071594,1025.7514 13.563098,1025.7514 11.528496,1027.7828 11.528496,1030.2904 11.528496,1032.7979 13.563098,1034.8294 16.071594,1034.8294"
       style="fill:#ffffff;fill-opacity:1;fill-rule:nonzero;stroke:none"
       id="path270"
       inkscape:connector-curvature="0" />
    <path
       d="M 94.118173,1034.2933 92.30068,1033.3728 92.30068,1021.7873 94.118173,1020.8669 94.118173,1034.2933 z M 90.484139,1032.4524 86.848834,1030.6431 86.848834,1024.5172 90.484139,1022.6761 90.484139,1032.4524 z M 85.03134,1022.1365 57.768623,1022.1365 57.768623,1018.4863 C 57.768623,1017.5024 58.583099,1016.6771 59.586434,1016.6771 L 83.21353,1016.6771 C 84.216547,1016.6771 85.03134,1017.5024 85.03134,1018.4863 L 85.03134,1022.1365 z M 85.03134,1036.6739 C 85.03134,1037.658 84.216547,1038.4832 83.21353,1038.4832 L 59.586434,1038.4832 C 58.583099,1038.4832 57.768623,1037.658 57.768623,1036.6739 L 57.768623,1023.9458 85.03134,1023.9458 85.03134,1036.6739 z M 95.027237,1018.4863 C 94.88091,1018.4863 94.746963,1018.5181 94.625395,1018.5815 L 94.621585,1018.5815 86.848834,1022.454 86.848834,1018.4863 C 86.848834,1016.4866 85.220834,1014.836 83.21353,1014.836 L 59.586434,1014.836 C 57.578812,1014.836 55.950812,1016.4866 55.950812,1018.4863 L 55.950812,1036.6739 C 55.950812,1038.6736 57.578812,1040.2925 59.586434,1040.2925 L 83.21353,1040.2925 C 85.220834,1040.2925 86.848834,1038.6736 86.848834,1036.6739 L 86.848834,1032.6745 94.621585,1036.547 94.625395,1036.547 C 94.746963,1036.6104 94.88091,1036.6739 95.027237,1036.6739 95.529381,1036.6739 95.935983,1036.2613 95.935983,1035.7535 L 95.935983,1019.4068 C 95.935983,1018.8989 95.529381,1018.4863 95.027237,1018.4863 z M 78.66948,1018.4863 C 78.168288,1018.4863 77.761685,1018.8989 77.761685,1019.4068 77.761685,1019.8829 78.168288,1020.2955 78.66948,1020.2955 79.171623,1020.2955 79.578226,1019.8829 79.578226,1019.4068 79.578226,1018.8989 79.171623,1018.4863 78.66948,1018.4863 z M 82.304783,1018.4863 C 81.803909,1018.4863 81.395719,1018.8989 81.395719,1019.4068 81.395719,1019.8829 81.803909,1020.2955 82.304783,1020.2955 82.806928,1020.2955 83.21353,1019.8829 83.21353,1019.4068 83.21353,1018.8989 82.806928,1018.4863 82.304783,1018.4863 z M 65.947025,1027.5643 C 67.453457,1027.5643 68.673266,1028.8021 68.673266,1030.294 68.673266,1031.8176 67.453457,1033.0238 65.947025,1033.0238 64.441547,1033.0238 63.221738,1031.8176 63.221738,1030.294 63.221738,1028.8021 64.441547,1027.5643 65.947025,1027.5643 z M 76.852937,1027.5643 C 78.358099,1027.5643 79.578226,1028.8021 79.578226,1030.294 79.578226,1031.8176 78.358099,1033.0238 76.852937,1033.0238 75.346507,1033.0238 74.126381,1031.8176 74.126381,1030.294 74.126381,1028.8021 75.346507,1027.5643 76.852937,1027.5643 z M 65.947025,1034.833 76.852937,1034.833 C 79.362387,1034.833 81.395719,1032.8015 81.395719,1030.294 81.395719,1027.7864 79.362387,1025.755 76.852937,1025.755 74.343489,1025.755 72.308887,1027.7864 72.308887,1030.294 72.308887,1031.3414 72.663435,1032.2619 73.237313,1033.0238 L 69.561063,1033.0238 C 70.136529,1032.2619 70.491077,1031.3414 70.491077,1030.294 70.491077,1027.7864 68.456474,1025.755 65.947025,1025.755 63.438529,1025.755 61.403927,1027.7864 61.403927,1030.294 61.403927,1032.8015 63.438529,1034.833 65.947025,1034.833"
       style="fill:#2a8fbd;fill-opacity:1;fill-rule:nonzero;stroke:none"
       id="path270-7"
       inkscape:connector-curvature="0" />
  </g>
</svg>
