<?xml version="1.0" encoding="UTF-8" standalone="no"?>
<!-- Created with Inkscape (http://www.inkscape.org/) -->

<svg
   xmlns:dc="http://purl.org/dc/elements/1.1/"
   xmlns:cc="http://creativecommons.org/ns#"
   xmlns:rdf="http://www.w3.org/1999/02/22-rdf-syntax-ns#"
   xmlns:svg="http://www.w3.org/2000/svg"
   xmlns="http://www.w3.org/2000/svg"
   version="1.1"
   width="100"
   height="50"
   id="svg2">
  <defs
     id="defs4" />
  <metadata
     id="metadata7">
    <rdf:RDF>
      <cc:Work
         rdf:about="">
        <dc:format>image/svg+xml</dc:format>
        <dc:type
           rdf:resource="http://purl.org/dc/dcmitype/StillImage" />
        <dc:title></dc:title>
      </cc:Work>
    </rdf:RDF>
  </metadata>
  <g
     transform="translate(0,-1002.3622)"
     id="layer1">
    <path
       d="M 25.900407,1030.8984 12.905626,1030.8984 C 12.427586,1030.8984 12.040308,1031.2886 12.040308,1031.7637 12.040308,1032.2417 12.427586,1032.632 12.905626,1032.632 L 25.900407,1032.632 C 28.768646,1032.632 31.098323,1034.9617 31.098323,1037.8269 31.098323,1040.6951 28.768646,1043.0248 25.900407,1043.0248 L 25.032075,1043.0248 C 24.554035,1043.0248 24.166767,1043.4151 24.166767,1043.8931 24.166767,1044.3682 24.554035,1044.7585 25.032075,1044.7585 L 25.900407,1044.7585 C 29.724717,1044.7585 32.828949,1041.6573 32.828949,1037.8269 32.828949,1033.9995 29.724717,1030.8984 25.900407,1030.8984 z M 38.026865,1027.4341 9.4413495,1027.4341 C 8.9633175,1027.4341 8.5760405,1027.8244 8.5760405,1028.2994 8.5760405,1028.7774 8.9633175,1029.1647 9.4413495,1029.1647 L 38.026865,1029.1647 C 39.939016,1029.1647 41.491132,1030.7169 41.491132,1032.632 41.491132,1034.5442 39.939016,1036.0963 38.026865,1036.0963 L 37.158524,1036.0963 C 36.680484,1036.0963 36.293215,1036.4866 36.293215,1036.9616 36.293215,1037.4366 36.680484,1037.8269 37.158524,1037.8269 L 38.026865,1037.8269 C 40.895095,1037.8269 43.224781,1035.4972 43.224781,1032.632 43.224781,1029.7637 40.895095,1027.4341 38.026865,1027.4341 z M 36.293215,1022.2362 C 36.293215,1020.321 34.744131,1018.7719 32.828949,1018.7719 L 31.96364,1018.7719 C 31.482569,1018.7719 31.098323,1019.1621 31.098323,1019.6372 31.098323,1020.1152 31.482569,1020.5055 31.96364,1020.5055 L 32.828949,1020.5055 C 33.785029,1020.5055 34.562598,1021.2831 34.562598,1022.2362 34.562598,1023.1892 33.785029,1023.9698 32.828949,1023.9698 L 5.9770825,1023.9698 C 5.4960195,1023.9698 5.1117741,1024.357 5.1117741,1024.8351 5.1117741,1025.3101 5.4960195,1025.7005 5.9770825,1025.7005 L 32.828949,1025.7005 C 34.744131,1025.7005 36.293215,1024.1513 36.293215,1022.2362 z M 9.4413495,1022.2362 22.433117,1022.2362 C 25.304371,1022.2362 27.631033,1019.9065 27.631033,1017.0383 27.631033,1014.173 25.304371,1011.8404 22.433117,1011.8404 L 21.567808,1011.8404 C 21.089769,1011.8404 20.7025,1012.2307 20.7025,1012.7087 20.7025,1013.1838 21.089769,1013.5741 21.567808,1013.5741 L 22.433117,1013.5741 C 24.3483,1013.5741 25.900407,1015.1231 25.900407,1017.0383 25.900407,1018.9534 24.3483,1020.5055 22.433117,1020.5055 L 9.4413495,1020.5055 C 8.9633175,1020.5055 8.5760405,1020.8928 8.5760405,1021.3708 8.5760405,1021.8459 8.9633175,1022.2362 9.4413495,1022.2362"
       id="path760"
       style="fill:#ffffff;fill-opacity:1;fill-rule:nonzero;stroke:none" />
    <path
       d="M 75.881376,1030.9021 62.886595,1030.9021 C 62.408555,1030.9021 62.021277,1031.2923 62.021277,1031.7674 62.021277,1032.2454 62.408555,1032.6357 62.886595,1032.6357 L 75.881376,1032.6357 C 78.749615,1032.6357 81.079292,1034.9654 81.079292,1037.8306 81.079292,1040.6988 78.749615,1043.0285 75.881376,1043.0285 L 75.013044,1043.0285 C 74.535004,1043.0285 74.147736,1043.4188 74.147736,1043.8968 74.147736,1044.3719 74.535004,1044.7622 75.013044,1044.7622 L 75.881376,1044.7622 C 79.705686,1044.7622 82.809918,1041.661 82.809918,1037.8306 82.809918,1034.0032 79.705686,1030.9021 75.881376,1030.9021 z M 88.007834,1027.4378 59.422319,1027.4378 C 58.944287,1027.4378 58.55701,1027.8281 58.55701,1028.3031 58.55701,1028.7811 58.944287,1029.1684 59.422319,1029.1684 L 88.007834,1029.1684 C 89.919985,1029.1684 91.472101,1030.7206 91.472101,1032.6357 91.472101,1034.5479 89.919985,1036.1 88.007834,1036.1 L 87.139493,1036.1 C 86.661453,1036.1 86.274184,1036.4903 86.274184,1036.9653 86.274184,1037.4403 86.661453,1037.8306 87.139493,1037.8306 L 88.007834,1037.8306 C 90.876064,1037.8306 93.20575,1035.5009 93.20575,1032.6357 93.20575,1029.7674 90.876064,1027.4378 88.007834,1027.4378 z M 86.274184,1022.2399 C 86.274184,1020.3247 84.725101,1018.7756 82.809918,1018.7756 L 81.944609,1018.7756 C 81.463538,1018.7756 81.079292,1019.1658 81.079292,1019.6409 81.079292,1020.1189 81.463538,1020.5092 81.944609,1020.5092 L 82.809918,1020.5092 C 83.765998,1020.5092 84.543567,1021.2868 84.543567,1022.2399 84.543567,1023.1929 83.765998,1023.9735 82.809918,1023.9735 L 55.958052,1023.9735 C 55.476989,1023.9735 55.092744,1024.3607 55.092744,1024.8388 55.092744,1025.3138 55.476989,1025.7042 55.958052,1025.7042 L 82.809918,1025.7042 C 84.725101,1025.7042 86.274184,1024.155 86.274184,1022.2399 z M 59.422319,1022.2399 72.414086,1022.2399 C 75.28534,1022.2399 77.612002,1019.9102 77.612002,1017.042 77.612002,1014.1767 75.28534,1011.8441 72.414086,1011.8441 L 71.548777,1011.8441 C 71.070738,1011.8441 70.683469,1012.2344 70.683469,1012.7124 70.683469,1013.1875 71.070738,1013.5778 71.548777,1013.5778 L 72.414086,1013.5778 C 74.329269,1013.5778 75.881376,1015.1268 75.881376,1017.042 75.881376,1018.9571 74.329269,1020.5092 72.414086,1020.5092 L 59.422319,1020.5092 C 58.944287,1020.5092 58.55701,1020.8965 58.55701,1021.3745 58.55701,1021.8496 58.944287,1022.2399 59.422319,1022.2399"
       id="path760-9"
       style="fill:#2a8fbd;fill-opacity:1;fill-rule:nonzero;stroke:none" />
  </g>
</svg>
