<?xml version="1.0" encoding="UTF-8" standalone="no"?>
<!-- Created with Inkscape (http://www.inkscape.org/) -->

<svg
   xmlns:dc="http://purl.org/dc/elements/1.1/"
   xmlns:cc="http://creativecommons.org/ns#"
   xmlns:rdf="http://www.w3.org/1999/02/22-rdf-syntax-ns#"
   xmlns:svg="http://www.w3.org/2000/svg"
   xmlns="http://www.w3.org/2000/svg"
   version="1.1"
   width="100"
   height="50"
   id="svg2">
  <defs
     id="defs4" />
  <metadata
     id="metadata7">
    <rdf:RDF>
      <cc:Work
         rdf:about="">
        <dc:format>image/svg+xml</dc:format>
        <dc:type
           rdf:resource="http://purl.org/dc/dcmitype/StillImage" />
        <dc:title></dc:title>
      </cc:Work>
    </rdf:RDF>
  </metadata>
  <g
     transform="translate(0,-1002.3622)"
     id="layer1">
    <path
       d="M 22.21282,1034.8563 23.862727,1039.7896 19.814705,1036.8296 18.885607,1036.1444 17.959247,1036.8296 13.908479,1039.7896 15.561124,1034.8563 15.914678,1033.7874 15.023943,1033.1023 11.765246,1030.6082 16.767035,1030.6082 17.147991,1029.5942 18.885607,1024.9349 20.625954,1029.5942 21.006909,1030.6082 26.008706,1030.6082 22.750002,1033.1023 21.859273,1033.7874 22.21282,1034.8563 z M 22.09771,1029.0461 18.885607,1020.4402 15.676234,1029.0461 7.1170025,1029.0461 14.070183,1034.3356 10.86081,1043.9829 18.885607,1038.0904 26.913134,1043.9829 23.701031,1034.3356 30.656941,1029.0461 22.09771,1029.0461 z M 33.940315,1021.1254 33.01121,1020.4676 32.082112,1021.1254 30.174577,1022.5231 30.969387,1020.1387 31.322933,1019.0973 30.43769,1018.4121 28.985112,1017.2884 31.742266,1017.2884 32.125967,1016.2743 33.01121,1013.9173 33.896461,1016.2743 34.277415,1017.2884 37.037308,1017.2884 35.584738,1018.4121 34.699486,1019.0973 35.053041,1020.1387 35.847843,1022.5231 33.940315,1021.1254 z M 41.641704,1015.7262 35.365478,1015.7262 33.01121,1009.4499 30.656941,1015.7262 24.377985,1015.7262 29.481177,1019.6453 27.12417,1026.7164 33.01121,1022.3861 38.895512,1026.7164 36.541243,1019.6453 41.641704,1015.7262"
       id="path154"
       style="fill:#ffffff;fill-opacity:1;fill-rule:nonzero;stroke:none" />
    <path
       d="M 72.088252,1034.9655 73.738159,1039.8988 69.690137,1036.9388 68.761039,1036.2536 67.834679,1036.9388 63.783911,1039.8988 65.436556,1034.9655 65.79011,1033.8966 64.899375,1033.2115 61.640678,1030.7174 66.642467,1030.7174 67.023423,1029.7034 68.761039,1025.0441 70.501386,1029.7034 70.882341,1030.7174 75.884138,1030.7174 72.625434,1033.2115 71.734705,1033.8966 72.088252,1034.9655 z M 71.973142,1029.1553 68.761039,1020.5494 65.551666,1029.1553 56.992435,1029.1553 63.945615,1034.4448 60.736242,1044.0921 68.761039,1038.1996 76.788566,1044.0921 73.576463,1034.4448 80.532373,1029.1553 71.973142,1029.1553 z M 83.815747,1021.2346 82.886642,1020.5768 81.957544,1021.2346 80.050009,1022.6323 80.844819,1020.2479 81.198365,1019.2065 80.313122,1018.5213 78.860544,1017.3976 81.617698,1017.3976 82.0014,1016.3835 82.886642,1014.0265 83.771893,1016.3835 84.152847,1017.3976 86.912741,1017.3976 85.46017,1018.5213 84.574918,1019.2065 84.928473,1020.2479 85.723275,1022.6323 83.815747,1021.2346 z M 91.517136,1015.8354 85.240911,1015.8354 82.886642,1009.5591 80.532373,1015.8354 74.253417,1015.8354 79.356609,1019.7545 76.999602,1026.8256 82.886642,1022.4953 88.770944,1026.8256 86.416675,1019.7545 91.517136,1015.8354"
       id="path154-7"
       style="fill:#2a8fbd;fill-opacity:1;fill-rule:nonzero;stroke:none" />
  </g>
</svg>
