<?xml version="1.0" encoding="UTF-8" standalone="no"?>
<!-- Created with Inkscape (http://www.inkscape.org/) -->

<svg
   xmlns:dc="http://purl.org/dc/elements/1.1/"
   xmlns:cc="http://creativecommons.org/ns#"
   xmlns:rdf="http://www.w3.org/1999/02/22-rdf-syntax-ns#"
   xmlns:svg="http://www.w3.org/2000/svg"
   xmlns="http://www.w3.org/2000/svg"
   version="1.1"
   width="100"
   height="50"
   id="svg2">
  <defs
     id="defs4" />
  <metadata
     id="metadata7">
    <rdf:RDF>
      <cc:Work
         rdf:about="">
        <dc:format>image/svg+xml</dc:format>
        <dc:type
           rdf:resource="http://purl.org/dc/dcmitype/StillImage" />
        <dc:title></dc:title>
      </cc:Work>
    </rdf:RDF>
  </metadata>
  <g
     transform="translate(0,-1002.3622)"
     id="layer1">
    <path
       d="M 25.118168,1039.9557 C 24.628924,1039.9557 24.232765,1040.3547 24.232765,1040.8401 L 24.232765,1046.1532 C 24.232765,1046.6418 24.628924,1047.0377 25.118168,1047.0377 25.607412,1047.0377 26.00357,1046.6418 26.00357,1046.1532 L 26.00357,1040.8401 C 26.00357,1040.3547 25.607412,1039.9557 25.118168,1039.9557 z M 25.118168,1036.4147 C 20.228197,1036.4147 16.264515,1032.447 16.264515,1027.5607 16.264515,1022.6713 20.228197,1018.7067 25.118168,1018.7067 30.008447,1018.7067 33.971883,1022.6713 33.971883,1027.5607 33.971883,1032.447 30.008447,1036.4147 25.118168,1036.4147 z M 25.118168,1016.9346 C 19.250637,1016.9346 14.493523,1021.691 14.493523,1027.5607 14.493523,1033.4304 19.250637,1038.1837 25.118168,1038.1837 30.985698,1038.1837 35.742997,1033.4304 35.742997,1027.5607 35.742997,1021.691 30.985698,1016.9346 25.118168,1016.9346 z M 35.135307,1036.3251 C 34.789868,1035.9817 34.229185,1035.9817 33.882507,1036.3251 33.537067,1036.6714 33.537067,1037.228 33.882507,1037.5744 L 37.63936,1041.3381 C 37.985109,1041.6814 38.546721,1041.6814 38.89216,1041.3381 39.2376,1040.9917 39.2376,1040.4257 38.89216,1040.0794 L 35.135307,1036.3251 z M 43.711001,1026.6761 38.399204,1026.6761 C 37.90996,1026.6761 37.513802,1027.0751 37.513802,1027.5607 37.513802,1028.0463 37.90996,1028.4451 38.399204,1028.4451 L 43.711001,1028.4451 C 44.200246,1028.4451 44.596403,1028.0463 44.596403,1027.5607 44.596403,1027.0751 44.200246,1026.6761 43.711001,1026.6761 z M 15.101182,1036.3251 11.344175,1040.0794 C 10.998674,1040.4257 10.998674,1040.9917 11.344175,1041.3381 11.690883,1041.6814 12.251411,1041.6814 12.596913,1041.3381 L 16.352684,1037.5744 C 16.699391,1037.228 16.699391,1036.6714 16.352684,1036.3251 16.007212,1035.9817 15.446685,1035.9817 15.101182,1036.3251 z M 35.135307,1018.7963 38.89216,1015.042 C 39.2376,1014.6956 39.2376,1014.1296 38.89216,1013.7833 38.546721,1013.44 37.985109,1013.44 37.63936,1013.7833 L 33.882507,1017.5469 C 33.537067,1017.8933 33.537067,1018.45 33.882507,1018.7963 34.229185,1019.1396 34.789868,1019.1396 35.135307,1018.7963 z M 25.118168,1015.1657 C 25.607412,1015.1657 26.00357,1014.7667 26.00357,1014.278 L 26.00357,1008.9681 C 26.00357,1008.4796 25.607412,1008.0837 25.118168,1008.0837 24.628924,1008.0837 24.232765,1008.4796 24.232765,1008.9681 L 24.232765,1014.278 C 24.232765,1014.7667 24.628924,1015.1657 25.118168,1015.1657 z M 12.722565,1027.5607 C 12.722565,1027.0751 12.326313,1026.6761 11.83707,1026.6761 L 6.5241283,1026.6761 C 6.0360903,1026.6761 5.6398394,1027.0751 5.6398394,1027.5607 5.6398394,1028.0463 6.0360903,1028.4451 6.5241283,1028.4451 L 11.83707,1028.4451 C 12.326313,1028.4451 12.722565,1028.0463 12.722565,1027.5607 z M 15.101182,1018.7963 C 15.446685,1019.1396 16.007212,1019.1396 16.352684,1018.7963 16.699391,1018.45 16.699391,1017.8933 16.352684,1017.5469 L 12.596913,1013.7833 C 12.251411,1013.44 11.690883,1013.44 11.344175,1013.7833 10.998674,1014.1296 10.998674,1014.6956 11.344175,1015.042 L 15.101182,1018.7963"
       id="path724"
       style="fill:#ffffff;fill-opacity:1;fill-rule:nonzero;stroke:none" />
    <path
       d="M 75.099137,1039.8538 C 74.609893,1039.8538 74.213734,1040.2528 74.213734,1040.7382 L 74.213734,1046.0513 C 74.213734,1046.5399 74.609893,1046.9358 75.099137,1046.9358 75.588381,1046.9358 75.984539,1046.5399 75.984539,1046.0513 L 75.984539,1040.7382 C 75.984539,1040.2528 75.588381,1039.8538 75.099137,1039.8538 z M 75.099137,1036.3128 C 70.209166,1036.3128 66.245484,1032.3451 66.245484,1027.4588 66.245484,1022.5694 70.209166,1018.6048 75.099137,1018.6048 79.989416,1018.6048 83.952852,1022.5694 83.952852,1027.4588 83.952852,1032.3451 79.989416,1036.3128 75.099137,1036.3128 z M 75.099137,1016.8327 C 69.231606,1016.8327 64.474492,1021.5891 64.474492,1027.4588 64.474492,1033.3285 69.231606,1038.0818 75.099137,1038.0818 80.966667,1038.0818 85.723967,1033.3285 85.723967,1027.4588 85.723967,1021.5891 80.966667,1016.8327 75.099137,1016.8327 z M 85.116276,1036.2232 C 84.770837,1035.8798 84.210154,1035.8798 83.863476,1036.2232 83.518036,1036.5695 83.518036,1037.1261 83.863476,1037.4725 L 87.62033,1041.2362 C 87.966078,1041.5795 88.52769,1041.5795 88.873129,1041.2362 89.218569,1040.8898 89.218569,1040.3238 88.873129,1039.9775 L 85.116276,1036.2232 z M 93.691971,1026.5742 88.380173,1026.5742 C 87.890929,1026.5742 87.494771,1026.9732 87.494771,1027.4588 87.494771,1027.9444 87.890929,1028.3432 88.380173,1028.3432 L 93.691971,1028.3432 C 94.181215,1028.3432 94.577372,1027.9444 94.577372,1027.4588 94.577372,1026.9732 94.181215,1026.5742 93.691971,1026.5742 z M 65.082151,1036.2232 61.325144,1039.9775 C 60.979643,1040.3238 60.979643,1040.8898 61.325144,1041.2362 61.671852,1041.5795 62.23238,1041.5795 62.577882,1041.2362 L 66.333653,1037.4725 C 66.68036,1037.1261 66.68036,1036.5695 66.333653,1036.2232 65.988181,1035.8798 65.427654,1035.8798 65.082151,1036.2232 z M 85.116276,1018.6944 88.873129,1014.9401 C 89.218569,1014.5937 89.218569,1014.0277 88.873129,1013.6814 88.52769,1013.3381 87.966078,1013.3381 87.62033,1013.6814 L 83.863476,1017.445 C 83.518036,1017.7914 83.518036,1018.3481 83.863476,1018.6944 84.210154,1019.0377 84.770837,1019.0377 85.116276,1018.6944 z M 75.099137,1015.0638 C 75.588381,1015.0638 75.984539,1014.6648 75.984539,1014.1761 L 75.984539,1008.8662 C 75.984539,1008.3777 75.588381,1007.9818 75.099137,1007.9818 74.609893,1007.9818 74.213734,1008.3777 74.213734,1008.8662 L 74.213734,1014.1761 C 74.213734,1014.6648 74.609893,1015.0638 75.099137,1015.0638 z M 62.703534,1027.4588 C 62.703534,1026.9732 62.307282,1026.5742 61.818039,1026.5742 L 56.505098,1026.5742 C 56.01706,1026.5742 55.620809,1026.9732 55.620809,1027.4588 55.620809,1027.9444 56.01706,1028.3432 56.505098,1028.3432 L 61.818039,1028.3432 C 62.307282,1028.3432 62.703534,1027.9444 62.703534,1027.4588 z M 65.082151,1018.6944 C 65.427654,1019.0377 65.988181,1019.0377 66.333653,1018.6944 66.68036,1018.3481 66.68036,1017.7914 66.333653,1017.445 L 62.577882,1013.6814 C 62.23238,1013.3381 61.671852,1013.3381 61.325144,1013.6814 60.979643,1014.0277 60.979643,1014.5937 61.325144,1014.9401 L 65.082151,1018.6944"
       id="path724-1"
       style="fill:#2a8fbd;fill-opacity:1;fill-rule:nonzero;stroke:none" />
  </g>
</svg>
