<?xml version="1.0" encoding="UTF-8" standalone="no"?>
<!-- Created with Inkscape (http://www.inkscape.org/) -->

<svg
   xmlns:dc="http://purl.org/dc/elements/1.1/"
   xmlns:cc="http://creativecommons.org/ns#"
   xmlns:rdf="http://www.w3.org/1999/02/22-rdf-syntax-ns#"
   xmlns:svg="http://www.w3.org/2000/svg"
   xmlns="http://www.w3.org/2000/svg"
   version="1.1"
   width="100"
   height="50"
   id="svg2">
  <defs
     id="defs4" />
  <metadata
     id="metadata7">
    <rdf:RDF>
      <cc:Work
         rdf:about="">
        <dc:format>image/svg+xml</dc:format>
        <dc:type
           rdf:resource="http://purl.org/dc/dcmitype/StillImage" />
        <dc:title></dc:title>
      </cc:Work>
    </rdf:RDF>
  </metadata>
  <g
     transform="translate(0,-1002.3622)"
     id="layer1">
    <path
       d="M 18.981323,1032.5928 C 20.132534,1032.5928 21.067591,1031.6457 21.067591,1030.5041 21.067591,1029.3627 20.132534,1028.4154 18.981323,1028.4154 17.827681,1028.4154 16.895054,1029.3627 16.895054,1030.5041 16.895054,1031.6457 17.827681,1032.5928 18.981323,1032.5928 z M 13.417129,1017.2919 C 13.800867,1017.2919 14.114171,1016.9762 14.114171,1016.5876 14.114171,1016.2233 13.800867,1015.9076 13.417129,1015.9076 13.033392,1015.9076 12.722516,1016.2233 12.722516,1016.5876 12.722516,1016.9762 13.033392,1017.2919 13.417129,1017.2919 z M 15.503398,1023.558 C 15.503398,1021.6393 17.060207,1020.085 18.981323,1020.085 20.902438,1020.085 22.456818,1021.6393 22.456818,1023.558 L 22.456818,1030.5041 C 22.456818,1032.4228 20.902438,1033.9772 18.981323,1033.9772 17.060207,1033.9772 15.503398,1032.4228 15.503398,1030.5041 L 15.503398,1023.558 z M 14.114171,1030.5041 C 14.114171,1033.2 16.292732,1035.3616 18.981323,1035.3616 21.669913,1035.3616 23.848473,1033.2 23.848473,1030.5041 L 23.848473,1023.558 C 23.848473,1020.8621 21.669913,1018.6763 18.981323,1018.6763 16.292732,1018.6763 14.114171,1020.8621 14.114171,1023.558 L 14.114171,1030.5041 z M 13.417129,1038.1546 C 13.800867,1038.1546 14.114171,1037.8389 14.114171,1037.4503 14.114171,1037.086 13.800867,1036.7702 13.417129,1036.7702 13.033392,1036.7702 12.722516,1037.086 12.722516,1037.4503 12.722516,1037.8389 13.033392,1038.1546 13.417129,1038.1546 z M 39.144539,1039.539 11.33086,1039.539 11.33086,1014.5232 39.144539,1014.5232 39.144539,1039.539 z M 39.144539,1013.1145 11.33086,1013.1145 C 10.563386,1013.1145 9.9416339,1013.746 9.9416339,1014.5232 L 9.9416339,1039.539 C 9.9416339,1040.3162 10.563386,1040.9234 11.33086,1040.9234 L 39.144539,1040.9234 C 39.912014,1040.9234 40.536195,1040.3162 40.536195,1039.539 L 40.536195,1014.5232 C 40.536195,1013.746 39.912014,1013.1145 39.144539,1013.1145 z M 37.05827,1017.2919 C 37.442008,1017.2919 37.755313,1016.9762 37.755313,1016.5876 37.755313,1016.2233 37.442008,1015.9076 37.05827,1015.9076 36.674533,1015.9076 36.363657,1016.2233 36.363657,1016.5876 36.363657,1016.9762 36.674533,1017.2919 37.05827,1017.2919 z M 28.018582,1023.558 C 28.018582,1021.6393 29.57539,1020.085 31.496506,1020.085 33.417622,1020.085 34.97443,1021.6393 34.97443,1023.558 L 34.97443,1030.5041 C 34.97443,1032.4228 33.417622,1033.9772 31.496506,1033.9772 29.57539,1033.9772 28.018582,1032.4228 28.018582,1030.5041 L 28.018582,1023.558 z M 31.496506,1035.3616 C 34.185097,1035.3616 36.363657,1033.2 36.363657,1030.5041 L 36.363657,1023.558 C 36.363657,1020.8621 34.185097,1018.6763 31.496506,1018.6763 28.807915,1018.6763 26.629355,1020.8621 26.629355,1023.558 L 26.629355,1030.5041 C 26.629355,1033.2 28.807915,1035.3616 31.496506,1035.3616 z M 31.496506,1025.6467 C 32.647718,1025.6467 33.582775,1024.6995 33.582775,1023.558 33.582775,1022.3922 32.647718,1021.4693 31.496506,1021.4693 30.342865,1021.4693 29.410237,1022.3922 29.410237,1023.558 29.410237,1024.6995 30.342865,1025.6467 31.496506,1025.6467 z M 37.05827,1036.7702 C 36.674533,1036.7702 36.363657,1037.086 36.363657,1037.4503 36.363657,1037.8389 36.674533,1038.1546 37.05827,1038.1546 37.442008,1038.1546 37.755313,1037.8389 37.755313,1037.4503 37.755313,1037.086 37.442008,1036.7702 37.05827,1036.7702"
       id="path172"
       style="fill:#ffffff;fill-opacity:1;fill-rule:nonzero;stroke:none" />
    <path
       d="M 68.754305,1033.01 C 69.905516,1033.01 70.840573,1032.0629 70.840573,1030.9213 70.840573,1029.7799 69.905516,1028.8326 68.754305,1028.8326 67.600663,1028.8326 66.668036,1029.7799 66.668036,1030.9213 66.668036,1032.0629 67.600663,1033.01 68.754305,1033.01 z M 63.190111,1017.7091 C 63.573849,1017.7091 63.887153,1017.3934 63.887153,1017.0048 63.887153,1016.6405 63.573849,1016.3248 63.190111,1016.3248 62.806374,1016.3248 62.495498,1016.6405 62.495498,1017.0048 62.495498,1017.3934 62.806374,1017.7091 63.190111,1017.7091 z M 65.27638,1023.9752 C 65.27638,1022.0565 66.833189,1020.5022 68.754305,1020.5022 70.67542,1020.5022 72.2298,1022.0565 72.2298,1023.9752 L 72.2298,1030.9213 C 72.2298,1032.84 70.67542,1034.3944 68.754305,1034.3944 66.833189,1034.3944 65.27638,1032.84 65.27638,1030.9213 L 65.27638,1023.9752 z M 63.887153,1030.9213 C 63.887153,1033.6172 66.065714,1035.7788 68.754305,1035.7788 71.442895,1035.7788 73.621455,1033.6172 73.621455,1030.9213 L 73.621455,1023.9752 C 73.621455,1021.2793 71.442895,1019.0935 68.754305,1019.0935 66.065714,1019.0935 63.887153,1021.2793 63.887153,1023.9752 L 63.887153,1030.9213 z M 63.190111,1038.5718 C 63.573849,1038.5718 63.887153,1038.2561 63.887153,1037.8675 63.887153,1037.5032 63.573849,1037.1874 63.190111,1037.1874 62.806374,1037.1874 62.495498,1037.5032 62.495498,1037.8675 62.495498,1038.2561 62.806374,1038.5718 63.190111,1038.5718 z M 88.917521,1039.9562 61.103842,1039.9562 61.103842,1014.9404 88.917521,1014.9404 88.917521,1039.9562 z M 88.917521,1013.5317 61.103842,1013.5317 C 60.336368,1013.5317 59.714616,1014.1632 59.714616,1014.9404 L 59.714616,1039.9562 C 59.714616,1040.7334 60.336368,1041.3406 61.103842,1041.3406 L 88.917521,1041.3406 C 89.684996,1041.3406 90.309177,1040.7334 90.309177,1039.9562 L 90.309177,1014.9404 C 90.309177,1014.1632 89.684996,1013.5317 88.917521,1013.5317 z M 86.831252,1017.7091 C 87.21499,1017.7091 87.528295,1017.3934 87.528295,1017.0048 87.528295,1016.6405 87.21499,1016.3248 86.831252,1016.3248 86.447515,1016.3248 86.136639,1016.6405 86.136639,1017.0048 86.136639,1017.3934 86.447515,1017.7091 86.831252,1017.7091 z M 77.791564,1023.9752 C 77.791564,1022.0565 79.348372,1020.5022 81.269488,1020.5022 83.190604,1020.5022 84.747412,1022.0565 84.747412,1023.9752 L 84.747412,1030.9213 C 84.747412,1032.84 83.190604,1034.3944 81.269488,1034.3944 79.348372,1034.3944 77.791564,1032.84 77.791564,1030.9213 L 77.791564,1023.9752 z M 81.269488,1035.7788 C 83.958079,1035.7788 86.136639,1033.6172 86.136639,1030.9213 L 86.136639,1023.9752 C 86.136639,1021.2793 83.958079,1019.0935 81.269488,1019.0935 78.580897,1019.0935 76.402337,1021.2793 76.402337,1023.9752 L 76.402337,1030.9213 C 76.402337,1033.6172 78.580897,1035.7788 81.269488,1035.7788 z M 81.269488,1026.0639 C 82.4207,1026.0639 83.355757,1025.1167 83.355757,1023.9752 83.355757,1022.8094 82.4207,1021.8865 81.269488,1021.8865 80.115847,1021.8865 79.183219,1022.8094 79.183219,1023.9752 79.183219,1025.1167 80.115847,1026.0639 81.269488,1026.0639 z M 86.831252,1037.1874 C 86.447515,1037.1874 86.136639,1037.5032 86.136639,1037.8675 86.136639,1038.2561 86.447515,1038.5718 86.831252,1038.5718 87.21499,1038.5718 87.528295,1038.2561 87.528295,1037.8675 87.528295,1037.5032 87.21499,1037.1874 86.831252,1037.1874"
       id="path172-1"
       style="fill:#2a8fbd;fill-opacity:1;fill-rule:nonzero;stroke:none" />
  </g>
</svg>
