<?xml version="1.0" encoding="UTF-8" standalone="no"?>
<!-- Created with Inkscape (http://www.inkscape.org/) -->

<svg
   xmlns:dc="http://purl.org/dc/elements/1.1/"
   xmlns:cc="http://creativecommons.org/ns#"
   xmlns:rdf="http://www.w3.org/1999/02/22-rdf-syntax-ns#"
   xmlns:svg="http://www.w3.org/2000/svg"
   xmlns="http://www.w3.org/2000/svg"
   version="1.1"
   width="100"
   height="50"
   id="svg2">
  <defs
     id="defs4" />
  <metadata
     id="metadata7">
    <rdf:RDF>
      <cc:Work
         rdf:about="">
        <dc:format>image/svg+xml</dc:format>
        <dc:type
           rdf:resource="http://purl.org/dc/dcmitype/StillImage" />
        <dc:title></dc:title>
      </cc:Work>
    </rdf:RDF>
  </metadata>
  <g
     transform="translate(0,-1002.3622)"
     id="layer1">
    <path
       d="M 25.134621,1043.8826 C 21.224413,1043.8826 18.056062,1040.7143 18.056062,1036.804 18.056062,1034.1859 19.481047,1031.9016 21.595342,1030.6806 L 21.595342,1012.026 C 21.595342,1010.0694 23.181063,1008.4836 25.134621,1008.4836 27.091271,1008.4836 28.673901,1010.0694 28.673901,1012.026 L 28.673901,1030.6806 C 30.788196,1031.9016 32.216272,1034.1859 32.216272,1036.804 32.216272,1040.7143 29.04483,1043.8826 25.134621,1043.8826 z M 30.445086,1029.7317 30.445086,1012.026 C 30.445086,1009.0957 28.068051,1006.7155 25.134621,1006.7155 22.204283,1006.7155 19.827248,1009.0957 19.827248,1012.026 L 19.827248,1029.7317 C 17.678951,1031.3514 16.284877,1033.9108 16.284877,1036.804 16.284877,1041.6879 20.247634,1045.6538 25.134621,1045.6538 30.021609,1045.6538 33.984366,1041.6879 33.984366,1036.804 33.984366,1033.9108 32.590292,1031.3514 30.445086,1029.7317 z M 26.905807,1031.8027 26.905807,1020.8726 C 26.905807,1019.9021 26.111401,1019.1045 25.134621,1019.1045 24.157842,1019.1045 23.366527,1019.9021 23.366527,1020.8726 L 23.366527,1031.8027 C 21.304781,1032.5291 19.827248,1034.495 19.827248,1036.804 19.827248,1039.7344 22.204283,1042.1145 25.134621,1042.1145 28.068051,1042.1145 30.445086,1039.7344 30.445086,1036.804 30.445086,1034.495 28.967553,1032.5291 26.905807,1031.8027"
       id="path782"
       style="fill:#ffffff;fill-opacity:1;fill-rule:nonzero;stroke:none" />
    <path
       d="M 75.090985,1043.5697 C 71.180777,1043.5697 68.012426,1040.4014 68.012426,1036.4911 68.012426,1033.873 69.437411,1031.5887 71.551706,1030.3677 L 71.551706,1011.7131 C 71.551706,1009.7565 73.137427,1008.1707 75.090985,1008.1707 77.047635,1008.1707 78.630265,1009.7565 78.630265,1011.7131 L 78.630265,1030.3677 C 80.74456,1031.5887 82.172636,1033.873 82.172636,1036.4911 82.172636,1040.4014 79.001194,1043.5697 75.090985,1043.5697 z M 80.40145,1029.4188 80.40145,1011.7131 C 80.40145,1008.7828 78.024415,1006.4026 75.090985,1006.4026 72.160647,1006.4026 69.783612,1008.7828 69.783612,1011.7131 L 69.783612,1029.4188 C 67.635315,1031.0385 66.241241,1033.5979 66.241241,1036.4911 66.241241,1041.375 70.203998,1045.3409 75.090985,1045.3409 79.977973,1045.3409 83.94073,1041.375 83.94073,1036.4911 83.94073,1033.5979 82.546656,1031.0385 80.40145,1029.4188 z M 76.862171,1031.4898 76.862171,1020.5597 C 76.862171,1019.5892 76.067765,1018.7916 75.090985,1018.7916 74.114206,1018.7916 73.322891,1019.5892 73.322891,1020.5597 L 73.322891,1031.4898 C 71.261145,1032.2162 69.783612,1034.1821 69.783612,1036.4911 69.783612,1039.4215 72.160647,1041.8016 75.090985,1041.8016 78.024415,1041.8016 80.40145,1039.4215 80.40145,1036.4911 80.40145,1034.1821 78.923917,1032.2162 76.862171,1031.4898"
       id="path782-4"
       style="fill:#2a8fbd;fill-opacity:1;fill-rule:nonzero;stroke:none" />
  </g>
</svg>
